<svg viewBox="0 0 1024 1024" xmlns="http://www.w3.org/2000/svg" id="图层_1"><defs><style>.cls-1{fill:#4278c3;}.cls-2{fill:#5ea5ec;}.cls-3{fill:#70c6da;}.cls-4{fill:#ecbe6b;}.cls-5{fill:#f4dd45;}.cls-6{fill:#f9ef63;}.cls-7{fill:#fff;}</style></defs><circle r="383.93" cy="528.07" cx="512" class="cls-1"></circle><path d="M512,144.14a382.2,382.2,0,0,0-178,43.7,367.79,367.79,0,0,0-8.6,79.14c0,202.26,164,366.22,366.22,366.22a364.44,364.44,0,0,0,201.73-60.55,388.28,388.28,0,0,0,2.59-44.58C895.93,316,724,144.14,512,144.14Z" class="cls-2"></path><path d="M390.9,738.75c189.27,0,342.71-153.44,342.71-342.71A341.39,341.39,0,0,0,647.33,168.7,383,383,0,0,0,512,144.14c-212,0-383.93,171.89-383.93,383.93A384.4,384.4,0,0,0,142.3,631.94,341.77,341.77,0,0,0,390.9,738.75Z" class="cls-3"></path><path d="M710.22,758a13.47,13.47,0,0,1,0-15.69L783,640.83a4.53,4.53,0,0,0-6.32-6.32L675.21,707.28a13.47,13.47,0,0,1-15.69,0L558.05,634.51a4.53,4.53,0,0,0-6.32,6.32L624.5,742.3a13.47,13.47,0,0,1,0,15.69L551.73,859.45a4.53,4.53,0,0,0,6.32,6.32L659.52,793a13.47,13.47,0,0,1,15.69,0l63.06,45.23q9.71-7.08,18.93-14.74Z" class="cls-4"></path><path d="M300.88,484C197.11,385,189.74,223,281.54,115.13c.28-1,.58-2.09.88-3.13A297,297,0,0,0,232,154.39c-109.36,114.7-108.15,293.35,2.69,399S524,651.81,633.36,537.11A297.3,297.3,0,0,0,673.3,484.7c-1,.34-2,.69-3.09,1C566.88,582.55,404.66,582.9,300.88,484Z" class="cls-5"></path><path d="M365.79,415.88c-83.86-80-112.32-196.2-84.25-300.75C189.74,223,197.11,385,300.88,484s266,98.59,369.33,1.76C567.12,518.74,449.66,495.84,365.79,415.88Z" class="cls-6"></path><path d="M650,725.05l11.13-67.57c1.15-7,11.25-7,12.41,0l11.13,67.57a9.42,9.42,0,0,0,7.76,7.76L760,743.94c7,1.15,7,11.25,0,12.41l-67.56,11.13a9.41,9.41,0,0,0-7.76,7.76L673.57,842.8c-1.16,7-11.26,7-12.41,0L650,775.24a9.42,9.42,0,0,0-7.76-7.76L574.7,756.35c-7-1.16-7-11.26,0-12.41l67.57-11.13A9.43,9.43,0,0,0,650,725.05Z" class="cls-6"></path><path d="M727.94,210.59q-12.27-8.35-25.18-15.78l5,30.27Z" class="cls-1"></path><path d="M676.69,247.05l3.62-22-95.59-68.56a4.53,4.53,0,0,0-6.32,6.32L647,258.44l22-3.62A9.41,9.41,0,0,0,676.69,247.05Z" class="cls-4"></path><path d="M668.93,289.48l-22-3.62-68.56,95.6a4.53,4.53,0,0,0,6.32,6.32l95.59-68.56-3.62-22A9.41,9.41,0,0,0,668.93,289.48Z" class="cls-4"></path><path d="M711.36,297.25l-3.62,22,95.6,68.56a4.53,4.53,0,0,0,6.32-6.32l-68.56-95.6-22,3.62A9.43,9.43,0,0,0,711.36,297.25Z" class="cls-4"></path><path d="M711.36,247.05a9.43,9.43,0,0,0,7.77,7.77l22,3.62,17.59-24.54q-14.76-12.39-30.75-23.31l-20.2,14.49Z" class="cls-4"></path><path d="M736.89,280l4.21,5.87,45.59-7.51c7-1.15,7-11.25,0-12.41l-45.59-7.5-4.21,5.87A13.46,13.46,0,0,0,736.89,280Z" class="cls-6"></path><path d="M651.17,264.31,647,258.44l-45.59,7.5c-7,1.16-7,11.26,0,12.41L647,285.86l4.21-5.87A13.46,13.46,0,0,0,651.17,264.31Z" class="cls-6"></path><path d="M686.19,229.29a13.46,13.46,0,0,0,15.68,0l5.87-4.21-5-30.27q-7.9-4.53-16-8.7l-6.42,39Z" class="cls-6"></path><path d="M686.19,315l-5.88,4.21,7.51,45.59c1.16,7,11.26,7,12.41,0l7.51-45.59L701.87,315A13.46,13.46,0,0,0,686.19,315Z" class="cls-6"></path><path d="M711.36,247.05l-3.62-22-5.87,4.21a13.46,13.46,0,0,1-15.68,0l-5.88-4.21-3.62,22a9.41,9.41,0,0,1-7.76,7.77l-22,3.62,4.21,5.87a13.46,13.46,0,0,1,0,15.68L647,285.86l22,3.62a9.41,9.41,0,0,1,7.76,7.77l3.62,22,5.88-4.21a13.46,13.46,0,0,1,15.68,0l5.87,4.21,3.62-22a9.43,9.43,0,0,1,7.77-7.77l22-3.62L736.89,280a13.46,13.46,0,0,1,0-15.68l4.21-5.87-22-3.62A9.43,9.43,0,0,1,711.36,247.05Z" class="cls-6"></path><path d="M235.48,786.58l3.62-22-57.82-41.47a385.65,385.65,0,0,0,51.6,68.53A9.47,9.47,0,0,0,235.48,786.58Z" class="cls-4"></path><path d="M277.91,794.35l22,3.62,68.56-95.6a4.53,4.53,0,0,0-6.32-6.32l-95.59,68.56,3.62,22A9.42,9.42,0,0,0,277.91,794.35Z" class="cls-4"></path><path d="M277.91,829a9.33,9.33,0,0,0-3,1.06,385.15,385.15,0,0,0,53.7,35.38l-28.73-40.06Z" class="cls-4"></path><path d="M295.67,819.52l4.21,5.87,45.59-7.51c7-1.15,7-11.25,0-12.41L299.88,798l-4.21,5.87A13.46,13.46,0,0,0,295.67,819.52Z" class="cls-6"></path><path d="M260.66,768.82l5.87-4.21L259,719c-1.16-7-11.26-7-12.41,0l-7.51,45.59,5.87,4.21A13.47,13.47,0,0,0,260.66,768.82Z" class="cls-6"></path><path d="M232.88,791.67a386.13,386.13,0,0,0,42,38.4,9.33,9.33,0,0,1,3-1.06l22-3.62-4.21-5.87a13.46,13.46,0,0,1,0-15.68l4.21-5.87-22-3.62a9.42,9.42,0,0,1-7.76-7.77l-3.62-22-5.87,4.21a13.47,13.47,0,0,1-15.69,0l-5.87-4.21-3.62,22A9.47,9.47,0,0,1,232.88,791.67Z" class="cls-6"></path><circle r="26.71" cy="261.74" cx="396.05" class="cls-7"></circle><circle r="26.71" cy="501.85" cx="791.95" class="cls-7"></circle><circle r="26.71" cy="797.37" cx="438.72" class="cls-7"></circle><circle r="18.6" cy="388.68" cx="493.4" class="cls-7"></circle><circle r="13.34" cy="229.76" cx="564.17" class="cls-7"></circle><circle r="13.34" cy="684.42" cx="246.52" class="cls-7"></circle></svg>