<svg viewBox="0 0 1024 1024" xmlns="http://www.w3.org/2000/svg" id="图层_1"><defs><style>.cls-1{fill:#fac855;}.cls-2{fill:#e4936b;}.cls-3{fill:#ecbe6b;}.cls-4{fill:#f4dd45;}.cls-5{fill:#f9ef63;}.cls-6{fill:#c10a54;}.cls-7{fill:#d82e3d;}.cls-8{fill:#dd542e;}.cls-9{fill:#664545;}.cls-10{fill:#e27d47;}.cls-11{fill:#e29375;}</style></defs><circle r="400" cy="512" cx="521.69" class="cls-1"></circle><path d="M521.69,112a398.29,398.29,0,0,0-185.46,45.53,382.93,382.93,0,0,0-9,82.46c0,210.72,170.82,381.54,381.55,381.54A379.77,379.77,0,0,0,919,558.45a404.75,404.75,0,0,0,2.7-46.45C921.69,291.09,742.6,112,521.69,112Z" class="cls-2"></path><path d="M627.2,724.59c12.65,5.91,76.66,1.63,233.26.34l.21-.34Z" class="cls-1"></path><path d="M540,911.57a264.2,264.2,0,0,1-125.34-224.9c0-146,118.37-264.39,264.38-264.39,104.84,0,195.43,61,238.18,149.49a402.7,402.7,0,0,0-13.77-179.46,368.54,368.54,0,0,0-224.41-75.78c-204.42,0-370.14,165.71-370.14,370.14a368.36,368.36,0,0,0,54,192.54A398.65,398.65,0,0,0,521.69,912C527.84,912,533.94,911.84,540,911.57Z" class="cls-3"></path><path d="M679.06,422.28c-146,0-264.38,118.37-264.38,264.39A264.2,264.2,0,0,0,540,911.57c192.32-8.68,349.25-153.14,377.22-339.8C874.49,483.3,783.9,422.28,679.06,422.28Zm0,421.76A157.38,157.38,0,1,1,836.44,686.67,157.37,157.37,0,0,1,679.06,844Z" class="cls-4"></path><circle transform="translate(-286.65 681.29) rotate(-45)" r="157.37" cy="686.67" cx="679.06" class="cls-5"></circle><path d="M714.24,725.31H183.41A399.49,399.49,0,0,0,521.81,912c142.49,0,267.53-74.52,338.38-186.69Z" class="cls-6"></path><path d="M860.19,725.31H487a295,295,0,0,0,197.25,152.3A401.57,401.57,0,0,0,860.19,725.31Z" class="cls-7"></path><path d="M244.79,205.14a216.35,216.35,0,0,1,16-81.9c-91.43,25.59-158.48,109.52-158.48,209.11,0,119.92,97.22,217.14,217.14,217.14,90.94,0,168.81-55.92,201.14-135.23a217.43,217.43,0,0,1-58.66,8C342,422.28,244.79,325.07,244.79,205.14Z" class="cls-7"></path><path d="M319.45,115.21a217.44,217.44,0,0,0-58.66,8,216.35,216.35,0,0,0-16,81.9c0,119.93,97.22,217.14,217.14,217.14a217.43,217.43,0,0,0,58.66-8,216.59,216.59,0,0,0,16-81.91C536.58,212.43,439.37,115.21,319.45,115.21Z" class="cls-8"></path><path d="M419.36,355.67h0a65.58,65.58,0,0,1-131.15,0h-28.1a93.68,93.68,0,1,0,187.35,0h-28.1Z" class="cls-9"></path><path d="M504.71,395.94h0l-31.59,12.53c26.15,73.74-6.18,153.73-74.12,180.68S252.69,580,221.19,508.39L189.48,521h0a169.56,169.56,0,0,0,315.23-125Z" class="cls-9"></path><circle r="143.29" cy="266.53" cx="453.44" class="cls-10"></circle><circle r="83.51" cy="318.99" cx="244.79" class="cls-10"></circle><circle r="83.51" cy="417.91" cx="505.22" class="cls-11"></circle><rect height="27.45" width="50.4" y="724.59" x="373.21" class="cls-9"></rect><circle r="83.51" cy="501.42" cx="199.9" class="cls-10"></circle><path d="M183.41,725.31A401.88,401.88,0,0,0,328,861.94V725.31Z" class="cls-6"></path><path d="M367.32,432.54v-.33H328V861.94q7.64,4.23,15.48,8.15,11.7,5.83,23.82,10.94c3.24,1.36,6.5,2.66,9.78,3.93V432.54Z" class="cls-9"></path></svg>