<svg xmlns="http://www.w3.org/2000/svg" xmlns:xlink="http://www.w3.org/1999/xlink" fill="none" version="1.1" viewBox="0 0 1011.900146484375 147.50003051757812"><g clip-path="url(#master_svg0_198_526)"><g><path d="M502.3000244140625,18.199981689453125L464.9000244140625,48.599981689453124L489.3000244140625,48.599981689453124L489.3000244140625,147.49998168945314L502.3000244140625,137.09998168945313L502.3000244140625,18.199981689453125Z" fill="#5A29E4" fill-opacity="1"/></g><g><path d="M513,128.1999267578125L551,96.9999267578125L526,96.9999267578125L526,0.2999267578125L513.0999756,9.2999267578125L513.0999756,128.1999267578125L513,128.1999267578125Z" fill="#5A29E4" fill-opacity="1"/></g><g><path d="M983.500048828125,35.899969482421874C987.800048828125,38.099969482421876,990.900048828125,39.999969482421875,992.800048828125,41.599969482421876L1006.200048828125,15.999969482421875C999.500048828125,11.899969482421875,991.400048828125,8.199979482421876,981.900048828125,4.899959482421875C972.599948828125,1.599979482421875,962.500048828125,-0.000030517578125,951.700048828125,-0.000030517578125C941.400048828125,-0.000030517578125,931.800048828125,1.699979482421875,923.000148828125,5.199979482421875C914.400148828125,8.599979482421874,907.500148828125,13.699969482421874,902.300148828125,20.399969482421874C897.300168828125,27.099969482421876,894.800168828125,35.499969482421875,894.800168828125,45.499969482421875C894.800168828125,56.69996948242188,898.300148828125,65.29996948242187,905.400148828125,71.29996948242187C912.600048828125,77.19996948242188,923.700148828125,81.99996948242188,938.500148828125,85.79996948242187C950.400148828125,88.89996948242188,959.900148828125,91.69996948242188,967.200048828125,94.29996948242187C974.600048828125,96.69996948242188,978.300048828125,100.79996948242187,978.300048828125,106.39996948242188C978.300048828125,114.79996948242187,970.400048828125,119.09996948242187,954.500048828125,119.09996948242187C946.599948828125,119.09996948242187,939.099948828125,118.19996948242188,932.000048828125,116.29996948242187C924.900048828125,114.39996948242188,918.699948828125,112.09996948242187,913.400048828125,109.29996948242187C908.200048828125,106.49996948242188,904.500048828125,103.99996948242188,902.300048828125,101.79996948242187L888.300048828125,128.89996948242188C897.300048828125,134.59996948242187,907.500048828125,139.09996948242187,919.100048828125,142.2999694824219C930.600048828125,145.59996948242187,942.300048828125,147.19996948242186,954.000148828125,147.19996948242186C964.200048828125,147.19996948242186,973.600048828125,145.7999694824219,982.400148828125,143.09996948242187C991.200048828125,140.19996948242186,998.200048828125,135.49996948242188,1003.600048828125,129.09996948242187C1009.100048828125,122.59996948242187,1011.900048828125,113.89996948242188,1011.900048828125,103.29996948242187C1011.900048828125,94.50006948242188,1009.800048828125,87.50006948242188,1005.700048828125,82.10006948242187C1001.700048828125,76.60006948242187,996.000048828125,72.20006948242188,988.400048828125,68.90006948242187C981.000148828125,65.60006948242187,972.200148828125,62.69996948242188,962.000148828125,60.10006948242187C950.500148828125,57.300069482421875,941.700048828125,54.800069482421875,935.600048828125,52.60006948242187C929.700048828125,50.40006948242188,926.800048828125,46.60006948242187,926.800048828125,41.200069482421874C926.800048828125,32.10006948242187,934.900048828125,27.500069482421875,951.100048828125,27.500069482421875C957.100048828125,27.500069482421875,963.000148828125,28.400069482421873,968.700048828125,30.100069482421876C974.500048828125,31.799969482421876,979.400048828125,33.69996948242188,983.500048828125,35.899969482421874Z" fill="#5A29E4" fill-opacity="1"/></g><g><path d="M711.599951171875,146.50001831054686C700.199951171875,146.50001831054686,689.899951171875,144.50001831054686,680.599951171875,140.6000183105469C671.299951171875,136.50001831054686,663.299951171875,131.00001831054686,656.599951171875,124.10001831054687C649.899951171875,117.00001831054688,644.699951171875,109.10001831054687,641.099971171875,100.30001831054688C637.500001171875,91.50001831054688,635.699951171875,82.50001831054688,635.699951171875,73.20001831054688C635.699951171875,63.700018310546874,637.599971171875,54.60001831054687,641.399961171875,45.800018310546875C645.199951171875,37.00001831054688,650.499951171875,29.300018310546875,657.399951171875,22.500018310546874C664.299951171875,15.600018310546876,672.399951171875,10.200008310546876,681.699951171875,6.200008310546875C690.999951171875,2.200008310546875,701.199951171875,0.300018310546875,712.199951171875,0.300018310546875C723.599951171875,0.300018310546875,733.899951171875,2.500028310546875,743.199951171875,6.800018310546875C752.499951171875,10.900018310546875,760.399951171875,16.500018310546874,766.999951171875,23.600018310546876C773.699951171875,30.500018310546874,778.899951171875,38.300018310546875,782.499951171875,47.10001831054687C786.099951171875,55.900018310546876,787.899951171875,64.80001831054688,787.899951171875,74.00001831054688C787.899951171875,83.50001831054688,785.999951171875,92.60001831054687,782.199951171875,101.40001831054687C778.399951171875,110.00001831054688,773.099951171875,117.80001831054688,766.199951171875,124.70001831054688C759.499951171875,131.40001831054687,751.499951171875,136.80001831054688,742.199951171875,140.70001831054688C732.799951171875,144.50001831054686,722.599951171875,146.50001831054686,711.599951171875,146.50001831054686ZM667.200051171875,73.39991831054688C667.200051171875,81.19991831054688,668.999951171875,88.60001831054687,672.600051171875,95.60001831054687C676.200051171875,102.50001831054688,681.300051171875,108.10001831054687,687.800051171875,112.40001831054687C694.500051171875,116.70001831054688,702.500051171875,118.90001831054687,711.800051171875,118.90001831054687C721.300051171875,118.90001831054687,729.300051171875,116.70001831054688,735.799951171875,112.20001831054688C742.399951171875,107.50001831054688,747.299951171875,101.80001831054688,750.799951171875,94.89991831054688C754.199951171875,87.80001831054688,755.999951171875,80.60001831054687,755.999951171875,73.19991831054688C755.999951171875,65.39991831054688,754.199951171875,58.099918310546876,750.599951171875,51.19991831054688C746.999951171875,44.29991831054687,741.799951171875,38.79991831054687,735.100051171875,34.69991831054688C728.600051171875,30.399918310546877,720.700051171875,28.199918310546874,711.600051171875,28.199918310546874C702.100051171875,28.199918310546874,694.000051171875,30.399918310546877,687.300051171875,34.89991831054687C680.800051171875,39.39991831054687,675.800051171875,45.10001831054687,672.300051171875,52.00001831054688C668.900051171875,58.800018310546875,667.200051171875,66.00001831054688,667.200051171875,73.39991831054688Z" fill-rule="evenodd" fill="#5A29E4" fill-opacity="1"/></g><g><path d="M0,145.5L63.1,1L88.7,1L151.5,145.5L118.4,145.5L103.9,111.6L47.8,111.6L33.3,145.5L0,145.5ZM76,39L54.8,84.5L96.4,84.5L76,39Z" fill-rule="evenodd" fill="#5A29E4" fill-opacity="1"/></g><g><path d="M273.6000244140625,0.999969482421875L313.4000244140625,52.19996948242188L353.2000244140625,0.999969482421875L387.0000244140625,0.999969482421875L329.9000244140625,74.09996948242187L385.2000244140625,145.39996948242188L351.3000244140625,145.39996948242188L313.3000244140625,96.29996948242187L275.6000244140625,145.39996948242188L241.2000144140625,145.39996948242188L296.8000244140625,74.09996948242187L239.4000244140625,0.999969482421875L273.6000244140625,0.999969482421875Z" fill="#5A29E4" fill-opacity="1"/></g></g></svg>