<?xml version="1.0" standalone="no"?><!DOCTYPE svg PUBLIC "-//W3C//DTD SVG 1.1//EN" "http://www.w3.org/Graphics/SVG/1.1/DTD/svg11.dtd"><svg t="1709797450150" class="icon" viewBox="0 0 1024 1024" version="1.1" xmlns="http://www.w3.org/2000/svg" p-id="4270" xmlns:xlink="http://www.w3.org/1999/xlink" width="200" height="200"><path d="M866.858667 186.453333a844.416 844.416 0 0 0-208.426667-64.64 3.157333 3.157333 0 0 0-3.370667 1.578667c-8.96 16-18.944 36.906667-25.941333 53.333333a779.52 779.52 0 0 0-234.112 0 539.306667 539.306667 0 0 0-26.325333-53.333333 3.285333 3.285333 0 0 0-3.370667-1.578667c-71.978667 12.373333-142.08 34.133333-208.426667 64.64a2.986667 2.986667 0 0 0-1.365333 1.152C22.741333 385.962667-13.653333 579.413333 4.224 770.432a3.541333 3.541333 0 0 0 1.322667 2.432 849.066667 849.066667 0 0 0 255.701333 129.28 3.285333 3.285333 0 0 0 3.584-1.194667c19.712-26.88 37.290667-55.253333 52.352-85.077333a3.242667 3.242667 0 0 0-1.792-4.522667 559.232 559.232 0 0 1-79.872-38.058666 3.328 3.328 0 0 1-1.621333-2.645334 3.285333 3.285333 0 0 1 1.28-2.816c5.376-4.010667 10.752-8.192 15.872-12.458666a3.2 3.2 0 0 1 3.285333-0.426667c167.594667 76.501333 349.013333 76.501333 514.645333 0a3.157333 3.157333 0 0 1 3.328 0.426667c5.12 4.181333 10.496 8.448 15.914667 12.458666a3.242667 3.242667 0 0 1 1.28 2.773334 3.328 3.328 0 0 1-1.536 2.688c-25.557333 14.890667-52.266667 27.605333-79.914667 37.973333a3.242667 3.242667 0 0 0-2.133333 3.242667c0.042667 0.512 0.170667 0.938667 0.384 1.365333 15.36 29.781333 32.938667 58.112 52.266667 85.034667a3.285333 3.285333 0 0 0 3.584 1.194666 846.506667 846.506667 0 0 0 256.085333-129.28 3.285333 3.285333 0 0 0 1.365333-2.304c21.333333-220.885333-35.754667-412.757333-151.424-582.826666a2.56 2.56 0 0 0-1.322666-1.28zM342.186667 654.08c-50.432 0-92.032-46.293333-92.032-103.210667 0-56.874667 40.789333-103.210667 92.032-103.210666 51.626667 0 92.842667 46.762667 92.032 103.253333 0 56.874667-40.789333 103.168-92.032 103.168z m340.266666 0c-50.474667 0-92.032-46.293333-92.032-103.210667 0-56.874667 40.746667-103.210667 92.032-103.210666 51.626667 0 92.842667 46.762667 92.032 103.253333 0 56.874667-40.362667 103.168-92.032 103.168z" fill="#5865F2" p-id="4271"></path></svg>