<svg xmlns="http://www.w3.org/2000/svg" xmlns:xlink="http://www.w3.org/1999/xlink" fill="none" version="1.1" width="141" height="30.21116065979004" viewBox="0 0 141 30.21116065979004"><defs><linearGradient x1="1" y1="0.976190447807312" x2="0.7838828563690186" y2="0.43223443627357483" id="master_svg0_441_8346"><stop offset="0%" stop-color="#70BFFC" stop-opacity="1"/><stop offset="100%" stop-color="#248EFF" stop-opacity="1"/></linearGradient><linearGradient x1="1.093421459197998" y1="0.14084236323833466" x2="0" y2="0.7781516909599304" id="master_svg1_441_00814"><stop offset="0%" stop-color="#9ED3FF" stop-opacity="1"/><stop offset="100%" stop-color="#008DFF" stop-opacity="1"/></linearGradient><linearGradient x1="0.9371286034584045" y1="0" x2="0.09386466443538666" y2="0.9283419847488403" id="master_svg2_441_01590"><stop offset="0%" stop-color="#8E89FF" stop-opacity="1"/><stop offset="99.28571581840515%" stop-color="#3666D6" stop-opacity="1"/></linearGradient><linearGradient x1="1" y1="0.9670329689979553" x2="0.49450555443763733" y2="0.4194139242172241" id="master_svg3_441_03278"><stop offset="0%" stop-color="#6861FF" stop-opacity="1"/><stop offset="100%" stop-color="#32D8D8" stop-opacity="1"/></linearGradient><linearGradient x1="1" y1="0.2975577712059021" x2="-0.07859037816524506" y2="0.8303901553153992" id="master_svg4_443_1587"><stop offset="0%" stop-color="#56EDFD" stop-opacity="1"/><stop offset="100%" stop-color="#0094FF" stop-opacity="1"/></linearGradient><linearGradient x1="0" y1="0.9752992987632751" x2="1" y2="0.17599385976791382" id="master_svg5_441_9816"><stop offset="0%" stop-color="#1A9199" stop-opacity="1"/><stop offset="100%" stop-color="#6FBFFC" stop-opacity="1"/></linearGradient></defs><g><g><g><g><path d="M8.13179,12.7673L12.8053,8.08801C13.4939,7.39851,14.6724,7.88623,14.6724,8.86073L14.6724,28.1926C14.6724,28.9722,13.7296,29.3624,13.1787,28.8108L0.767491,16.3841C-0.256121,15.3592,-0.255788,13.6988,0.768237,12.6743L13.1789,0.258106C13.73,-0.293159,14.6724,0.0970943,14.6724,0.87653L14.6724,2.64542C14.6724,2.87707,14.5805,3.09926,14.4169,3.26326L3.1866,14.52L10.4317,21.7741C10.8793,22.2223,11.6453,21.9052,11.6453,21.2718L11.6453,13.5357L9.36702,15.7973C8.81502,16.3452,7.87596,15.9542,7.87596,15.1765L7.87596,13.3855C7.87596,13.1537,7.96797,12.9313,8.13179,12.7673Z" fill-rule="evenodd" fill="url(#master_svg0_441_8346)" fill-opacity="1"/></g><g><path d="M7.875958442687988,16.226941392059324C7.875958442687988,16.615831392059327,8.345486442687989,16.811331392059326,8.621487442687988,16.53735139205933L11.645328442687989,13.535661392059327Q13.439548442687988,11.805991392059326,14.257198442687988,12.184711392059327Q14.512348442687987,12.302901392059326,14.672408442687988,12.626411392059326L14.672408442687988,8.860731392059327C14.672408442687988,7.886227392059326,13.493908442687989,7.398506392059327,12.805258442687988,8.088015392059326L8.131788442687988,12.767311392059327C7.967972442687988,12.931331392059327,7.875958442687988,13.153671392059326,7.875958442687988,13.385491392059325L7.875958442687988,16.226941392059324Z" fill="url(#master_svg1_441_00814)" fill-opacity="1"/></g><g><path d="M2.344915109375,11.114989075108618Q1.437394109375,12.024389075108617,3.1866021093750003,14.519989075108617L14.416912109375,3.2632590751086177C14.580512109375,3.0992590751086175,14.672412109375,2.8770690751086176,14.672412109375,2.6454190751086175L14.672412109375,0.8787190751086176C14.672412109375,0.09897477510861755,13.729312109375,-0.29113892489138243,13.178512109375,0.26074907510861756L2.345541109375,11.114389075108617L2.344915109375,11.114989075108618Z" fill="url(#master_svg2_441_01590)" fill-opacity="1"/></g></g><g transform="matrix(-1,0,0,-1,64,58.14065933227539)"><g><path d="M40.13179,41.837629666137694L44.8053,37.15833966613769C45.4939,36.4688396661377,46.672399999999996,36.95655966613769,46.672399999999996,37.9310596661377L46.672399999999996,57.262929666137694C46.672399999999996,58.042529666137696,45.7296,58.432729666137696,45.1787,57.881129666137696L32.767491,45.4544296661377C31.743879,44.4295296661377,31.744212,42.769129666137694,32.768237,41.7446296661377L45.1789,29.328435666137697C45.730000000000004,28.777170666137696,46.672399999999996,29.167423966137694,46.672399999999996,29.946859666137694L46.672399999999996,31.715749666137697C46.672399999999996,31.947399666137695,46.5805,32.169589666137696,46.4169,32.3335896661377L35.1866,43.59032966613769L42.4317,50.8444296661377C42.8793,51.2926296661377,43.6453,50.975529666137696,43.6453,50.342129666137694L43.6453,42.606029666137694L41.36702,44.867629666137695C40.815020000000004,45.415529666137694,39.87596,45.024529666137695,39.87596,44.2468296661377L39.87596,42.455829666137696C39.87596,42.224029666137696,39.96797,42.001629666137696,40.13179,41.837629666137694Z" fill-rule="evenodd" fill="url(#master_svg3_441_03278)" fill-opacity="1"/></g><g><path d="M39.87595844268799,45.29727105819702C39.87595844268799,45.68616105819702,40.345486442687985,45.881661058197025,40.621487442687986,45.607681058197024L43.64532844268799,42.60599105819702Q45.439548442687986,40.87632105819702,46.25719844268799,41.25504105819702Q46.51234844268799,41.37323105819702,46.67240844268799,41.69674105819702L46.67240844268799,37.931061058197024C46.67240844268799,36.95655705819702,45.49390844268799,36.46883605819702,44.805258442687986,37.15834505819702L40.13178844268799,41.83764105819702C39.96797244268799,42.00166105819702,39.87595844268799,42.22400105819702,39.87595844268799,42.455821058197024L39.87595844268799,45.29727105819702Z" fill="url(#master_svg4_443_1587)" fill-opacity="1"/></g><g><path d="M34.344915109375,40.18531874124631Q33.437394109375,41.09471874124631,35.186602109375,43.590318741246314L46.416912109375,32.33358874124632C46.580512109375,32.169588741246315,46.672412109375,31.947398741246314,46.672412109375,31.715748741246312L46.672412109375,29.949048741246312C46.672412109375,29.169304441246314,45.729312109375,28.779190741246314,45.178512109375,29.331078741246312L34.345541109375,40.184718741246314L34.344915109375,40.18531874124631Z" fill="url(#master_svg5_441_9816)" fill-opacity="1"/></g></g></g><g><path d="M41.95422520019531,24.588213342285155L38.08845520019531,24.588213342285155L45.13284520019531,4.595539342285156L49.599855200195314,4.595539342285156L56.644155200195314,24.588213342285155L52.778355200195314,24.588213342285155L47.44446520019531,8.695603342285157L47.288275200195315,8.695603342285157L41.95422520019531,24.588213342285155ZM42.07915520019531,16.747313342285157L52.62215520019531,16.747313342285157L52.62215520019531,19.660413342285157L42.07915520019531,19.660413342285157L42.07915520019531,16.747313342285157ZM62.66155520019531,4.595539342285156L62.66155520019531,24.588213342285155L59.123655200195316,24.588213342285155L59.123655200195316,4.595539342285156L62.66155520019531,4.595539342285156ZM72.83355520019532,24.885013342285156Q70.63905520019532,24.885013342285156,69.02725520019531,23.916613342285157Q67.41565520019532,22.948213342285158,66.53215520019532,21.208613342285155Q65.64875520019531,19.468913342285155,65.64875520019531,17.15351334228516Q65.64875520019531,14.826213342285156,66.53215520019532,13.080743342285157Q67.41565520019532,11.335323342285157,69.02725520019531,10.366893342285156Q70.63905520019532,9.398463342285156,72.83355520019532,9.398463342285156Q75.02805520019531,9.398463342285156,76.63975520019531,10.366893342285156Q78.25155520019531,11.335323342285157,79.13495520019532,13.080743342285157Q80.01845520019532,14.826213342285156,80.01845520019532,17.15351334228516Q80.01845520019532,19.468913342285155,79.13495520019532,21.208613342285155Q78.25155520019531,22.948213342285158,76.63975520019531,23.916613342285157Q75.02805520019531,24.885013342285156,72.83355520019532,24.885013342285156ZM72.84915520019531,22.050113342285155Q74.04805520019531,22.050113342285155,74.84455520019532,21.392213342285157Q75.64105520019531,20.734213342285155,76.03735520019532,19.621313342285156Q76.43375520019532,18.508413342285156,76.43375520019532,17.137813342285156Q76.43375520019532,15.763313342285157,76.03735520019532,14.646613342285157Q75.64105520019531,13.529803342285156,74.84455520019532,12.865983342285157Q74.04805520019531,12.202163342285155,72.84915520019531,12.202163342285155Q71.63485520019532,12.202163342285155,70.83035520019531,12.865983342285157Q70.02605520019532,13.529803342285156,69.62965520019532,14.646613342285157Q69.23335520019532,15.763313342285157,69.23335520019532,17.137813342285156Q69.23335520019532,18.508413342285156,69.62965520019532,19.621313342285156Q70.02605520019532,20.734213342285155,70.83035520019531,21.392213342285157Q71.63485520019532,22.050113342285155,72.84915520019531,22.050113342285155ZM95.88575520019532,9.593713342285156L90.54395520019531,24.588213342285155L86.63905520019532,24.588213342285155L81.29725520019531,9.593713342285156L85.06145520019531,9.593713342285156L88.51345520019531,20.730213342285158L88.66965520019531,20.730213342285158L92.12145520019531,9.593713342285156L95.88575520019532,9.593713342285156ZM102.1978552001953,24.892813342285155Q100.76855520019532,24.892813342285155,99.63225520019532,24.378313342285157Q98.49605520019531,23.863813342285155,97.83605520019532,22.859413342285155Q97.17615520019531,21.854813342285155,97.17615520019531,20.378813342285156Q97.17615520019531,19.113713342285156,97.64875520019531,18.281013342285156Q98.12125520019532,17.448213342285158,98.9315552001953,16.950313342285156Q99.74175520019531,16.452513342285158,100.75995520019532,16.197713342285155Q101.77805520019531,15.943013342285155,102.86945520019532,15.825813342285157Q104.19325520019531,15.681213342285156,105.01215520019531,15.569013342285157Q105.83125520019532,15.456713342285155,106.2051552001953,15.218613342285156Q106.57905520019531,14.980413342285157,106.57905520019531,14.474713342285156L106.57905520019531,14.412213342285156Q106.57905520019531,13.311063342285156,105.92785520019531,12.705823342285155Q105.27685520019531,12.100573342285156,104.04085520019531,12.100573342285156Q102.74255520019531,12.100573342285156,101.98685520019532,12.668753342285155Q101.23135520019531,13.236943342285157,100.96385520019531,14.006113342285156L97.66825520019532,13.537573342285157Q98.05875520019532,12.170893342285156,98.95775520019532,11.248373342285156Q99.85695520019532,10.325863342285157,101.15425520019531,9.862163342285157Q102.45165520019532,9.398463342285156,104.0253552001953,9.398463342285156Q105.10295520019531,9.398463342285156,106.17965520019531,9.651363342285157Q107.25655520019531,9.904113342285157,108.14585520019531,10.488003342285158Q109.03525520019531,11.071743342285156,109.57595520019531,12.067473342285156Q110.11685520019532,13.063203342285156,110.11685520019532,14.552813342285157L110.11685520019532,24.588213342285155L106.71965520019532,24.588213342285155L106.71965520019532,22.526413342285156L106.60245520019531,22.526413342285156Q106.28235520019531,23.155213342285155,105.69845520019531,23.696013342285156Q105.11465520019532,24.236813342285156,104.24385520019531,24.564913342285156Q103.37325520019532,24.892813342285155,102.1978552001953,24.892813342285155ZM103.11145520019531,22.292113342285155Q104.17755520019531,22.292113342285155,104.95945520019531,21.868613342285155Q105.74145520019532,21.444813342285155,106.16805520019531,20.743913342285158Q106.59475520019531,20.043113342285157,106.59475520019531,19.207313342285154L106.59475520019531,17.442413342285157Q106.42085520019532,17.583013342285156,106.02945520019532,17.699213342285155Q105.63805520019531,17.815313342285158,105.14685520019532,17.904313342285157Q104.65585520019532,17.993013342285156,104.1764552001953,18.060413342285155Q103.69725520019531,18.127713342285155,103.34575520019531,18.176513342285155Q102.55705520019531,18.285913342285156,101.93315520019532,18.529013342285154Q101.30945520019532,18.772013342285156,100.94915520019532,19.206413342285156Q100.5890552001953,19.640813342285156,100.5890552001953,20.324213342285155Q100.5890552001953,21.294413342285157,101.30065520019531,21.793413342285156Q102.01235520019532,22.292113342285155,103.11145520019531,22.292113342285155ZM115.85295520019531,24.806913342285156Q114.96655520019532,24.806913342285156,114.33405520019531,24.178213342285158Q113.70145520019531,23.549513342285156,113.70535520019531,22.659313342285156Q113.70145520019531,21.780713342285157,114.33405520019531,21.153913342285158Q114.96655520019532,20.527213342285155,115.85295520019531,20.527213342285155Q116.71595520019531,20.527213342285155,117.35635520019531,21.153913342285158Q117.99675520019531,21.780713342285157,118.00065520019531,22.659313342285156Q117.99675520019531,23.250813342285156,117.69905520019532,23.738913342285155Q117.40135520019531,24.227013342285158,116.91805520019531,24.517013342285157Q116.43485520019532,24.806913342285156,115.85295520019531,24.806913342285156ZM121.65935520019531,9.593713342285156L125.19725520019531,9.593713342285156L125.19725520019531,25.447313342285156Q125.19725520019531,27.067813342285156,124.5831552001953,28.122113342285157Q123.96915520019532,29.176413342285155,122.8044552001953,29.693813342285157Q121.63985520019531,30.211113342285156,119.98035520019532,30.211113342285156Q119.79305520019531,30.211113342285156,119.62305520019531,30.207213342285158Q119.45315520019531,30.203413342285156,119.26185520019531,30.195613342285156L119.26185520019531,27.313813342285155Q119.41025520019531,27.321613342285158,119.52545520019531,27.325413342285156Q119.64065520019531,27.329413342285157,119.76955520019531,27.329413342285157Q120.78875520019531,27.329413342285157,121.22405520019531,26.838413342285158Q121.65935520019531,26.347413342285158,121.65935520019531,25.400413342285155L121.65935520019531,9.593713342285156ZM123.41655520019532,7.4695433422851565Q122.57515520019531,7.4695433422851565,121.97285520019531,6.905333342285156Q121.37045520019531,6.340963342285156,121.37045520019531,5.5482533422851565Q121.37045520019531,4.755693342285156,121.97285520019531,4.191482342285156Q122.57515520019531,3.6271133422851562,123.41655520019532,3.6271133422851562Q124.2620552001953,3.6271133422851562,124.86245520019531,4.191482342285156Q125.46275520019532,4.755693342285156,125.46275520019532,5.5482533422851565Q125.46275520019532,6.340963342285156,124.86245520019531,6.905333342285156Q124.2620552001953,7.4695433422851565,123.41655520019532,7.4695433422851565ZM140.67945520019532,13.561063342285156L137.45435520019532,13.912513342285155Q137.32165520019532,13.418453342285156,136.9829552001953,12.989983342285155Q136.6441552001953,12.561373342285156,136.07995520019531,12.295813342285156Q135.51575520019531,12.030253342285157,134.6976552001953,12.030253342285157Q133.59455520019532,12.030253342285157,132.8477552001953,12.509663342285156Q132.1009552001953,12.988923342285156,132.1047552001953,13.756313342285157Q132.1009552001953,14.404413342285157,132.5948552001953,14.816413342285156Q133.0889552001953,15.228413342285156,134.22905520019532,15.490013342285156L136.7827552001953,16.036613342285158Q138.91045520019532,16.497413342285157,139.95345520019532,17.494213342285157Q140.99645520019533,18.490913342285154,141.00045520019532,20.097713342285157Q140.99645520019533,21.511213342285156,140.1774552001953,22.591013342285155Q139.3584552001953,23.670613342285158,137.9171552001953,24.277813342285157Q136.47635520019531,24.885013342285156,134.5960552001953,24.885013342285156Q131.8451552001953,24.885013342285156,130.1680552001953,23.725313342285155Q128.49095520019532,22.565513342285158,128.1609552001953,20.495913342285156L131.61285520019533,20.168013342285157Q131.84315520019533,21.179313342285155,132.6075552001953,21.696713342285157Q133.37205520019532,22.214013342285156,134.5883552001953,22.214013342285156Q135.85155520019532,22.214013342285156,136.61595520019532,21.699713342285158Q137.3802552001953,21.185213342285156,137.3842552001953,20.417813342285157Q137.3802552001953,19.777513342285157,136.8862552001953,19.356813342285157Q136.3922552001953,18.936013342285158,135.3614552001953,18.715413342285157L132.7998552001953,18.176513342285155Q130.6464552001953,17.723513342285155,129.61255520019532,16.65651334228516Q128.5788552001953,15.589613342285157,128.58265520019532,13.951513342285157Q128.5788552001953,12.565343342285157,129.34315520019533,11.544293342285156Q130.1075552001953,10.523083342285156,131.4771552001953,9.960853342285155Q132.8466552001953,9.398463342285156,134.6508552001953,9.398463342285156Q137.2866552001953,9.398463342285156,138.8024552001953,10.523083342285156Q140.31845520019533,11.647703342285157,140.67945520019532,13.561063342285156Z" fill="#FFFFFF" fill-opacity="1"/></g></g></svg>