<svg xmlns="http://www.w3.org/2000/svg" xmlns:xlink="http://www.w3.org/1999/xlink" fill="none" version="1.1" width="305" height="136" viewBox="0 0 305 136"><defs><clipPath id="master_svg0_15_8011"><rect x="0" y="0" width="305" height="136" rx="0"/></clipPath><linearGradient x1="0.8546710014343262" y1="0.8034360408782959" x2="0.8333213329315186" y2="0" id="master_svg1_150_07109"><stop offset="0%" stop-color="#FFB74D" stop-opacity="1"/><stop offset="100.00011920928955%" stop-color="#EA5F2A" stop-opacity="1"/></linearGradient><linearGradient x1="0.5" y1="0.6703797578811646" x2="0.29553526639938354" y2="-0.4002380669116974" id="master_svg2_150_07113"><stop offset="0%" stop-color="#FFB74D" stop-opacity="1"/><stop offset="100.00028610229492%" stop-color="#CB3800" stop-opacity="1"/></linearGradient><linearGradient x1="0.9371286034584045" y1="0" x2="0.09386466443538666" y2="0.9283419847488403" id="master_svg3_150_07105"><stop offset="0%" stop-color="#FF500F" stop-opacity="1"/><stop offset="99.9998927116394%" stop-color="#D9773B" stop-opacity="1"/></linearGradient><linearGradient x1="0.8452901840209961" y1="0.8194817900657654" x2="0.8502801060676575" y2="0.059159498661756516" id="master_svg4_150_07100"><stop offset="0%" stop-color="#00B2ED" stop-opacity="1"/><stop offset="100.00021457672119%" stop-color="#002FED" stop-opacity="1"/></linearGradient><linearGradient x1="0.5" y1="0" x2="0.5" y2="1" id="master_svg5_150_07096"><stop offset="0%" stop-color="#143AD4" stop-opacity="1"/><stop offset="69.9999988079071%" stop-color="#00B2ED" stop-opacity="1"/></linearGradient><linearGradient x1="0.3482012450695038" y1="1.2638264894485474" x2="0.448713093996048" y2="0.15451215207576752" id="master_svg6_150_07092"><stop offset="0%" stop-color="#0267E4" stop-opacity="1"/><stop offset="100%" stop-color="#3054E7" stop-opacity="1"/></linearGradient></defs><g clip-path="url(#master_svg0_15_8011)"><g><g><g><path d="M56.058,35.58787887001037L33.3674,64.62187887001038C32.2418,66.06197887001038,32.2365,68.06587887001038,33.354299999999995,69.51187887001038L34.8328,71.42437887001037C36.4695,73.54147887001037,39.705799999999996,73.54097887001038,41.3418,71.42337887001037L53.1658,56.118178870010375L53.1658,84.14877887001037C53.1658,91.78877887001038,43.3629,95.13007887001038,38.561800000000005,89.12637887001037L21.3367,67.58687887001037L59.7644,19.533908870010375C61.1611,17.787448870010376,60.8547,15.257398870010377,59.0802,13.882868870010377L57.4736,12.638469870010375C55.6991,11.263944870010375,53.1283,11.565453870010376,51.7317,13.311908870010376L11.31368,63.85367887001038Q10.000000000000181,65.49637887001037,10.000000000000181,67.58687887001037Q9.999999512567,69.67727887001038,11.31368,71.32007887001038L53.3478,123.88237887001037Q54.5165,125.34437887001037,56.3363,125.81437887001037Q57.9879,126.24037887001037,59.6057,125.68937887001037Q61.2234,125.13737887001038,62.2533,123.79737887001038Q63.388,122.32037887001037,63.388,120.46037887001037L63.388,38.04127887001037C63.388,34.19877887001037,58.4384,32.54207887001037,56.058,35.58787887001037Z" fill-rule="evenodd" fill="url(#master_svg1_150_07109)" fill-opacity="1"/></g><g><path d="M53.16578674316406,107.32274491920471C53.16578674316406,107.36644491920471,53.16602780216406,107.41014491920471,53.16650991116406,107.45384491920471L53.347786743164065,123.88264491920471Q54.516526743164064,125.34414491920471,56.33626674316406,125.81404491920472Q57.987916743164064,126.2404449192047,59.60567674316406,125.68904491920472Q61.223436743164065,125.13764491920472,62.25331674316406,123.79724491920472Q63.38798674316406,122.32034491920471,63.38798674316406,120.46054491920471L63.38798674316406,42.93884491920471L53.16578674316406,56.11814491920471L53.16578674316406,107.32274491920471Z" fill="url(#master_svg2_150_07113)" fill-opacity="1"/></g><g><path d="M14.83250093460083,59.45348602256775L21.33672093460083,67.58688602256774L59.76450093460083,19.533916022567748C61.16110093460083,17.78745602256775,60.85470093460083,15.25740602256775,59.08020093460083,13.88287602256775L57.47360093460083,12.63847802256775C55.69910093460083,11.263952022567748,53.12830093460083,11.56546102256775,51.73170093460083,13.311916022567749L14.83250093460083,59.45348602256775Z" fill="url(#master_svg3_150_07105)" fill-opacity="1"/></g></g><g transform="matrix(-1,0,0,-1,250.00001525878906,250.44717407226562)"><g><path d="M171.0579771118164,149.0350870361328L148.3673771118164,178.06908703613283C147.24177711181642,179.5091870361328,147.2364771118164,181.51308703613282,148.3542771118164,182.95908703613281L149.8327771118164,184.8715870361328C151.46947711181642,186.9886870361328,154.70577711181642,186.9881870361328,156.3417771118164,184.8705870361328L168.1657771118164,169.56538703613282L168.1657771118164,197.5959870361328C168.1657771118164,205.23598703613283,158.3628771118164,208.57728703613282,153.5617771118164,202.5735870361328L136.3366771118164,181.0340870361328L174.7643771118164,132.98111703613282C176.1610771118164,131.2346570361328,175.85467711181641,128.7046070361328,174.0801771118164,127.3300770361328L172.4735771118164,126.08567803613282C170.6990771118164,124.71115303613281,168.1282771118164,125.01266203613281,166.7316771118164,126.7591170361328L126.31365711181641,177.30088703613282Q124.99997711181659,178.9435870361328,124.99997711181659,181.0340870361328Q124.99997662438341,183.12448703613282,126.31365711181641,184.7672870361328L168.3477771118164,237.3295870361328Q169.5164771118164,238.7915870361328,171.3362771118164,239.26158703613282Q172.9878771118164,239.6875870361328,174.60567711181642,239.13658703613282Q176.2233771118164,238.5845870361328,177.2532771118164,237.24458703613283Q178.3879771118164,235.7675870361328,178.3879771118164,233.9075870361328L178.3879771118164,151.48848703613282C178.3879771118164,147.64598703613282,173.4383771118164,145.98928703613282,171.0579771118164,149.0350870361328Z" fill-rule="evenodd" fill="url(#master_svg4_150_07100)" fill-opacity="1"/></g><g><path d="M168.16576385498047,220.76995308532713C168.16576385498047,220.81365308532713,168.16600491398046,220.85735308532713,168.16648702298048,220.90105308532713L168.34776385498046,237.32985308532716Q169.51650385498047,238.79135308532716,171.33624385498047,239.26125308532716Q172.98789385498046,239.68765308532716,174.60565385498046,239.13625308532716Q176.22341385498046,238.58485308532715,177.25329385498046,237.24445308532717Q178.38796385498046,235.76755308532717,178.38796385498046,233.90775308532716L178.38796385498046,156.38605308532715L168.16576385498047,169.56535308532716L168.16576385498047,220.76995308532713Z" fill="url(#master_svg5_150_07096)" fill-opacity="1"/></g><g><path d="M129.83247804641724,172.90069418869018L136.33669804641724,181.03409418869018L174.76447804641725,132.9811241886902C176.16107804641723,131.23466418869018,175.85467804641723,128.7046141886902,174.08017804641725,127.33008418869018L172.47357804641723,126.08568618869019C170.69907804641724,124.71116018869019,168.12827804641722,125.01266918869018,166.73167804641724,126.75912418869018L129.83247804641724,172.90069418869018Z" fill="url(#master_svg6_150_07092)" fill-opacity="1"/></g></g></g><g><path d="M134.15625,120.7727L139.375,110.1634L156.1719,110.1634L157.8438,120.7727L168.3906,120.7727L160.0781,74.2415L147.3906,74.2415L123.60938,120.7727L134.15625,120.7727ZM143.1406,102.4915L151.8281,84.88210000000001L152.1875,84.88210000000001L154.9531,102.4915L143.1406,102.4915ZM188.1437,74.2415L178.4719,74.2415L170.75310000000002,120.7727L180.425,120.7727L188.1437,74.2415ZM200.3656,121.4602C210.85,121.4602,218.5531,114.2884,220.35,103.6009C222.1,92.7415,216.6937,85.429,206.0687,85.429C195.4906,85.429,187.8031,92.5852,186.0687,103.304C184.27190000000002,114.1477,189.6781,121.4602,200.3656,121.4602ZM201.3187,113.9602C196.52190000000002,113.9602,194.83440000000002,109.554,195.8187,103.554C196.8187,97.3977,200.1781,92.81960000000001,205.08440000000002,92.81960000000001C209.85,92.81960000000001,211.5375,97.2415,210.58440000000002,103.25710000000001C209.5687,109.4134,206.1937,113.9602,201.3187,113.9602ZM258.697,85.88210000000001L248.088,85.88210000000001L236.713,110.8509L236.338,110.8509L233.25900000000001,85.88210000000001L223.3844,85.88210000000001L229.775,120.7727L240.68099999999998,120.7727L258.697,85.88210000000001ZM265.012,121.44460000000001C270.169,121.44460000000001,273.887,119.19460000000001,276.122,115.94460000000001L276.387,115.94460000000001L275.575,120.7727L284.747,120.7727L288.68399999999997,97.2415C290.044,88.929,283.575,85.429,275.841,85.429C267.466,85.429,261.262,89.429,258.887,95.7884L267.716,96.5227C268.762,94.19460000000001,271.231,92.4915,274.68399999999997,92.4915C277.95,92.4915,279.497,94.1477,279.044,97.0227L279.044,97.1477C278.637,99.38210000000001,276.169,99.679,270.044,100.2884C263.028,100.929,256.466,103.25710000000001,255.153,111.0384C254.012,117.9134,258.372,121.44460000000001,265.012,121.44460000000001ZM268.887,114.75710000000001C265.872,114.75710000000001,264.028,113.3509,264.43399999999997,110.7102C264.872,107.9915,267.387,106.6477,270.887,106.179C272.997,105.8352,276.575,105.38210000000001,277.825,104.6009L277.231,108.304C276.591,111.9602,273.137,114.75710000000001,268.887,114.75710000000001Z" fill="#333333" fill-opacity="1"/></g></g></svg>