<svg xmlns="http://www.w3.org/2000/svg" xmlns:xlink="http://www.w3.org/1999/xlink" fill="none" version="1.1" width="333" height="333" viewBox="0 0 333 333"><defs><clipPath id="master_svg0_1_0"><rect x="0" y="0" width="333" height="333" rx="0"/></clipPath><clipPath id="master_svg1_1_2187"><rect x="46.831298828125" y="21" width="255.668701171875" height="289.0338134765625" rx="0"/></clipPath></defs><g style="mix-blend-mode:passthrough" clip-path="url(#master_svg0_1_0)"><g style="mix-blend-mode:passthrough" clip-path="url(#master_svg1_1_2187)"><g style="mix-blend-mode:passthrough" transform="matrix(-1,0,0,-1,334.33740234375,620)"><path d="M261.269101171875,310L184.837401171875,310L180.837401171875,322L244.405701171875,322L167.168701171875,540.034L181.506101171875,539.966L261.269101171875,310Z" fill-rule="evenodd" fill="#8C3BF4" fill-opacity="1"/></g><g style="mix-blend-mode:passthrough"><path d="M140.93169882812498,80L104.499998828125,80L100.499998828125,92L124.068298828125,92L46.831298828125,310.034L61.168698828125,309.966L140.93169882812498,80Z" fill-rule="evenodd" fill="#8C3BF4" fill-opacity="1"/></g><g style="mix-blend-mode:passthrough"><path d="M176.5,81L211.5,310L302.5,310L176.5,81Z" fill="#8C3BF4" fill-opacity="1"/></g><g style="mix-blend-mode:passthrough"><ellipse cx="166.5" cy="215" rx="24" ry="24" fill="#8C3BF4" fill-opacity="1"/></g><g style="mix-blend-mode:passthrough"><path d="M59.37878916992187,125Q53.56999916992187,138.433,56.98755916992187,148.834Q62.983469169921875,167.083,97.37874916992187,176Q107.87214916992187,172.211,108.17004916992187,167.742Q108.38324916992187,164.545,103.37874916992187,161Q110.71284916992187,159.044,110.87514916992188,156.61Q111.04474916992187,154.066,103.37874916992187,151C76.62054916992187,140.297,81.28694916992188,128.002,90.05854916992187,104.8919C91.12124916992187,102.0922,92.24414916992188,99.1337,93.37874916992187,96Q103.87874916992187,67,93.37874916992187,21C93.37874916992187,80.5,75.37874916992187,88,59.37878916992187,125Z" fill="#8C3BF4" fill-opacity="1"/></g><g style="mix-blend-mode:passthrough" transform="matrix(-1,0,0,1,518.4718017578125,0)"><path d="M263.11469087890623,125Q256.64862087890623,139.953,260.96170087890624,150.496Q267.32114087890625,166.041,297.11470087890626,172Q319.70990087890624,166.916,319.9688008789062,160.875Q320.1683008789063,156.221,307.11470087890626,151C280.35640087890624,140.297,285.02280087890625,128.002,293.79450087890626,104.8919C294.85720087890627,102.0922,295.9801008789062,99.1337,297.11470087890626,96Q307.61470087890626,67,297.11470087890626,21C297.11470087890626,80.5,279.11470087890626,88,263.11469087890623,125Z" fill="#8C3BF4" fill-opacity="1"/></g></g></g></svg>