<svg xmlns="http://www.w3.org/2000/svg" xmlns:xlink="http://www.w3.org/1999/xlink" fill="none" version="1.1" width="110" height="120.00752258300781" viewBox="0 0 110 120.00752258300781"><defs><clipPath id="master_svg0_263_265"><rect x="0" y="0" width="110" height="120.00752258300781" rx="0"/></clipPath></defs><g clip-path="url(#master_svg0_263_265)"><g><path d="M52.04,0.759995L2.96999,27.91C1.13,28.92,0,30.8,0,32.83L0,87.16C0,89.19,1.13,91.06,2.97,92.08L52.05,119.25C53.88,120.26,56.15,120.26,57.98,119.25L107.05,92.08C108.87,91.06,110,89.19,110,87.16L110,32.83C110,30.8,108.87,28.93,107.03,27.91L57.97,0.759995C57.05,0.25,56.02,0,55,0C53.97,0,52.95,0.25,52.04,0.759995Z" fill="#388E3C" fill-opacity="1"/></g><g><path d="M52.04,0.759995L0,87.16C0,89.19,1.13,91.06,2.97,92.08L52.05,119.25C53.88,120.26,56.15,120.26,57.98,119.25L110,32.83C110,30.8,108.87,28.93,107.03,27.91L57.97,0.759995C57.05,0.25,56.02,0,55,0C53.97,0,52.95,0.25,52.04,0.759995Z" fill="#2E7D32" fill-opacity="1"/></g><g><path d="M52.04,0.759995L2.96999,27.91C1.13,28.92,0,30.8,0,32.83L52.04,119.25C53.87,120.26,56.14,120.26,57.97,119.25L107.04,92.08C108.87,91.06,110,89.19,110,87.16L57.97,0.759995C57.05,0.25,56.02,0,55,0C53.97,0,52.95,0.25,52.04,0.759995Z" fill="#4CAF50" fill-opacity="1"/></g></g></svg>