<svg xmlns="http://www.w3.org/2000/svg" xmlns:xlink="http://www.w3.org/1999/xlink" fill="none" version="1.1" viewBox="0 0 199 211"><g clip-path="url(#master_svg0_200_538)"><g><path d="M174.749,210.9998818359375L136.846,173.3278818359375L136.267,173.4098818359375L136.267,172.9968818359375L55.6626,93.4385818359375L75.5242,74.2719818359375L63.8557,7.3538818359375L8.4917,75.9243818359375C-0.942525,85.4249818359375,-2.6804,100.8741818359375,4.10562,112.2748818359375L38.6977,169.6098818359375C43.9941,178.4498818359375,53.5937,183.7368818359375,63.9384,183.6538818359375L81.0691,183.4888818359375L174.749,210.9998818359375Z" fill="#18B6F6" fill-opacity="1"/></g><g><path d="M195.434640625,74.602L187.821640625,60.5577L183.848640625,53.3703L182.276640625,50.5612L182.111640625,50.7266L161.256640625,14.6238C156.042640625,5.53612,146.277640625,-0.0817177,135.684640625,0.000904869L117.395640625,0.496549L62.859140625,0.661791C52.514840625,0.744412,43.080640625,6.19701,37.866840625,15.0368L4.681640625,80.7982L64.01784062499999,7.18838L141.808640625,92.6121L127.988640625,106.574L136.263640625,173.41L136.346640625,173.244L136.346640625,173.41L136.181640625,173.41L136.346640625,173.575L142.801640625,179.854L174.166640625,210.504C175.490640625,211.743,177.642640625,210.256,176.731640625,208.686L157.367640625,170.601L191.131640625,108.227L192.207640625,106.987C192.620640625,106.491,193.034640625,105.996,193.365640625,105.5C199.986640625,96.495,200.896640625,84.4335,195.434640625,74.602Z" fill="#AC7EF4" fill-opacity="1"/></g><g><path d="M142.05618994140625,92.28220126953126L64.01688994140625,7.27130126953125L75.10628994140625,73.85900126953125L55.24468994140625,93.10840126953126L136.09758994140626,173.32730126953126L128.81508994140626,106.73970126953125L142.05618994140625,92.28220126953126Z" fill="#FFFFFF" fill-opacity="1"/></g></g></svg>