<svg xmlns="http://www.w3.org/2000/svg" xmlns:xlink="http://www.w3.org/1999/xlink" fill="none" version="1.1" width="30" height="28" viewBox="0 0 30 28"><defs><clipPath id="master_svg0_107_9190"><rect x="0" y="0" width="30" height="28" rx="0"/></clipPath></defs><g clip-path="url(#master_svg0_107_9190)"><g><path d="M15,11.2486C16.4372,11.2486,17.6093,12.4715,17.6093,14C17.6093,15.4558,16.4372,16.6931,15,16.6931C13.5628,16.6931,12.3907,15.4558,12.3907,14C12.3907,12.4715,13.5628,11.2486,15,11.2486ZM8.53954,25.646C9.41861,26.1992,11.3442,25.3549,13.5628,23.1712C12.8372,22.3123,12.1256,21.3807,11.4558,20.4053C10.3314,20.293,9.2135,20.1181,8.10698,19.8812C7.39535,22.9965,7.66047,25.1365,8.53954,25.646ZM9.53023,17.29L9.12558,16.5476C8.97209,16.9697,8.81861,17.3919,8.72093,17.7995C9.09768,17.8869,9.51628,17.9596,9.94884,18.0324L9.53023,17.29ZM18.6558,16.1836L19.786,14L18.6558,11.8164C18.2372,11.0448,17.7907,10.3606,17.3861,9.67642C16.6326,9.63275,15.8372,9.63275,15,9.63275C14.1628,9.63275,13.3674,9.63275,12.614,9.67642C12.2093,10.3606,11.7628,11.0448,11.3442,11.8164L10.214,14L11.3442,16.1836C11.7628,16.9552,12.2093,17.6394,12.614,18.3236C13.3674,18.3673,14.1628,18.3673,15,18.3673C15.8372,18.3673,16.6326,18.3673,17.386,18.3236C17.7907,17.6394,18.2372,16.9552,18.6558,16.1836ZM15,6.40098C14.7349,6.72125,14.4558,7.05607,14.1767,7.44912L15.8233,7.44912C15.5442,7.05607,15.2651,6.72125,15,6.40098ZM15,21.599C15.2651,21.2788,15.5442,20.9439,15.8233,20.5509L14.1767,20.5509C14.4558,20.9439,14.7349,21.2788,15,21.599ZM21.4465,2.354C20.5814,1.80081,18.6558,2.64515,16.4372,4.82877C17.1628,5.68767,17.8744,6.61935,18.5442,7.5947C19.6884,7.71116,20.8186,7.88585,21.893,8.11877C22.6047,5.00346,22.3395,2.86351,21.4465,2.354ZM20.4698,10.71L20.8744,11.4524C21.0279,11.0303,21.1814,10.6081,21.2791,10.2005C20.9023,10.1131,20.4837,10.0404,20.0512,9.96757L20.4698,10.71ZM22.493,0.446965C24.5442,1.66979,24.7674,4.887,23.9023,8.64284C27.4465,9.73465,30,11.5398,30,14C30,16.4602,27.4465,18.2653,23.9023,19.3572C24.7674,23.113,24.5442,26.3302,22.493,27.553C20.4558,28.7759,17.6791,27.3783,15,24.7143C12.3209,27.3783,9.54418,28.7759,7.49302,27.553C5.45581,26.3302,5.23256,23.113,6.09767,19.3572C2.55349,18.2653,0,16.4602,0,14C0,11.5398,2.55349,9.73465,6.09767,8.64284C5.23256,4.887,5.45581,1.66979,7.49302,0.446963C9.54418,-0.775867,12.3209,0.621653,15,3.28568C17.6791,0.621653,20.4558,-0.775867,22.493,0.446965ZM22.0884,14C22.5628,15.0918,22.9814,16.1836,23.3302,17.29C26.2605,16.3729,27.907,15.0627,27.907,14C27.907,12.9373,26.2605,11.6271,23.3302,10.71C22.9814,11.8164,22.5628,12.9082,22.0884,14ZM7.91163,14C7.43721,12.9082,7.01861,11.8164,6.66977,10.71C3.73954,11.6271,2.09302,12.9373,2.09302,14C2.09302,15.0627,3.73954,16.3729,6.66977,17.29C7.01861,16.1836,7.43721,15.0918,7.91163,14ZM20.4698,17.29L20.0512,18.0324C20.4837,17.9596,20.9023,17.8869,21.2791,17.7995C21.1814,17.3919,21.0279,16.9697,20.8744,16.5476L20.4698,17.29ZM16.4372,23.1712C18.6558,25.3549,20.5814,26.1992,21.4465,25.646C22.3395,25.1365,22.6047,22.9965,21.893,19.8812C20.8186,20.1142,19.6884,20.2888,18.5442,20.4053C17.8744,21.3807,17.1628,22.3123,16.4372,23.1712ZM9.53023,10.71L9.94884,9.96757C9.51628,10.0404,9.09768,10.1131,8.72093,10.2005C8.81861,10.6081,8.97209,11.0303,9.12558,11.4524L9.53023,10.71ZM13.5628,4.82877C11.3442,2.64515,9.41861,1.80081,8.53954,2.354C7.66047,2.86351,7.39535,5.00346,8.10698,8.11877C9.2135,7.8819,10.3314,7.70696,11.4558,7.5947C12.1256,6.61935,12.8372,5.68767,13.5628,4.82877Z" fill="#00BCD4" fill-opacity="1"/></g></g></svg>