<svg viewBox="0 0 1024 1024" xmlns="http://www.w3.org/2000/svg" id="图层_1"><defs><style>.cls-1{fill:#e490b7;}.cls-2{fill:#eab1b7;}.cls-3{fill:#ffdcd7;}.cls-4{fill:#f4dd45;}.cls-5{fill:#f9ef63;}.cls-6{fill:#fff;}.cls-7{fill:#00aff4;}.cls-8{fill:#70c6da;}.cls-9{fill:#05cdff;}.cls-10{fill:#664545;}.cls-11{fill:#523838;}</style></defs><circle r="400" cy="512" cx="523.24" class="cls-1"></circle><path d="M523.24,112a398.29,398.29,0,0,0-185.46,45.53,382.93,382.93,0,0,0-9,82.46c0,210.72,170.82,381.54,381.54,381.54a379.83,379.83,0,0,0,210.18-63.08,404.75,404.75,0,0,0,2.7-46.45C923.24,291.09,744.15,112,523.24,112Z" class="cls-2"></path><path d="M389.57,279a86.85,86.85,0,0,0-159.72-68,60.89,60.89,0,0,0-97.54,48.62A61.23,61.23,0,0,0,134,273.88a47.54,47.54,0,0,0,14.27,92.89H360.73c.62,0,1.23,0,1.84-.1s1.22.1,1.85.1A47.5,47.5,0,0,0,389.57,279Z" class="cls-3"></path><path d="M395.63,343.16a220.76,220.76,0,0,1,2.13-30.5A217.53,217.53,0,0,0,320.4,479.21c0,120.4,97.61,218,218,218,110.05,0,201-81.54,215.87-187.49a217.12,217.12,0,0,1-140.64,51.44C493.23,561.16,395.63,463.56,395.63,343.16Z" class="cls-4"></path><path d="M538.4,261.21a217.13,217.13,0,0,0-140.64,51.45,220.76,220.76,0,0,0-2.13,30.5c0,120.4,97.6,218,218,218a217.12,217.12,0,0,0,140.64-51.44,220.8,220.8,0,0,0,2.13-30.51C756.4,358.81,658.8,261.21,538.4,261.21Z" class="cls-5"></path><path d="M832.66,476.85A86.85,86.85,0,0,0,673,408.8a60.89,60.89,0,0,0-97.54,48.62,61.32,61.32,0,0,0,1.72,14.37,47.54,47.54,0,0,0,14.27,92.88H803.82c.63,0,1.24,0,1.85-.09s1.22.09,1.84.09a47.5,47.5,0,0,0,25.15-87.82Z" class="cls-6"></path><path d="M284.94,743.42c11.86-10,24.13-20.34,48.22-20.34s36.36,10.34,48.22,20.34c12,10.12,24.44,20.59,48.92,20.59,21.81,0,34.05-8.31,45-17.29a266.4,266.4,0,0,1-62.53-104c-13.64-3.57-22.61-11.09-31.35-18.45-11.86-10-24.13-20.34-48.22-20.34s-36.36,10.34-48.22,20.34S260.51,644.83,236,644.83s-36.91-10.47-48.92-20.59S163,603.9,138.89,603.9v19.21a398.74,398.74,0,0,0,68.86,134.81c7.5,3.65,16.48,6.09,28.28,6.09C260.51,764,272.93,753.54,284.94,743.42Z" class="cls-7"></path><path d="M475.26,746.72c-10.91,9-23.15,17.29-45,17.29-24.48,0-36.9-10.47-48.92-20.59-11.86-10-24.13-20.34-48.22-20.34s-36.36,10.34-48.22,20.34S260.51,764,236,764c-11.8,0-20.78-2.44-28.28-6.09C281,851.69,395.05,912,523.24,912c119.23,0,226.25-52.21,299.53-135a266.46,266.46,0,0,1-347.51-30.31Z" class="cls-8"></path><path d="M479.22,743.42c11.86-10,24.13-20.34,48.22-20.34s36.35,10.34,48.22,20.34S600.09,764,624.58,764s36.9-10.47,48.91-20.59,24.14-20.34,48.22-20.34,36.36,10.34,48.23,20.34S794.37,764,818.85,764a69.87,69.87,0,0,0,16.49-1.85A398.51,398.51,0,0,0,912.59,604c-21.85.94-33.53,10.74-44.82,20.25-12,10.12-24.43,20.59-48.92,20.59s-36.9-10.47-48.91-20.59S745.8,603.9,721.71,603.9s-36.35,10.34-48.22,20.34-24.43,20.59-48.91,20.59-36.91-10.47-48.92-20.59-24.13-20.34-48.22-20.34-36.36,10.34-48.22,20.34c-12,10.12-24.44,20.59-48.92,20.59a68.86,68.86,0,0,1-17.57-2.14,266.4,266.4,0,0,0,62.53,104Z" class="cls-9"></path><path d="M818.85,764c-24.48,0-36.9-10.47-48.91-20.59s-24.14-20.34-48.23-20.34-36.35,10.34-48.22,20.34S649.06,764,624.58,764s-36.91-10.47-48.92-20.59-24.13-20.34-48.22-20.34-36.36,10.34-48.22,20.34l-4,3.3A266.46,266.46,0,0,0,822.77,777c4.3-4.86,8.51-9.81,12.57-14.87A69.87,69.87,0,0,1,818.85,764Z" class="cls-7"></path><path d="M463.82,816.67c-3.43-6.08-7.34-12.39-11.87-19s-9-12.5-13.47-17.88c-27.06-32.66-52.82-44.75-77.85-56.47-29-13.58-58.94-27.61-90.72-73.84s-34.15-79.24-36.45-111.15c-2-27.57-4-56-24.85-92.91-3.42-6.09-7.34-12.4-11.87-19s-9-12.5-13.47-17.88a180.59,180.59,0,0,0-36-33.55,398.93,398.93,0,0,0-23.92,126.1c.66.93,1.31,1.85,2,2.81,4.53,6.58,8.45,12.89,11.87,19,20.81,37,22.87,65.34,24.85,92.91,2.29,31.92,4.66,64.92,36.45,111.15s61.74,60.27,90.72,73.84c25,11.72,50.79,23.81,77.84,56.47,4.46,5.38,9,11.3,13.48,17.89,3.28,4.77,6.23,9.39,8.91,13.89a397.94,397.94,0,0,0,99.25,21.44l-.06-.91C486.68,882,484.63,853.63,463.82,816.67Z" class="cls-10"></path><path d="M389.48,889.06c-2.68-4.5-5.63-9.12-8.91-13.89-4.53-6.59-9-12.51-13.48-17.89-27-32.66-52.81-44.75-77.84-56.47-29-13.57-58.95-27.61-90.72-73.84s-34.16-79.23-36.45-111.15c-2-27.57-4-56-24.85-92.91-3.42-6.09-7.34-12.4-11.87-19-.66-1-1.31-1.88-2-2.81-.1,3.62-.15,7.24-.15,10.88C123.24,686,234.35,834,389.48,889.06Z" class="cls-11"></path><path d="M922.9,527.82c-7,3.68-13.89,6.93-20.75,10.14-25,11.72-50.79,23.81-77.85,56.47-4.45,5.38-8.94,11.3-13.47,17.88s-8.44,12.9-11.87,19c-20.81,37-22.87,65.34-24.85,92.91-2.29,31.92-4.67,64.92-36.45,111.16A231.07,231.07,0,0,1,716,862.56C835.19,796.88,917.28,672.17,922.9,527.82Z" class="cls-10"></path></svg>