<svg viewBox="0 0 1024 1024" xmlns="http://www.w3.org/2000/svg" id="图层_1"><defs><style>.cls-1{fill:#eab1b7;}.cls-2{fill:#f9ef63;}.cls-3{fill:#664545;}.cls-4{fill:#05cdff;}.cls-5{fill:#8bc852;}.cls-6{fill:#93ede7;}.cls-7{fill:#5ea55c;}.cls-8{fill:#93d8e4;}.cls-9{fill:#d2f0ff;}.cls-10{fill:#ecbe6b;}.cls-11{fill:#f4dd45;}.cls-12{fill:#523838;}</style></defs><circle r="400" cy="496.24" cx="516.05" class="cls-1"></circle><path d="M758.15,346.12h-5.74a16.13,16.13,0,0,1-16-17.39c.77-11-5.95-22.63-20.18-22.63H551.67c-14,0-20.71,11.23-20.21,22.07.44,9.69-6.86,17.95-16.56,17.95H469.72c-27,0-27,41.92,0,41.92H758.15C785.12,388,785.16,346.12,758.15,346.12Z" class="cls-2"></path><path d="M132.4,382.78a400.45,400.45,0,0,0-16.22,123.84C121.68,722.78,300,896.36,516.27,896.24c220.81-.11,399.78-179.15,399.78-400v-1.18c-.19-62.18-51.14-112.28-113.32-112.28Z" class="cls-3"></path><polygon points="714.43 486.82 717.17 486.53 715.26 485.59 714.43 486.82" class="cls-4"></polygon><path d="M648.34,189.94h-4.57A12.85,12.85,0,0,1,631,176.08c.61-8.76-4.74-18-16.07-18H483.89c-11.13,0-16.5,8.95-16.11,17.58a13.37,13.37,0,0,1-13.18,14.3h-36c-21.48,0-21.52,33.38,0,33.38H648.34C669.82,223.32,669.86,189.94,648.34,189.94Z" class="cls-2"></path><path d="M207.33,241.88c64.26,16.67,111.65,73.37,112,140.9H546.71c0-.5,0-1,0-1.49,0-110.72-96.82-200.48-216.25-200.48a231,231,0,0,0-75.88,12.7A403,403,0,0,0,207.33,241.88Z" class="cls-5"></path><path d="M595,382.78H319.34c0,.07,0,.13,0,.2A113.31,113.31,0,0,1,426.1,496.09v390c1.46.33,2.93.63,4.39.95A147.89,147.89,0,0,1,603,757.56a148.26,148.26,0,0,1,105.26-96.17V496.09A113.32,113.32,0,0,0,595,382.78Z" class="cls-6"></path><path d="M312.79,382.78h6.55c-.36-67.53-47.75-124.23-112-140.9a399,399,0,0,0-74.93,140.9H312.79Z" class="cls-7"></path><path d="M319.35,383c0-.07,0-.13,0-.2h-6.55C315,382.78,317.18,382.86,319.35,383Z" class="cls-7"></path><path d="M319.35,383c-2.17-.12-4.36-.2-6.56-.2H210.7A113.34,113.34,0,0,1,324,496.09V847.2A397.2,397.2,0,0,0,426.1,886.09v-390A113.31,113.31,0,0,0,319.35,383Z" class="cls-8"></path><path d="M308.33,438.58a113.26,113.26,0,0,0-97.63-55.8H132.4A396.7,396.7,0,0,0,121.21,432a402.85,402.85,0,0,0-5.16,64.27c0,8.5.29,16.93.82,25.29C125.64,662.14,207,783.06,324,847.2V496.09A112.79,112.79,0,0,0,308.33,438.58Z" class="cls-3"></path><path d="M595.12,805.25a147.59,147.59,0,0,1,7.9-47.69A147.89,147.89,0,0,0,430.49,887a402.5,402.5,0,0,0,186.88-3.76A147.26,147.26,0,0,1,595.12,805.25Z" class="cls-8"></path><path d="M743.15,657.22A148,148,0,0,0,617.37,883.28a396.92,396.92,0,0,0,90.91-36.19q2.54-1.4,5.05-2.82A401.93,401.93,0,0,0,855.12,708.49,147.65,147.65,0,0,0,743.15,657.22Z" class="cls-9"></path><path d="M709.28,326A175.41,175.41,0,0,0,842.46,265C774.61,169.4,665.83,104.93,541.66,97.08A175.94,175.94,0,0,0,709.28,326Z" class="cls-10"></path><path d="M637.56,85.56A114.18,114.18,0,0,1,640.71,59,114.15,114.15,0,1,0,820.29,176.83,114.16,114.16,0,0,1,637.56,85.56Z" class="cls-11"></path><path d="M709.28,36.08A113.61,113.61,0,0,0,640.71,59,114.15,114.15,0,0,0,820.29,176.83a114.12,114.12,0,0,0-111-140.75Z" class="cls-2"></path><path d="M828.92,314a23.24,23.24,0,0,0-23.24,23.24h0a23.24,23.24,0,0,0,23.24,23.25h63.47A396.55,396.55,0,0,0,872.18,314Z" class="cls-2"></path><circle r="24.84" cy="580.84" cx="531.29" class="cls-9"></circle><circle r="24.84" cy="609.59" cx="805.68" class="cls-9"></circle><circle r="12" cy="555.99" cx="240.16" class="cls-12"></circle><circle r="12" cy="724.9" cx="216.91" class="cls-12"></circle><circle r="27.31" cy="787.24" cx="378.71" class="cls-6"></circle><circle r="16.47" cy="741.34" cx="324.02" class="cls-6"></circle><circle r="33.3" cy="668.21" cx="574.71" class="cls-9"></circle><circle r="12.72" cy="580.43" cx="621.62" class="cls-9"></circle><path d="M228.16,454.69H176.63a12,12,0,1,1,0-24h51.53a12,12,0,1,1,0,24Z" class="cls-12"></path><path d="M202.4,568H150.86a12,12,0,0,1,0-24H202.4a12,12,0,0,1,0,24Z" class="cls-12"></path><circle r="12" cy="472.6" cx="846.6" class="cls-12"></circle><path d="M808.84,484.6H757.3a12,12,0,0,1,0-24h51.54a12,12,0,0,1,0,24Z" class="cls-12"></path><path d="M830.52,546.77H773.59a12,12,0,0,1,0-24h56.93a12,12,0,0,1,0,24Z" class="cls-12"></path><path d="M879.88,637H855.12a12,12,0,1,1,0-24h24.76a12,12,0,1,1,0,24Z" class="cls-12"></path><path d="M284.25,627H232.71a12,12,0,0,1,0-24h51.54a12,12,0,0,1,0,24Z" class="cls-12"></path><path d="M236.47,681.3H184.93a12,12,0,0,1,0-24h51.54a12,12,0,1,1,0,24Z" class="cls-12"></path><path d="M287.42,738.64H251.88a12,12,0,0,1,0-24h35.54a12,12,0,0,1,0,24Z" class="cls-12"></path></svg>