<svg viewBox="0 0 1024 1024" xmlns="http://www.w3.org/2000/svg" id="图层_1"><defs><style>.cls-1{fill:#c1f8f4;}.cls-2{fill:#fff;}.cls-3{fill:#70c6da;}.cls-4{fill:#93ede7;}.cls-5{fill:#93d8e4;}.cls-6{fill:#dafffb;}.cls-7{fill:#5ea5ec;}.cls-8{fill:#8bc852;}.cls-9{fill:#aad540;}.cls-10{fill:#5ea55c;}.cls-11{fill:#4f8980;}</style></defs><circle r="400" cy="512" cx="497.79" class="cls-1"></circle><path d="M105.44,584l-1.22-.23c0,.28.11.56.16.84Z" class="cls-1"></path><path d="M702.89,350.28a56.47,56.47,0,0,0,.42-6.67,54.82,54.82,0,0,0-76.53-50.33A77.25,77.25,0,0,0,500.5,351.42a52.54,52.54,0,0,0,13.69,103.26c1.39,0,2.76-.07,4.12-.17H690.42c1.35.1,2.7.17,4.08.17a52.54,52.54,0,0,0,8.39-104.4Z" class="cls-2"></path><polygon points="475.95 475.41 358.75 475.41 358.75 203.57 475.95 150.33 475.95 475.41" class="cls-3"></polygon><rect height="220.52" width="75.35" y="312.87" x="204.38" class="cls-4"></rect><rect height="201.92" width="75.35" y="360.77" x="242.05" class="cls-5"></rect><rect height="342.61" width="75.35" y="127.75" x="475.96" class="cls-5"></rect><path d="M887.54,226.38a46.79,46.79,0,0,0,.37-5.83,48,48,0,0,0-67-44.08,67.64,67.64,0,0,0-110.58,50.91,46,46,0,0,0,12,90.43c1.21,0,2.41-.06,3.6-.15H876.62c1.18.09,2.37.15,3.58.15a46,46,0,0,0,7.34-91.43Z" class="cls-6"></path><path d="M163,293.15q-4.23,6.45-8.21,13.07l30-13.07Z" class="cls-1"></path><path d="M204.38,284.64v8.51h82.7c1.18.09,2.37.16,3.57.16A46,46,0,0,0,298,201.88a49,49,0,0,0,.36-5.84,47.7,47.7,0,0,0-7.81-26.23A402.1,402.1,0,0,0,163,293.15h21.84Z" class="cls-6"></path><rect height="342.61" width="98.78" y="176.67" x="591.89" class="cls-3"></rect><rect height="22.93" width="98.78" y="192.02" x="591.89" class="cls-5"></rect><rect height="22.93" width="98.78" y="237.87" x="591.89" class="cls-5"></rect><rect height="22.93" width="98.78" y="283.72" x="591.89" class="cls-5"></rect><rect height="22.93" width="98.78" y="329.57" x="591.89" class="cls-5"></rect><rect height="22.93" width="98.78" y="375.43" x="591.89" class="cls-5"></rect><rect height="342.61" width="75.35" y="294.85" x="551.3" class="cls-3"></rect><polygon points="822.41 603.74 723.64 603.74 723.64 261.12 822.41 312.87 822.41 603.74" class="cls-5"></polygon><rect height="342.61" width="98.78" y="356.86" x="751.86" class="cls-7"></rect><rect height="31.21" width="31.21" y="229.91" x="377.87" class="cls-5"></rect><rect height="31.21" width="31.21" y="229.91" x="425.62" class="cls-5"></rect><rect height="31.21" width="31.21" y="275.01" x="377.87" class="cls-5"></rect><rect height="31.21" width="31.21" y="275.01" x="425.62" class="cls-5"></rect><rect height="31.21" width="31.21" y="320.1" x="377.87" class="cls-5"></rect><rect height="31.21" width="31.21" y="320.1" x="425.62" class="cls-5"></rect><rect height="31.21" width="31.21" y="365.19" x="377.87" class="cls-5"></rect><rect height="31.21" width="31.21" y="365.19" x="425.62" class="cls-5"></rect><rect height="31.21" width="31.21" y="410.29" x="377.87" class="cls-5"></rect><rect height="31.21" width="31.21" y="410.29" x="425.62" class="cls-5"></rect><path d="M541.33,683.2q-14.13,9.12-28.1,18.84-30.32,21.15-58.17,44A892.16,892.16,0,0,0,327.21,873.88a399.57,399.57,0,0,0,406.13-38.6C682.07,734,599.16,696.78,541.33,683.2Z" class="cls-8"></path><path d="M782.9,792.51a398.7,398.7,0,0,0,113-242C797.7,562.1,693.66,595.86,593.47,651.81,693.91,679.31,754.91,751,782.9,792.51Z" class="cls-8"></path><path d="M782.9,792.51c-28-41.48-89-113.2-189.43-140.7q-26.26,14.67-52.14,31.39c57.83,13.58,140.74,50.81,192,152.08A402.42,402.42,0,0,0,782.9,792.51Z" class="cls-9"></path><path d="M455.06,746.05a927,927,0,0,0-86.78-59.25l38.91,101.25Q430.13,766.49,455.06,746.05Z" class="cls-10"></path><path d="M105.44,584l-1.06.61c23.51,128.32,108.26,235.22,222.83,289.32q20.12-24.78,42.67-48.65C360.4,779.06,321.36,700,292.82,646.16,230.3,616.36,167,595.55,105.44,584Z" class="cls-10"></path><path d="M407.19,788.05,368.28,686.8q-37.36-22.51-75.46-40.64c28.54,53.83,67.58,132.9,77.06,179.07Q387.79,806.3,407.19,788.05Z" class="cls-8"></path><path d="M570.05,425a1320.86,1320.86,0,0,0-195.78,43.6c-98.34,29.79-188.9,69.28-268.83,115.4,90.18,17,184.06,53.75,273.81,109.56C386.35,665.4,424.44,542.49,570.05,425Z" class="cls-11"></path><path d="M888.28,425c-69.13-11.38-144.79-14.83-224.32-9.79C598,458.84,431.76,581.68,418.23,719.16q18.58,12.9,36.83,26.89,27.87-22.8,58.17-44C637,615.72,771.13,565.22,895.94,550.54c1.21-12.68,1.85-25.54,1.85-38.54A401.47,401.47,0,0,0,888.28,425Z" class="cls-11"></path><path d="M377.87,699.48l39.48,34.18c.09-4.85.41-9.68.88-14.5q-19.34-13.42-39-25.65C378.26,697.39,377.87,699.48,377.87,699.48Z" class="cls-10"></path><path d="M664,415.22q-46.15,2.92-93.91,9.73C424.44,542.49,386.35,665.4,379.25,693.51q19.63,12.21,39,25.65C431.76,581.68,598,458.84,664,415.22Z" class="cls-10"></path><path d="M184.79,293.15l-30,13.07a401,401,0,0,0-50.52,277.5l1.22.23q47.09-27.16,98.94-51.06V284.64Z" class="cls-3"></path></svg>