<svg viewBox="0 0 1024 1024" xmlns="http://www.w3.org/2000/svg" id="图层_1"><defs><style>.cls-1{fill:#93ede7;}.cls-2{fill:#c1f8f4;}.cls-3{fill:#3b69af;}.cls-4{fill:none;}.cls-5{fill:#1e87dc;}.cls-6{fill:#9bb9c3;}.cls-7{fill:#87a0af;}.cls-8{fill:#1e73be;}.cls-9{fill:#738c96;}.cls-10{fill:#195fa0;}.cls-11{fill:#dafffb;}.cls-12{fill:#fff;}</style></defs><circle r="381.57" cy="530.43" cx="512" class="cls-1"></circle><path d="M512,148.86a379.93,379.93,0,0,0-176.91,43.43A364.74,364.74,0,0,0,326.54,271c0,201,163,364,364,364A362.27,362.27,0,0,0,891,574.74a385.84,385.84,0,0,0,2.57-44.31C893.57,319.69,722.74,148.86,512,148.86Z" class="cls-2"></path><path d="M146,422.19a381.42,381.42,0,0,0-15.6,108.24C130.43,741.17,301.26,912,512,912S893.57,741.17,893.57,530.43A381.42,381.42,0,0,0,878,422.19Z" class="cls-3"></path><path d="M429.41,284.37l1.11-.14Z" class="cls-4"></path><path d="M538,475.67c.1.46.19.91.29,1.37C538.21,476.58,538.12,476.13,538,475.67Z" class="cls-4"></path><path d="M426.91,284.63c.39,0,.76-.08,1.14-.12C427.67,284.55,427.3,284.6,426.91,284.63Z" class="cls-4"></path><path d="M440.65,348.17s0,.24.12.64C440.69,348.41,440.65,348.17,440.65,348.17Z" class="cls-4"></path><path d="M564.05,546l.57.72Z" class="cls-4"></path><path d="M418.77,285.17l1.32-.06Z" class="cls-4"></path><path d="M441,349.81c.17.67.44,1.56.8,2.6C441.44,351.37,441.17,350.48,441,349.81Z" class="cls-4"></path><path d="M537.48,473c.09.43.17.87.26,1.31C537.65,473.87,537.57,473.43,537.48,473Z" class="cls-4"></path><path d="M421.59,285l1.31-.09Z" class="cls-4"></path><path d="M544.75,503.21c.12.41.23.82.35,1.23C545,504,544.87,503.62,544.75,503.21Z" class="cls-4"></path><path d="M442,353c.07.19.15.4.23.59C442.13,353.35,442.05,353.14,442,353Z" class="cls-4"></path><path d="M538.61,478.49c.09.43.18.86.28,1.29C538.79,479.35,538.7,478.92,538.61,478.49Z" class="cls-4"></path><path d="M548,513.65c.15.43.29.85.44,1.27C548.31,514.5,548.17,514.08,548,513.65Z" class="cls-4"></path><path d="M424.29,284.86l1.25-.11Z" class="cls-4"></path><path d="M565.25,547.43c.22.26.44.53.67.78C565.69,548,565.47,547.69,565.25,547.43Z" class="cls-4"></path><path d="M536,465c.07.4.14.8.22,1.21C536.1,465.82,536,465.42,536,465Z" class="cls-4"></path><path d="M445.89,361.19c.19.33.41.67.61,1C446.3,361.86,446.08,361.52,445.89,361.19Z" class="cls-4"></path><path d="M447.12,363.21c.25.4.53.82.81,1.23C447.65,364,447.37,363.61,447.12,363.21Z" class="cls-4"></path><path d="M535.5,462.45c.06.38.13.75.2,1.13C535.63,463.2,535.56,462.83,535.5,462.45Z" class="cls-4"></path><path d="M548.93,516.25c.14.41.28.81.43,1.21C549.21,517.06,549.07,516.66,548.93,516.25Z" class="cls-4"></path><path d="M448.51,365.33c.29.41.6.85.91,1.27C449.11,366.18,448.8,365.74,448.51,365.33Z" class="cls-4"></path><path d="M561.53,542.57l.59.87Z" class="cls-4"></path><path d="M536.94,470.22c.08.45.17.91.26,1.37C537.11,471.13,537,470.67,536.94,470.22Z" class="cls-4"></path><path d="M546.38,508.63c.12.37.23.75.35,1.12C546.61,509.38,546.5,509,546.38,508.63Z" class="cls-4"></path><path d="M444.83,359.29c.18.33.38.69.58,1C445.21,360,445,359.62,444.83,359.29Z" class="cls-4"></path><path d="M442.51,354.32c.11.3.26.62.39.93C442.77,354.94,442.62,354.62,442.51,354.32Z" class="cls-4"></path><path d="M443.15,355.84c.1.24.23.49.34.74C443.38,356.33,443.25,356.08,443.15,355.84Z" class="cls-4"></path><path d="M536.42,467.52c.09.46.17.92.26,1.39C536.59,468.44,536.51,468,536.42,467.52Z" class="cls-4"></path><path d="M562.78,544.33c.19.26.38.53.58.79C563.16,544.86,563,544.59,562.78,544.33Z" class="cls-4"></path><path d="M443.92,357.5c.13.27.28.56.42.83C444.2,358.06,444.05,357.77,443.92,357.5Z" class="cls-4"></path><path d="M406.42,285.19l1.45,0Z" class="cls-4"></path><path d="M570.69,552.64c.22.18.45.36.68.52C571.14,553,570.91,552.82,570.69,552.64Z" class="cls-4"></path><path d="M583.69,557.38l-.67,0Z" class="cls-4"></path><path d="M567.24,549.6c-.24-.23-.47-.49-.7-.73C566.77,549.11,567,549.37,567.24,549.6Z" class="cls-4"></path><path d="M547.15,511l.44,1.32Z" class="cls-4"></path><path d="M543.21,497.72l.35,1.31Z" class="cls-4"></path><path d="M298.58,369.58l-.78,1.48c.26-.5.52-1,.79-1.49Z" class="cls-4"></path><path d="M542.45,494.82c.12.5.25,1,.38,1.49C542.7,495.82,542.57,495.32,542.45,494.82Z" class="cls-4"></path><path d="M585,557.31h0Z" class="cls-4"></path><path d="M572.13,553.67c.22.15.45.32.67.46C572.58,554,572.35,553.82,572.13,553.67Z" class="cls-4"></path><path d="M581.36,557.23c.23,0,.46.07.69.08C581.82,557.3,581.59,557.26,581.36,557.23Z" class="cls-4"></path><path d="M579.87,557c.19,0,.37.09.56.12C580.24,557.08,580.06,557,579.87,557Z" class="cls-4"></path><path d="M578.27,556.6l.57.17Z" class="cls-4"></path><path d="M544,500.67l.3,1.07Z" class="cls-4"></path><path d="M384.45,283.38l1.15.14Z" class="cls-4"></path><path d="M567.9,550.24c.23.22.46.45.69.66C568.36,550.69,568.13,550.46,567.9,550.24Z" class="cls-4"></path><path d="M403.05,285.05l1.51.06Z" class="cls-4"></path><path d="M540.48,486.85c.09.4.18.79.28,1.19C540.66,487.64,540.57,487.25,540.48,486.85Z" class="cls-4"></path><path d="M541.79,492.25l.33,1.32Z" class="cls-4"></path><path d="M450.09,367.55l.87,1.12Z" class="cls-4"></path><path d="M409.67,285.27h0Z" class="cls-4"></path><path d="M399.57,284.85l1.6.09Z" class="cls-4"></path><path d="M539.79,483.87l.33,1.43Z" class="cls-4"></path><path d="M415.85,285.25c.46,0,.92,0,1.37,0C416.77,285.23,416.31,285.25,415.85,285.25Z" class="cls-4"></path><path d="M392.25,284.25l1.58.15Z" class="cls-4"></path><path d="M569.27,551.49l.69.6Z" class="cls-4"></path><path d="M552.77,526.13c.15.33.29.66.43,1C553.06,526.79,552.92,526.46,552.77,526.13Z" class="cls-4"></path><path d="M388.41,283.85l1.53.16Z" class="cls-4"></path><path d="M396,284.59l1.54.11Z" class="cls-4"></path><path d="M541.16,489.71l.27,1.09Z" class="cls-4"></path><path d="M539.21,481.25c.09.43.19.86.28,1.29C539.4,482.11,539.3,481.68,539.21,481.25Z" class="cls-4"></path><path d="M346.41,365.12l.36.41c-.2-.24-.4-.46-.6-.71A28.24,28.24,0,0,0,319,354.73,29.29,29.29,0,0,1,346.41,365.12Z" class="cls-4"></path><path d="M376.68,310.37l-.09.63-.09.57.09-.57Z" class="cls-4"></path><path d="M531.78,438.51c0,.33.09.67.13,1C531.87,439.18,531.82,438.84,531.78,438.51Z" class="cls-4"></path><path d="M551.77,523.72c.14.35.28.71.43,1.06C552.05,524.43,551.91,524.07,551.77,523.72Z" class="cls-4"></path><path d="M531.52,436.55c0,.29.07.58.11.88C531.59,437.13,531.56,436.84,531.52,436.55Z" class="cls-4"></path><path d="M556.92,534.86c.18.34.35.68.53,1C557.27,535.54,557.1,535.2,556.92,534.86Z" class="cls-4"></path><path d="M414.26,285.27l-1.44,0Z" class="cls-4"></path><path d="M459.79,378.42c-.44-.41-.89-.83-1.31-1.24C458.9,377.59,459.35,378,459.79,378.42Z" class="cls-4"></path><path d="M576.67,556.06c.2.08.41.17.62.24C577.08,556.23,576.87,556.14,576.67,556.06Z" class="cls-4"></path><path d="M532.4,443c0,.31.08.61.13.92C532.48,443.59,532.44,443.29,532.4,443Z" class="cls-4"></path><path d="M509.56,408.73c1,.41,2.08.81,3.11,1.21C511.64,409.54,510.57,409.14,509.56,408.73Z" class="cls-4"></path><path d="M555.88,532.85l.47.93Z" class="cls-4"></path><path d="M532.1,440.86c0,.26.07.53.11.8C532.17,441.39,532.14,441.12,532.1,440.86Z" class="cls-4"></path><path d="M573.68,554.63c.19.12.39.24.59.34C574.07,554.87,573.87,554.75,573.68,554.63Z" class="cls-4"></path><path d="M319,354.73a27.9,27.9,0,0,0-20.34,14.65l-.09.19A28.56,28.56,0,0,1,319,354.73Z" class="cls-4"></path><path d="M530.76,430.55c0,.35.09.7.13,1.07C530.85,431.25,530.8,430.9,530.76,430.55Z" class="cls-4"></path><path d="M777.2,732.88h0l-2.12.25Z" class="cls-4"></path><path d="M308.12,514.87l-.06-.06a14.67,14.67,0,0,0-10-4.55c-.53,0-1-.06-1.55-.09.46,0,.9.07,1.37.09A15.09,15.09,0,0,1,308.12,514.87Z" class="cls-4"></path><path d="M483.56,591.14c.05-2.18.15-4.34.27-6.51-.42.79-.83,1.58-1.25,2.36C482.89,588.38,483.22,589.76,483.56,591.14Z" class="cls-4"></path><path d="M553.77,528.4l.45,1Z" class="cls-4"></path><path d="M392.27,657.74c.19-.09.39-.16.58-.24a5.48,5.48,0,0,0-.56.23Z" class="cls-4"></path><path d="M531,432.31c0,.39.09.79.15,1.2C531.07,433.1,531,432.7,531,432.31Z" class="cls-4"></path><path d="M400.54,656.67l.17,0a23.88,23.88,0,0,0,3.93.3,23.88,23.88,0,0,1-3.93-.3Z" class="cls-4"></path><path d="M575.2,555.43c.19.09.37.19.56.27C575.57,555.62,575.39,555.52,575.2,555.43Z" class="cls-4"></path><path d="M609.54,739.17c.85.27,1.61.55,2.33.83C611.15,739.72,610.39,739.44,609.54,739.17Z" class="cls-4"></path><path d="M392,657.88l.27-.14h0Z" class="cls-4"></path><path d="M531.21,434.15c0,.41.1.83.16,1.25C531.31,435,531.26,434.56,531.21,434.15Z" class="cls-4"></path><path d="M554.82,530.66l.45,1Z" class="cls-4"></path><path d="M464.08,382.33c.49.43,1,.86,1.55,1.29C465.11,383.19,464.57,382.76,464.08,382.33Z" class="cls-4"></path><path d="M534.16,454.6l.21,1.27Z" class="cls-4"></path><path d="M549.84,518.75c.14.4.29.8.44,1.2C550.13,519.55,550,519.15,549.84,518.75Z" class="cls-4"></path><path d="M559.19,538.9l.54.91Z" class="cls-4"></path><path d="M470.72,387.62c.57.42,1.19.85,1.79,1.28C471.91,388.47,471.29,388,470.72,387.62Z" class="cls-4"></path><path d="M461.15,379.73c.46.42,1,.85,1.44,1.28C462.11,380.58,461.61,380.15,461.15,379.73Z" class="cls-4"></path><path d="M467.26,385c.52.42,1.09.84,1.63,1.25C468.35,385.8,467.78,385.38,467.26,385Z" class="cls-4"></path><path d="M456.05,374.67c.39.42.82.84,1.23,1.27C456.87,375.51,456.44,375.09,456.05,374.67Z" class="cls-4"></path><path d="M535,459.56c.08.47.16.94.25,1.41C535.15,460.5,535.07,460,535,459.56Z" class="cls-4"></path><path d="M451.87,369.85c.28.35.6.71.89,1.06C452.47,370.56,452.15,370.2,451.87,369.85Z" class="cls-4"></path><path d="M534.55,456.93c.08.5.16,1,.25,1.49C534.71,457.92,534.63,457.43,534.55,456.93Z" class="cls-4"></path><path d="M453.85,372.23l1.07,1.17Z" class="cls-4"></path><path d="M560.38,540.83c.18.27.35.56.53.83C560.73,541.39,560.56,541.1,560.38,540.83Z" class="cls-4"></path><path d="M533.75,452l.21,1.33Z" class="cls-4"></path><path d="M478.5,393c.64.42,1.34.83,2,1.25C479.84,393.8,479.14,393.39,478.5,393Z" class="cls-4"></path><path d="M492.49,401c.88.45,1.82.9,2.73,1.34C494.31,401.87,493.37,401.42,492.49,401Z" class="cls-4"></path><path d="M533,447.33l.18,1.22Z" class="cls-4"></path><path d="M487.5,398.32c.84.46,1.74.92,2.61,1.39C489.24,399.24,488.34,398.78,487.5,398.32Z" class="cls-4"></path><path d="M497.83,403.6c.91.43,1.87.85,2.81,1.28C499.7,404.45,498.74,404,497.83,403.6Z" class="cls-4"></path><path d="M550.79,521.26c.14.38.29.76.44,1.13C551.08,522,550.93,521.64,550.79,521.26Z" class="cls-4"></path><path d="M558,536.89c.18.33.36.66.55,1C558.39,537.55,558.21,537.22,558,536.89Z" class="cls-4"></path><path d="M532.71,445.19l.15,1Z" class="cls-4"></path><path d="M474.46,390.29c.63.44,1.31.87,2,1.31C475.77,391.16,475.09,390.73,474.46,390.29Z" class="cls-4"></path><path d="M545.55,505.93c.12.39.24.78.35,1.17C545.79,506.71,545.67,506.32,545.55,505.93Z" class="cls-4"></path><path d="M482.84,395.65c.74.44,1.53.88,2.29,1.31C484.37,396.53,483.58,396.09,482.84,395.65Z" class="cls-4"></path><path d="M533.35,449.42c.07.5.15,1,.23,1.52C533.5,450.43,533.42,449.92,533.35,449.42Z" class="cls-4"></path><path d="M503.51,406.19c.94.41,1.94.81,2.91,1.22C505.45,407,504.45,406.6,503.51,406.19Z" class="cls-4"></path><path d="M528.35,422.19a22.65,22.65,0,0,1,2.32,7.59l.09.77c0,.35.09.7.13,1.07l.09.69c0,.39.09.79.15,1.2,0,.2,0,.42.08.64,0,.41.1.83.16,1.25l.15,1.15c0,.29.07.58.11.88l.15,1.08c0,.33.09.67.13,1s.13.89.19,1.34c0,.26.07.53.11.8.06.43.12.88.19,1.32s.08.61.13.92.12.86.18,1.29l.15,1c0,.38.11.76.17,1.15l.18,1.22c0,.29.09.58.14.87.07.5.15,1,.23,1.52s.12.73.17,1.1l.21,1.33c.07.41.14.82.2,1.23l.21,1.27.18,1.06c.08.5.16,1,.25,1.49s.13.76.19,1.14.16.94.25,1.41.17,1,.26,1.48.13.75.2,1.13.17,1,.26,1.44.14.8.22,1.21l.24,1.29c.09.46.17.92.26,1.39s.17.87.26,1.31.17.91.26,1.37.19.94.28,1.41.17.87.26,1.31.19.91.28,1.36.19.91.29,1.37l.3,1.45c.09.43.18.86.28,1.29s.21,1,.32,1.47.19.86.28,1.29l.3,1.33.33,1.43.36,1.55c.09.4.18.79.28,1.19.13.56.27,1.11.4,1.67l.27,1.09.36,1.45.33,1.32.33,1.25c.12.5.25,1,.38,1.49s.26.94.38,1.41l.35,1.31c.15.55.31,1.09.46,1.64l.3,1.07c.14.49.29,1,.43,1.47s.23.83.35,1.23l.45,1.49c.12.39.24.78.35,1.17l.48,1.53c.12.37.23.75.35,1.12l.42,1.29.44,1.32c.14.44.29.86.43,1.29s.29.85.44,1.27.31.89.47,1.33.28.81.43,1.21.32.86.48,1.29.29.8.44,1.2l.51,1.31c.14.38.29.76.44,1.13l.54,1.33c.14.35.28.71.43,1.06s.38.9.57,1.35.29.66.43,1l.57,1.28.45,1c.2.43.4.84.6,1.26l.45,1c.2.42.41.82.61,1.23l.47.93.57,1.08c.18.34.35.68.53,1s.38.69.58,1,.36.66.55,1,.4.69.61,1l.54.91.65,1c.18.27.35.56.53.83l.62.91.59.87.66.89c.19.26.38.53.58.79l.69.87.57.72.63.72c.22.26.44.53.67.78s.41.44.62.66.46.5.7.73l.66.64c.23.22.46.45.69.66l.68.59.69.6.73.55c.22.18.45.36.68.52s.5.34.76.51.45.32.67.46.59.34.88.5.39.24.59.34.62.31.93.46.37.19.56.27.6.24.91.36.41.17.62.24.65.2,1,.3l.57.17c.34.09.69.15,1,.22.19,0,.37.09.56.12l.93.12c.23,0,.46.07.69.08s.65,0,1,0l.67,0c.43,0,.87,0,1.31-.07h.37c.57,0,1.14-.13,1.71-.23a16.65,16.65,0,0,1,14.49,4.45L777.35,732.45h0l.24.22c.36-.36.71-.73,1-1.09,20.26-22.51-46.34-262.73-60.24-309.4Z" class="cls-5"></path><path d="M466.38,269.81s-7.72,10.58-34.49,14.25l3.3,24.1,5.46,40s0,.24.12.64.13.58.23,1c.17.67.44,1.56.8,2.6.06.19.11.35.18.54s.15.4.23.59.19.51.3.78.26.62.39.93.16.39.25.59.23.49.34.74.27.6.43.92.28.56.42.83l.49,1c.18.33.38.69.58,1l.48.87c.19.33.41.67.61,1s.4.67.62,1,.53.82.81,1.23.37.59.58.89.6.85.91,1.27l.67.95.87,1.12c.31.39.59.78.91,1.18s.6.71.89,1.06.71.87,1.09,1.32l1.07,1.17c.37.43.74.84,1.13,1.27s.82.84,1.23,1.27.78.82,1.2,1.24.87.83,1.31,1.24.89.87,1.36,1.31,1,.85,1.44,1.28,1,.88,1.49,1.32,1,.86,1.55,1.29,1.06.89,1.63,1.34,1.09.84,1.63,1.25,1.19.94,1.83,1.41,1.19.85,1.79,1.28,1.27.93,1.95,1.39,1.31.87,2,1.31,1.35.92,2.07,1.37,1.34.83,2,1.25,1.53.95,2.33,1.43,1.53.88,2.29,1.31,1.55.91,2.37,1.36,1.74.92,2.61,1.39,1.56.84,2.38,1.26,1.82.9,2.73,1.34,1.71.86,2.61,1.29,1.87.85,2.81,1.28,1.89.88,2.87,1.31,1.94.81,2.91,1.22,2.06.89,3.14,1.32,2.08.81,3.11,1.21,2.21.87,3.36,1.3a22.76,22.76,0,0,1,12.32,10.95h190c-.87-2.93-1.55-5.13-2-6.43-15.15-46.66,25.92-120.83-40.67-135.19-.45-.09-.88-.2-1.32-.31C608.11,265,583.44,184.83,466.38,269.81Z" class="cls-6"></path><path d="M515.94,411.21c-1.12-.42-2.18-.85-3.27-1.27s-2.1-.8-3.11-1.21-2.09-.88-3.14-1.32-2-.81-2.91-1.22-1.91-.87-2.87-1.31-1.9-.85-2.81-1.28-1.74-.86-2.61-1.29-1.85-.89-2.73-1.34-1.59-.84-2.38-1.26-1.77-.93-2.61-1.39-1.58-.9-2.37-1.36-1.55-.87-2.29-1.31-1.55-1-2.33-1.43-1.37-.83-2-1.25-1.38-.91-2.07-1.37-1.34-.87-2-1.31-1.3-.93-1.95-1.39-1.22-.86-1.79-1.28-1.22-.94-1.83-1.41-1.11-.83-1.63-1.25-1.09-.89-1.63-1.34-1.06-.86-1.55-1.29-1-.88-1.49-1.32-1-.86-1.44-1.28-.91-.87-1.36-1.31-.89-.83-1.31-1.24-.8-.83-1.2-1.24-.84-.85-1.23-1.27-.76-.84-1.13-1.27l-1.07-1.17c-.38-.45-.73-.88-1.09-1.32s-.61-.71-.89-1.06-.6-.79-.91-1.18l-.87-1.12-.67-.95c-.31-.42-.62-.86-.91-1.27s-.39-.59-.58-.89-.56-.83-.81-1.23-.42-.68-.62-1-.42-.67-.61-1l-.48-.87c-.2-.34-.4-.7-.58-1l-.49-1c-.14-.27-.29-.56-.42-.83s-.29-.62-.43-.92-.24-.5-.34-.74-.17-.39-.25-.59-.28-.63-.39-.93-.2-.52-.3-.78-.16-.4-.23-.59-.12-.35-.18-.54c-.36-1-.63-1.93-.8-2.6-.1-.42-.17-.73-.23-1s-.12-.64-.12-.64l-8.74-39.38-2.27-23.5,2.27-1.08a.16.16,0,0,0-.17-.13l-1.22.15-1.11.14-1.36.14c-.38,0-.75.09-1.14.12s-.91.08-1.37.12l-1.25.11-1.39.09-1.31.09-1.5.07-1.32.06-1.55.05c-.45,0-.91,0-1.37,0l-1.59,0-1.44,0h-3.15l-1.8,0-1.45,0-1.86-.08-1.51-.06-1.88-.11-1.6-.09-2.06-.15-1.54-.11-2.14-.19-1.58-.15c-.76-.07-1.54-.15-2.31-.24l-1.53-.16-2.81-.33-1.15-.14c-1.34-.17-2.7-.35-4.08-.55a.15.15,0,0,0-.18.13c0,.31-.06.63-.1,1,0,.15,0,.29,0,.44,0,.43-.09.87-.14,1.31,0,.08,0,.15,0,.23-.05.39-.09.78-.13,1.17l-.06.49c0,.41-.09.84-.14,1.26,0,.13,0,.26-.05.39,0,.41-.09.82-.14,1.23l-.06.53c-.05.37-.09.75-.14,1.13,0,.22-.05.43-.08.65,0,.41-.1.83-.15,1.24,0,.19,0,.38-.07.57,0,.39-.09.79-.14,1.18l-.09.71c-.06.41-.11.83-.16,1.25,0,.21-.06.42-.08.62-.06.42-.12.84-.17,1.26l-.09.7c-.06.39-.11.79-.16,1.18s-.07.53-.11.8-.11.76-.16,1.14l-.12.86c-.05.39-.11.77-.16,1.16s-.09.57-.13.86-.11.78-.17,1.17-.08.58-.13.88l-.18,1.21c0,.28-.08.56-.13.84l-.09.63-.09.57c-.05.3-.09.59-.14.89l-.18,1.12c-.05.32-.1.65-.16,1l-.18,1.14c0,.31-.11.63-.16.94s-.13.76-.19,1.14-.11.65-.17,1l-.18,1.07c-.06.34-.12.69-.19,1s-.13.73-.19,1.09l-.18,1c-.07.36-.14.72-.2,1.07s-.13.69-.2,1-.13.71-.2,1.07-.13.67-.2,1-.14.73-.22,1.09-.13.66-.19,1-.15.72-.23,1.09-.13.65-.2,1-.15.72-.23,1.08l-.21,1c-.08.36-.15.71-.23,1.06s-.15.65-.22,1-.16.68-.23,1-.16.66-.23,1l-.24,1-.24,1c-.08.34-.17.68-.25,1s-.16.61-.23.92-.18.66-.26,1l-.24.93c-.09.31-.17.62-.26.93s-.17.63-.26.94-.17.62-.26.92-.17.6-.26.9l-.27.91-.27.87c-.09.3-.18.6-.28.89l-.27.84c-.09.29-.19.58-.28.86s-.19.56-.28.83-.19.55-.29.82l-.28.81-.3.79c-.09.26-.19.52-.29.78l-.3.76-.3.74c-.1.25-.2.49-.31.73s-.2.49-.31.72l-.3.69-.32.69-.32.65c-.1.22-.21.44-.32.65l-.33.62c-.1.21-.21.41-.32.61l-.33.58-.34.58c-.11.18-.22.36-.34.54s-.22.36-.34.53l-.34.5-.35.49-.35.45-.36.45c-.11.14-.23.27-.35.41l-.36.4-.37.36c-.12.12-.24.24-.37.35l-.37.32-.37.3a4.28,4.28,0,0,1-.38.26l-.38.26-.39.21-.39.2-.39.16-.39.15-.4.1a3,3,0,0,1-.41.09,2.73,2.73,0,0,1-.4.05l-.41,0-.41,0a3,3,0,0,1-.42,0l-.42-.07-.43-.09a3.38,3.38,0,0,1-.42-.13c-.14-.05-.29-.09-.43-.15a3.3,3.3,0,0,1-.43-.19l-.45-.22a4.77,4.77,0,0,1-.43-.25l-.45-.28-.45-.33c-.15-.11-.3-.22-.45-.35l-.45-.39c-.16-.13-.31-.27-.47-.42l-.46-.45-.47-.5-.46-.52-.36-.41A29.29,29.29,0,0,0,319,354.73a28.56,28.56,0,0,0-20.43,14.84c-.27.49-.53,1-.79,1.49l-.54,1-.79,1.52-.6,1.16-.76,1.46-.63,1.22-.76,1.51c-.21.41-.42.81-.62,1.22l-.74,1.48c-.22.43-.43.85-.64,1.28s-.51,1-.76,1.53-.41.83-.62,1.25l-.75,1.54c-.2.42-.41.84-.62,1.27s-.47,1-.7,1.46l-.66,1.38-.67,1.42c-.22.48-.45,1-.67,1.43l-.69,1.47c-.21.47-.43.93-.64,1.39l-.69,1.52c-.21.46-.42.91-.62,1.37s-.47,1-.7,1.55l-.6,1.34c-.22.52-.45,1-.68,1.56s-.39.9-.59,1.36l-.66,1.54c-.2.45-.39.91-.59,1.37l-.63,1.52-.59,1.4c-.21.51-.41,1-.62,1.51l-.57,1.42-.6,1.49-.57,1.44c-.19.5-.38,1-.58,1.5l-.55,1.41c-.19.52-.38,1-.58,1.55,0,.09-.06.18-.1.27h253.9A22.93,22.93,0,0,0,515.94,411.21Z" class="cls-7"></path><path d="M601.57,561.52a16.65,16.65,0,0,0-14.49-4.45c-.57.1-1.14.18-1.71.23H585c-.44,0-.88.07-1.31.07l-.67,0c-.32,0-.65,0-1,0s-.46,0-.69-.08l-.93-.12c-.19,0-.37-.08-.56-.12-.34-.07-.69-.13-1-.22l-.57-.17c-.33-.1-.66-.19-1-.3s-.42-.16-.62-.24-.61-.23-.91-.36-.37-.18-.56-.27-.62-.29-.93-.46-.4-.22-.59-.34-.59-.32-.88-.5-.45-.31-.67-.46-.51-.33-.76-.51-.46-.34-.68-.52l-.73-.55-.69-.6-.68-.59c-.23-.21-.46-.44-.69-.66l-.66-.64c-.24-.23-.47-.49-.7-.73s-.42-.43-.62-.66-.45-.52-.67-.78l-.63-.72-.57-.72-.69-.87c-.2-.26-.39-.53-.58-.79l-.66-.89-.59-.87-.62-.91c-.18-.27-.35-.56-.53-.83l-.65-1-.54-.91c-.21-.34-.41-.68-.61-1s-.37-.65-.55-1-.39-.68-.58-1-.35-.66-.53-1l-.57-1.08-.47-.93c-.2-.41-.41-.81-.61-1.23l-.45-1c-.2-.42-.4-.83-.6-1.26l-.45-1-.57-1.28c-.14-.33-.28-.66-.43-1s-.38-.89-.57-1.35-.29-.71-.43-1.06l-.54-1.33c-.15-.37-.3-.75-.44-1.13l-.51-1.31c-.15-.4-.3-.8-.44-1.2s-.32-.85-.48-1.29-.29-.8-.43-1.21-.32-.88-.47-1.33-.29-.84-.44-1.27-.29-.85-.43-1.29l-.44-1.32-.42-1.29c-.12-.37-.23-.75-.35-1.12l-.48-1.53c-.11-.39-.23-.78-.35-1.17l-.45-1.49c-.12-.41-.23-.82-.35-1.23s-.29-1-.43-1.47l-.3-1.07c-.15-.55-.31-1.09-.46-1.64l-.35-1.31c-.12-.47-.25-.94-.38-1.41s-.26-1-.38-1.49l-.33-1.25-.33-1.32-.36-1.45-.27-1.09c-.13-.56-.27-1.11-.4-1.67-.1-.4-.19-.79-.28-1.19l-.36-1.55-.33-1.43-.3-1.33c-.09-.43-.19-.86-.28-1.29s-.22-1-.32-1.47-.19-.86-.28-1.29l-.3-1.45c-.1-.46-.19-.91-.29-1.37s-.18-.91-.28-1.36-.17-.88-.26-1.31-.19-.94-.28-1.41-.18-.92-.26-1.37-.17-.88-.26-1.31-.17-.93-.26-1.39l-.24-1.29c-.08-.41-.15-.81-.22-1.21s-.18-1-.26-1.44-.14-.75-.2-1.13-.18-1-.26-1.48-.17-.94-.25-1.41-.13-.76-.19-1.14-.17-1-.25-1.49l-.18-1.06-.21-1.27c-.06-.41-.13-.82-.2-1.23l-.21-1.33c0-.37-.11-.73-.17-1.1s-.16-1-.23-1.52c-.05-.29-.09-.58-.14-.87l-.18-1.22c-.06-.39-.12-.77-.17-1.15l-.15-1c-.06-.43-.12-.87-.18-1.29s-.09-.61-.13-.92-.13-.89-.19-1.32c0-.27-.07-.54-.11-.8-.06-.45-.13-.9-.19-1.34s-.09-.68-.13-1l-.15-1.08c0-.3-.07-.59-.11-.88l-.15-1.15c-.06-.42-.11-.84-.16-1.25,0-.22-.06-.44-.08-.64-.06-.41-.1-.81-.15-1.2l-.09-.69c0-.37-.09-.72-.13-1.07s0-.45-.08-.66a22.94,22.94,0,0,0-2.36-7.7H274.42c-.14.37-.27.74-.41,1.1-.2.53-.38,1.06-.58,1.59L273,426.2c-.18.51-.35,1-.53,1.54s-.33.91-.49,1.37l-.48,1.44L271,432c-.16.48-.31.95-.46,1.43s-.32,1-.47,1.45-.29.93-.43,1.4-.31,1-.46,1.46l-.42,1.43c-.14.47-.28.94-.41,1.41s-.28,1-.42,1.49l-.37,1.33-.38,1.46c-.12.44-.24.89-.35,1.33s-.23.95-.34,1.42-.23.9-.33,1.35-.21.89-.31,1.34-.21.94-.31,1.4-.19.9-.28,1.35-.19.91-.28,1.36-.17.92-.26,1.37l-.24,1.3c-.08.47-.15.93-.22,1.39l-.21,1.25c-.07.46-.13.92-.19,1.38s-.12.82-.17,1.22-.11.9-.16,1.35-.1.81-.14,1.21-.07.85-.11,1.28-.08.83-.11,1.24-.05.81-.08,1.21-.05.84-.07,1.25,0,.81,0,1.21,0,.81,0,1.21,0,.8,0,1.19,0,.79,0,1.18,0,.8,0,1.2,0,.75,0,1.11.06.79.09,1.18.05.73.08,1.09.08.73.13,1.1.07.73.12,1.1.12.72.17,1.08.11.71.17,1.06.15.73.23,1.1.13.65.2,1,.18.7.27,1.05.16.65.25,1,.2.65.31,1,.19.66.31,1,.23.62.35.93.23.63.36.94.27.6.4.9.26.6.41.9.31.58.46.88.29.56.45.84.33.54.5.82.33.55.51.82.35.49.52.73.39.57.6.84.39.47.59.71.41.52.63.77.44.45.65.67.45.49.69.72.42.38.63.57.53.5.82.74.49.38.73.57l.83.65c.26.19.54.36.81.54a29.59,29.59,0,0,0,2.63,1.59l0,0c.44.23.9.45,1.36.66.19.09.36.19.56.27.36.17.75.31,1.14.47s.59.25.9.36.77.26,1.16.39.66.24,1,.34.92.25,1.38.38l.91.25,1.34.28,1.09.23c.42.08.86.14,1.29.21l1.27.2c.44.06.91.1,1.37.15l1.32.14c.47,0,1,.06,1.45.09s1,.08,1.55.09a14.67,14.67,0,0,1,10,4.55l.06.06a3,3,0,0,1,.24.26l1,1,.13.14,1.21,1.27.14.14,1.33,1.4.27.28,1.31,1.38.26.27,3.23,3.42.67.71,1.26,1.34,0,0,1.92,2.05c1.16,1.23,2.36,2.53,3.6,3.86l.66.7,1.55,1.68.68.73,1.28,1.38c.35.38.69.76,1.05,1.14l4,4.35.82.9,1.49,1.64c.33.35.65.7,1,1.06l1.65,1.82.89,1c1.53,1.68,3.08,3.41,4.64,5.15l.54.6,1.44,1.62,1.21,1.35c.38.43.76.87,1.15,1.3l1.5,1.7,1.3,1.48,1.38,1.56L355,566c.21.23.41.47.61.7l1.68,1.93,1,1.19,1.28,1.48,1.41,1.64,1.57,1.84,1.11,1.3,2.28,2.69.38.45,2.14,2.55.52.62c.49.58,1,1.16,1.45,1.75l1.2,1.43,1.06,1.29c.51.62,1,1.24,1.53,1.87l1.31,1.6,1.26,1.55,1.41,1.76L379.3,595c.48.59.95,1.19,1.42,1.79l1.06,1.33,1.11,1.43c.44.55.88,1.12,1.31,1.67s.9,1.16,1.34,1.74l1,1.32,1.51,2,.79,1,1.51,2,.71.95,1.15,1.58,1,1.38,1,1.39,1.07,1.5c.4.56.78,1.11,1.16,1.67l.82,1.18c.31.44.59.87.89,1.31l1,1.47.86,1.31c.3.47.62.94.92,1.4l.93,1.48.75,1.17.94,1.54.62,1,.84,1.44.61,1c.24.42.46.83.69,1.25s.43.77.63,1.15.44.84.65,1.26.37.7.54,1,.42.87.62,1.3.3.61.44.91c.23.5.43,1,.64,1.47.09.21.19.43.27.64.16.39.3.77.44,1.15s.23.58.33.85.2.61.3.92.22.65.32,1,.16.62.23.93.16.57.22.84.1.54.15.82.11.56.14.82.05.57.07.85,0,.45.05.67,0,.53,0,.8,0,.4,0,.58-.09.46-.13.69-.06.38-.11.55-.14.37-.21.55-.13.38-.22.55a4.13,4.13,0,0,1-.32.49c-.1.15-.19.32-.3.46s-.29.27-.43.41a3.59,3.59,0,0,1-.4.38,5.6,5.6,0,0,1-.48.3c-.18.11-.35.24-.55.34s-.33.12-.49.18-.48.21-.75.29l-.21,0a13.5,13.5,0,0,1-1.43.27c-.51.06-1.06.09-1.64.1a23.88,23.88,0,0,1-3.93-.3l-.17,0-.91-.11-.29,0-.79,0h-1.29l-.86.07-.21,0-.86.13-.27.07-.77.18-.34.1-.68.22-.42.18c-.19.08-.39.15-.58.24l-.27.14-.25.12-.28.16-.24.13-.26.17-.24.15-.25.18-.23.18-.23.19-.23.19c-.08.07-.15.15-.22.22l-.21.2c-.07.08-.13.16-.2.23l-.2.23-.17.24c-.06.09-.13.17-.18.25l-.16.26-.16.27c0,.09-.08.19-.13.29s-.09.18-.13.28-.07.21-.11.31l-.1.3c0,.11-.05.22-.08.33s-.05.22-.07.33,0,.23-.05.35,0,.23,0,.35,0,.24,0,.37,0,.24,0,.37l0,.39c0,.13,0,.27,0,.4s0,.28.07.42,0,.28.06.42.07.3.1.45.07.29.11.44.1.32.15.48.09.3.15.46a5.38,5.38,0,0,0,.2.51c.06.16.11.32.18.48s.17.37.26.55.14.33.23.5l.29.56.29.54.34.58.35.58c.12.2.27.4.4.61l.4.61.5.7.42.58.6.78c.15.18.28.37.44.56s.43.53.66.79l.5.61.68.77.61.69c.23.26.48.52.72.78s.46.5.71.75l.75.77c.27.28.53.55.82.83s.45.45.68.67l1,1q1.77,1.69,3.87,3.54c33.49,29.51,74.17,125.22,117.64,41.47s71.38,5.19,87.73,10.37c.85.27,1.61.55,2.33.83.88.35,1.68.7,2.47,1l.47.21c.93.41,1.86.82,2.88,1.21l1,.35.64.22h0q.63.21,1.32.39l.13,0,.58.15.2,0,.54.13.3.06.59.13.29.06.69.12.25.05.66.1.35.06.82.12.25,0,.85.1.29,0,.87.09.35,0,.72.07.58,0,1.26.08h.12l1.26.07.22,0,1.27,0h.29l1,0,.64,0,1.07,0h.7l1.66,0h4.32l1.33,0H646l1.84,0,.51,0,1.7-.06.81,0,1.91-.07.71,0,2.15-.11.62,0,2.49-.13.42,0,2.36-.14.72,0,1.8-.12,1.44-.09,1.65-.11,1.72-.12,2.68-.19.85-.06,3.3-.26.41,0,3.16-.25.74-.06,2.39-.2,1.71-.14,2.3-.2,1.93-.17,2.79-.25,1.65-.15,3.22-.3,1.4-.13,3.4-.33,1.43-.14,3.82-.37,1.2-.12,3.79-.38,1.46-.15,4.41-.46,1-.1,3.43-.36,2.29-.25,4.49-.48,1.33-.14,5.15-.56,1-.11,6.08-.67.24,0,4.79-.54,1.84-.21,5-.57,1.78-.2,5.51-.64,1.55-.18,5-.59,2.31-.27,5.36-.64,2.12-.25c.07-.19.08-.24.15-.42h0Zm-118,29.62c-.34-1.38-.67-2.76-1-4.15.42-.78.83-1.57,1.25-2.36C483.71,586.8,483.61,589,483.56,591.14Z" class="cls-8"></path><path d="M551.23,522.39l.54,1.33Z" class="cls-7"></path><path d="M550.28,520l.51,1.31Z" class="cls-7"></path><path d="M552.2,524.78c.19.46.38.9.57,1.35C552.58,525.68,552.39,525.24,552.2,524.78Z" class="cls-7"></path><path d="M548.46,514.92c.15.45.31.89.47,1.33C548.77,515.81,548.61,515.37,548.46,514.92Z" class="cls-7"></path><path d="M546.73,509.75l.42,1.29Z" class="cls-7"></path><path d="M549.36,517.46c.16.44.32.86.48,1.29C549.68,518.32,549.52,517.9,549.36,517.46Z" class="cls-7"></path><path d="M547.59,512.36c.14.44.29.86.43,1.29C547.88,513.22,547.73,512.8,547.59,512.36Z" class="cls-7"></path><path d="M533.58,450.94c.06.37.12.73.17,1.1C533.7,451.67,533.64,451.31,533.58,450.94Z" class="cls-7"></path><path d="M533.21,448.55c0,.29.09.58.14.87C533.3,449.13,533.26,448.84,533.21,448.55Z" class="cls-7"></path><path d="M534,453.37c.07.41.14.82.2,1.23C534.1,454.19,534,453.78,534,453.37Z" class="cls-7"></path><path d="M535.7,463.58c.08.48.17,1,.26,1.44C535.87,464.54,535.78,464.06,535.7,463.58Z" class="cls-7"></path><path d="M535.24,461c.08.49.17,1,.26,1.48C535.41,462,535.32,461.46,535.24,461Z" class="cls-7"></path><path d="M532.86,446.18c0,.38.11.76.17,1.15C533,446.94,532.91,446.56,532.86,446.18Z" class="cls-7"></path><path d="M534.8,458.42c.06.38.13.76.19,1.14C534.93,459.18,534.86,458.8,534.8,458.42Z" class="cls-7"></path><path d="M534.37,455.87l.18,1.06Z" class="cls-7"></path><path d="M531.13,433.51c0,.2,0,.42.08.64C531.18,433.93,531.15,433.71,531.13,433.51Z" class="cls-7"></path><path d="M545.9,507.1l.48,1.53Z" class="cls-7"></path><path d="M530.89,431.62l.09.69Z" class="cls-7"></path><path d="M531.63,437.43l.15,1.08Z" class="cls-7"></path><path d="M532.21,441.66c.06.43.12.88.19,1.32C532.33,442.54,532.27,442.09,532.21,441.66Z" class="cls-7"></path><path d="M531.91,439.52c.06.44.13.89.19,1.34C532,440.41,532,440,531.91,439.52Z" class="cls-7"></path><path d="M532.53,443.9c.06.42.12.86.18,1.29C532.65,444.76,532.59,444.32,532.53,443.9Z" class="cls-7"></path><path d="M531.37,435.4l.15,1.15Z" class="cls-7"></path><path d="M536.18,466.23l.24,1.29Z" class="cls-7"></path><path d="M540.76,488c.13.56.27,1.11.4,1.67C541,489.15,540.89,488.6,540.76,488Z" class="cls-7"></path><path d="M541.43,490.8l.36,1.45Z" class="cls-7"></path><path d="M542.12,493.57l.33,1.25Z" class="cls-7"></path><path d="M545.1,504.44l.45,1.49Z" class="cls-7"></path><path d="M544.32,501.74c.14.49.29,1,.43,1.47C544.61,502.72,544.46,502.23,544.32,501.74Z" class="cls-7"></path><path d="M543.56,499c.15.55.31,1.09.46,1.64C543.87,500.12,543.71,499.58,543.56,499Z" class="cls-7"></path><path d="M542.83,496.31c.13.47.26.94.38,1.41C543.09,497.25,543,496.78,542.83,496.31Z" class="cls-7"></path><path d="M537.2,471.59c.09.47.19.94.28,1.41C537.39,472.53,537.29,472.06,537.2,471.59Z" class="cls-7"></path><path d="M536.68,468.91c.09.43.17.87.26,1.31C536.85,469.78,536.77,469.34,536.68,468.91Z" class="cls-7"></path><path d="M540.12,485.3l.36,1.55Z" class="cls-7"></path><path d="M537.74,474.31c.1.45.19.91.28,1.36C537.93,475.22,537.84,474.76,537.74,474.31Z" class="cls-7"></path><path d="M539.49,482.54l.3,1.33Z" class="cls-7"></path><path d="M538.31,477l.3,1.45Z" class="cls-7"></path><path d="M538.89,479.78c.1.49.21,1,.32,1.47C539.1,480.76,539,480.27,538.89,479.78Z" class="cls-7"></path><path d="M565.92,548.21c.2.23.41.44.62.66C566.33,548.65,566.12,548.44,565.92,548.21Z" class="cls-7"></path><path d="M449.42,366.6l.67.95Z" class="cls-7"></path><path d="M447.93,364.44c.19.3.37.59.58.89C448.3,365,448.12,364.74,447.93,364.44Z" class="cls-7"></path><path d="M451,368.67c.31.39.59.78.91,1.18C451.55,369.45,451.27,369.06,451,368.67Z" class="cls-7"></path><path d="M446.5,362.19c.2.34.4.67.62,1C446.9,362.86,446.7,362.53,446.5,362.19Z" class="cls-7"></path><path d="M440.77,348.81c.06.27.13.58.23,1C440.9,349.39,440.83,349.08,440.77,348.81Z" class="cls-7"></path><path d="M459.79,378.42c.45.44.89.87,1.36,1.31C460.68,379.29,460.24,378.86,459.79,378.42Z" class="cls-7"></path><path d="M454.92,373.4c.37.43.74.84,1.13,1.27C455.66,374.24,455.29,373.83,454.92,373.4Z" class="cls-7"></path><path d="M462.59,381c.49.44,1,.88,1.49,1.32C463.56,381.89,463.08,381.45,462.59,381Z" class="cls-7"></path><path d="M442.9,355.25c.08.2.16.39.25.59C443.06,355.64,443,355.45,442.9,355.25Z" class="cls-7"></path><path d="M442.21,353.54c.1.26.19.51.3.78C442.4,354.05,442.31,353.8,442.21,353.54Z" class="cls-7"></path><path d="M445.41,360.32l.48.87Z" class="cls-7"></path><path d="M441.8,352.41c.06.19.11.35.18.54C441.91,352.76,441.86,352.6,441.8,352.41Z" class="cls-7"></path><path d="M444.34,358.33l.49,1Z" class="cls-7"></path><path d="M443.49,356.58c.14.3.27.6.43.92C443.76,357.18,443.63,356.88,443.49,356.58Z" class="cls-7"></path><path d="M452.76,370.91c.36.44.71.87,1.09,1.32C453.47,371.78,453.12,371.35,452.76,370.91Z" class="cls-7"></path><path d="M506.42,407.41c1.05.44,2.06.89,3.14,1.32C508.48,408.3,507.47,407.85,506.42,407.41Z" class="cls-7"></path><path d="M500.64,404.88c1,.44,1.89.88,2.87,1.31C502.53,405.76,501.6,405.32,500.64,404.88Z" class="cls-7"></path><path d="M458.48,377.18c-.42-.42-.8-.83-1.2-1.24C457.68,376.35,458.06,376.76,458.48,377.18Z" class="cls-7"></path><path d="M495.22,402.31c.87.43,1.71.86,2.61,1.29C496.93,403.17,496.09,402.74,495.22,402.31Z" class="cls-7"></path><path d="M516,411.24c-1.15-.43-2.24-.87-3.36-1.3,1.09.42,2.15.85,3.27,1.27a22.93,22.93,0,0,1,12.38,11h0A22.76,22.76,0,0,0,516,411.24Z" class="cls-7"></path><polygon points="431.91 284.21 429.64 285.29 431.91 308.79 440.65 348.17 435.19 308.16 431.89 284.06 431.89 284.06 431.91 284.21" class="cls-7"></polygon><path d="M480.51,394.22c.78.47,1.53.95,2.33,1.43C482,395.17,481.28,394.7,480.51,394.22Z" class="cls-7"></path><path d="M472.51,388.9c.65.46,1.27.93,1.95,1.39C473.78,389.83,473.16,389.36,472.51,388.9Z" class="cls-7"></path><path d="M476.43,391.6c.69.46,1.35.92,2.07,1.37C477.78,392.52,477.12,392.06,476.43,391.6Z" class="cls-7"></path><path d="M490.11,399.71c.79.42,1.56.84,2.38,1.26C491.67,400.55,490.9,400.13,490.11,399.71Z" class="cls-7"></path><path d="M468.89,386.21c.61.47,1.19.94,1.83,1.41C470.08,387.15,469.5,386.68,468.89,386.21Z" class="cls-7"></path><path d="M485.13,397c.79.46,1.55.91,2.37,1.36C486.68,397.87,485.92,397.42,485.13,397Z" class="cls-7"></path><path d="M465.63,383.62c.54.45,1.06.89,1.63,1.34C466.69,384.51,466.17,384.07,465.63,383.62Z" class="cls-7"></path><path d="M556.35,533.78l.57,1.08Z" class="cls-7"></path><path d="M577.29,556.3c.32.11.65.2,1,.3C577.94,556.5,577.61,556.41,577.29,556.3Z" class="cls-7"></path><path d="M575.76,555.7c.3.13.6.24.91.36C576.36,555.94,576.06,555.83,575.76,555.7Z" class="cls-7"></path><path d="M578.84,556.77c.34.09.69.15,1,.22C579.53,556.92,579.18,556.86,578.84,556.77Z" class="cls-7"></path><path d="M574.27,555c.31.17.62.31.93.46C574.89,555.28,574.58,555.14,574.27,555Z" class="cls-7"></path><path d="M582.05,557.31c.32,0,.65,0,1,0C582.7,557.34,582.37,557.34,582.05,557.31Z" class="cls-7"></path><path d="M585.37,557.3c.57,0,1.14-.13,1.71-.23C586.51,557.17,585.94,557.25,585.37,557.3Z" class="cls-7"></path><path d="M572.8,554.13c.29.18.59.34.88.5C573.39,554.47,573.09,554.31,572.8,554.13Z" class="cls-7"></path><path d="M580.43,557.11l.93.12Z" class="cls-7"></path><path d="M571.37,553.16c.25.18.5.34.76.51C571.87,553.5,571.62,553.34,571.37,553.16Z" class="cls-7"></path><path d="M562.12,543.44l.66.89Z" class="cls-7"></path><path d="M560.91,541.66l.62.91Z" class="cls-7"></path><path d="M563.36,545.12l.69.87Z" class="cls-7"></path><path d="M570,552.09l.73.55Z" class="cls-7"></path><path d="M585,557.31c-.44,0-.88.07-1.31.07C584.12,557.38,584.56,557.35,585,557.31Z" class="cls-7"></path><path d="M568.59,550.9l.68.59Z" class="cls-7"></path><path d="M559.73,539.81l.65,1Z" class="cls-7"></path><path d="M564.62,546.71l.63.72Z" class="cls-7"></path><path d="M553.2,527.12l.57,1.28Z" class="cls-7"></path><path d="M555.27,531.62c.2.42.41.82.61,1.23C555.68,532.44,555.47,532,555.27,531.62Z" class="cls-7"></path><path d="M554.22,529.4c.2.43.4.84.6,1.26C554.62,530.24,554.42,529.83,554.22,529.4Z" class="cls-7"></path><path d="M567.9,550.24l-.66-.64Z" class="cls-7"></path><path d="M557.45,535.86c.19.35.38.69.58,1C557.83,536.55,557.64,536.21,557.45,535.86Z" class="cls-7"></path><path d="M530.68,429.89c0,.21.05.44.08.66l-.09-.77a22.65,22.65,0,0,0-2.32-7.59h0A22.94,22.94,0,0,1,530.68,429.89Z" class="cls-7"></path><path d="M558.58,537.87c.2.35.4.69.61,1C559,538.56,558.78,538.22,558.58,537.87Z" class="cls-7"></path><path d="M274.52,421.92c.2-.51.39-1,.58-1.55l.55-1.41c.2-.5.39-1,.58-1.5l.57-1.44.6-1.49.57-1.42c.21-.5.41-1,.62-1.51l.59-1.4.63-1.52c.2-.46.39-.92.59-1.37l.66-1.54c.2-.46.4-.91.59-1.36s.46-1,.68-1.56l.6-1.34c.23-.52.46-1,.7-1.55s.41-.91.62-1.37l.69-1.52c.21-.46.43-.92.64-1.39l.69-1.47c.22-.48.45-.95.67-1.43l.67-1.42.66-1.38c.23-.48.47-1,.7-1.46s.42-.85.62-1.27l.75-1.54c.21-.42.41-.84.62-1.25s.5-1,.76-1.53.42-.85.64-1.28l.74-1.48c.2-.41.41-.81.62-1.22l.76-1.51.63-1.22.76-1.46.6-1.16.79-1.52.54-1,.78-1.48h0l.09-.19A27.9,27.9,0,0,1,319,354.73a28.24,28.24,0,0,1,27.15,10.09c.2.25.4.47.6.71l.46.52.47.5.46.45c.16.15.31.29.47.42l.45.39c.15.13.3.24.45.35l.45.33.45.28a4.77,4.77,0,0,0,.43.25l.45.22a3.3,3.3,0,0,0,.43.19c.14.06.29.1.43.15a3.38,3.38,0,0,0,.42.13l.43.09.42.07a3,3,0,0,0,.42,0l.41,0,.41,0a2.73,2.73,0,0,0,.4-.05,3,3,0,0,0,.41-.09l.4-.1.39-.15.39-.16.39-.2.39-.21.38-.26a4.28,4.28,0,0,0,.38-.26l.37-.3.37-.32c.13-.11.25-.23.37-.35l.37-.36.36-.4c.12-.14.24-.27.35-.41l.36-.45.35-.45.35-.49.34-.5c.12-.17.23-.35.34-.53s.23-.36.34-.54l.34-.58.33-.58c.11-.2.22-.4.32-.61l.33-.62c.11-.21.22-.43.32-.65l.32-.65.32-.69.3-.69c.11-.23.21-.48.31-.72s.21-.48.31-.73l.3-.74.3-.76c.1-.26.2-.52.29-.78l.3-.79.28-.81c.1-.27.2-.54.29-.82s.19-.55.28-.83.19-.57.28-.86l.27-.84c.1-.29.19-.59.28-.89l.27-.87.27-.91c.09-.3.17-.6.26-.9s.18-.61.26-.92.17-.62.26-.94.17-.62.26-.93l.24-.93c.08-.32.17-.65.26-1s.15-.62.23-.92.17-.68.25-1l.24-1,.24-1c.07-.33.15-.66.23-1s.15-.68.23-1,.14-.64.22-1,.15-.7.23-1.06l.21-1c.08-.36.15-.72.23-1.08s.13-.65.2-1,.15-.73.23-1.09.13-.66.19-1,.15-.73.22-1.09.13-.67.2-1,.13-.71.2-1.07.13-.69.2-1,.13-.71.2-1.07l.18-1c.06-.36.13-.73.19-1.09s.13-.7.19-1l.18-1.07c.06-.33.11-.65.17-1s.13-.76.19-1.14.11-.63.16-.94l.18-1.14c.06-.33.11-.66.16-1l.18-1.12c.05-.3.09-.59.14-.89l.09-.57.09-.63c.05-.28.09-.56.13-.84l.18-1.21c.05-.3.09-.59.13-.88s.12-.78.17-1.17.09-.58.13-.86.11-.77.16-1.16l.12-.86c.05-.38.11-.77.16-1.14s.07-.53.11-.8.1-.79.16-1.18l.09-.7c0-.42.11-.84.17-1.26,0-.2.05-.41.08-.62,0-.42.1-.84.16-1.25l.09-.71c0-.39.1-.79.14-1.18,0-.19.05-.38.07-.57.05-.41.11-.83.15-1.24,0-.22.06-.43.08-.65,0-.38.09-.76.14-1.13l.06-.53c.05-.41.1-.82.14-1.23,0-.13,0-.26.05-.39.05-.42.1-.85.14-1.26l.06-.49c0-.39.08-.78.13-1.17,0-.08,0-.15,0-.23.05-.44.1-.88.14-1.31,0-.15,0-.29,0-.44l.12-1.1c-20.13-2.87-44.67-8.47-74.54-18.19,0,0-3.79,19.74-26.92,28.51-4.73,1.8-11.18,10.69-18.4,23.5-15.52,27.52-34.56,73.15-47.58,105.56h61.65C274.46,422.1,274.49,422,274.52,421.92Z" class="cls-9"></path><path d="M775.08,733.13l-5.36.64-2.31.27-5,.59-1.55.18-5.51.64-1.78.2-5,.57-1.84.21-4.79.54-.24,0-6.08.67-1,.11-5.15.56-1.33.14-4.49.48-2.29.25-3.43.36-1,.1-4.41.46-1.46.15-3.79.38-1.2.12-3.82.37-1.43.14-3.4.33-1.4.13-3.22.3-1.65.15-2.79.25-1.93.17-2.3.2-1.71.14-2.39.2-.74.06-3.16.25-.41,0-3.3.26-.85.06-2.68.19-1.72.12-1.65.11-1.44.09-1.8.12-.72,0-2.36.14-.42,0-2.49.13-.62,0-2.15.11-.71,0-1.91.07-.81,0-1.7.06-.51,0-1.84,0h-.91l-1.33,0h-4.32l-1.66,0h-.7l-1.07,0-.64,0-1,0h-.29l-1.27,0-.22,0-1.26-.07h-.12l-1.26-.08-.58,0-.72-.07-.35,0-.87-.09-.29,0-.85-.1-.25,0-.82-.12-.35-.06-.66-.1-.25-.05-.69-.12L623,744l-.59-.13-.3-.06-.54-.13-.2,0-.58-.15-.13,0q-.69-.18-1.32-.39h0l-.64-.22-1-.35c-1-.39-2-.8-2.88-1.21l-.47-.21c-.79-.35-1.59-.7-2.47-1-.72-.28-1.48-.56-2.33-.83-16.35-5.18-44.27-94.11-87.73-10.37s-84.15-12-117.64-41.47q-2.1-1.85-3.87-3.54l-1-1c-.23-.22-.47-.45-.68-.67s-.55-.55-.82-.83l-.75-.77c-.25-.25-.47-.5-.71-.75s-.49-.52-.72-.78l-.61-.69-.68-.77-.5-.61c-.23-.26-.46-.53-.66-.79s-.29-.38-.44-.56l-.6-.78-.42-.58-.5-.7-.4-.61c-.13-.21-.28-.41-.4-.61l-.35-.58-.34-.58-.29-.54-.29-.56c-.09-.17-.16-.33-.23-.5s-.18-.37-.26-.55-.12-.32-.18-.48a5.38,5.38,0,0,1-.2-.51c-.06-.16-.1-.31-.15-.46s-.11-.32-.15-.48-.07-.29-.11-.44-.07-.3-.1-.45,0-.28-.06-.42-.05-.28-.07-.42,0-.27,0-.4l0-.39c0-.13,0-.25,0-.37s0-.25,0-.37,0-.23,0-.35,0-.24.05-.35.05-.22.07-.33.05-.22.08-.33l.1-.3c0-.1.07-.21.11-.31s.09-.19.13-.28.09-.2.13-.29l.16-.27.16-.26c.05-.08.12-.16.18-.25l.17-.24.2-.23c.07-.07.13-.15.2-.23l.21-.2c.07-.07.14-.15.22-.22l.23-.19.23-.19.23-.18.25-.18.24-.15.26-.17.24-.13.28-.16.25-.12.26-.13h0a5.48,5.48,0,0,1,.56-.23l.42-.18.68-.22.34-.1.77-.18.27-.07.86-.13.21,0,.86-.07h1.29l.79,0,.29,0,.91.11.17,0a23.88,23.88,0,0,0,3.93.3c.58,0,1.13,0,1.64-.1a13.5,13.5,0,0,0,1.43-.27l.21,0c.27-.08.5-.19.75-.29s.34-.11.49-.18.37-.23.55-.34a5.6,5.6,0,0,0,.48-.3,3.59,3.59,0,0,0,.4-.38c.14-.14.3-.26.43-.41s.2-.31.3-.46a4.13,4.13,0,0,0,.32-.49c.09-.17.14-.36.22-.55s.15-.35.21-.55.07-.37.11-.55.1-.45.13-.69,0-.39,0-.58,0-.52,0-.8,0-.45-.05-.67,0-.55-.07-.85-.1-.55-.14-.82-.09-.54-.15-.82-.14-.56-.22-.84-.14-.61-.23-.93-.21-.65-.32-1-.19-.6-.3-.92-.22-.57-.33-.85-.28-.76-.44-1.15c-.08-.21-.18-.43-.27-.64-.21-.48-.41-1-.64-1.47-.14-.3-.29-.61-.44-.91s-.4-.86-.62-1.3-.36-.7-.54-1-.42-.84-.65-1.26-.42-.77-.63-1.15-.45-.83-.69-1.25l-.61-1-.84-1.44-.62-1-.94-1.54-.75-1.17-.93-1.48c-.3-.46-.62-.93-.92-1.4l-.86-1.31-1-1.47c-.3-.44-.58-.87-.89-1.31l-.82-1.18c-.38-.56-.76-1.11-1.16-1.67l-1.07-1.5-1-1.39-1-1.38-1.15-1.58-.71-.95-1.51-2-.79-1-1.51-2-1-1.32c-.44-.58-.88-1.16-1.34-1.74s-.87-1.12-1.31-1.67l-1.11-1.43-1.06-1.33c-.47-.6-.94-1.2-1.42-1.79l-1.11-1.38-1.41-1.76-1.26-1.55-1.31-1.6c-.5-.63-1-1.25-1.53-1.87l-1.06-1.29-1.2-1.43c-.48-.59-1-1.17-1.45-1.75l-.52-.62-2.14-2.55-.38-.45L363.65,576l-1.11-1.3L361,572.89l-1.41-1.64-1.28-1.48-1-1.19-1.68-1.93c-.2-.23-.4-.47-.61-.7l-2.06-2.36L351.52,562l-1.3-1.48-1.5-1.7c-.39-.43-.77-.87-1.15-1.3l-1.21-1.35-1.44-1.62-.54-.6c-1.56-1.74-3.11-3.47-4.64-5.15l-.89-1L337.2,546c-.32-.36-.64-.71-1-1.06l-1.49-1.64-.82-.9-4-4.35c-.36-.38-.7-.76-1.05-1.14l-1.28-1.38-.68-.73-1.55-1.68-.66-.7c-1.24-1.33-2.44-2.63-3.6-3.86l-1.92-2.05,0,0-1.26-1.34-.67-.71L314,521l-.26-.27-1.31-1.38-.27-.28-1.33-1.4-.14-.14-1.21-1.27-.13-.14-1-1a3,3,0,0,0-.24-.26h0a15.09,15.09,0,0,0-10.27-4.61c-.47,0-.91-.06-1.37-.09s-1-.05-1.45-.09l-1.32-.14c-.46-.05-.93-.09-1.37-.15l-1.27-.2c-.43-.07-.87-.13-1.29-.21l-1.09-.23-1.34-.28-.91-.25c-.46-.13-.93-.24-1.38-.38s-.67-.22-1-.34-.78-.25-1.16-.39-.6-.24-.9-.36-.78-.3-1.14-.47c-.2-.08-.37-.18-.56-.27-.46-.21-.92-.43-1.36-.66l0,0a29.59,29.59,0,0,1-2.63-1.59c-.27-.18-.55-.35-.81-.54l-.83-.65c-.24-.19-.49-.37-.73-.57s-.55-.49-.82-.74-.43-.37-.63-.57-.46-.48-.69-.72-.44-.44-.65-.67-.42-.51-.63-.77-.4-.47-.59-.71-.4-.56-.6-.84-.35-.48-.52-.73-.34-.55-.51-.82-.34-.54-.5-.82-.3-.56-.45-.84-.32-.58-.46-.88-.27-.6-.41-.9-.28-.6-.4-.9-.24-.63-.36-.94-.24-.62-.35-.93-.21-.66-.31-1-.21-.64-.31-1-.17-.64-.25-1-.19-.69-.27-1.05-.13-.65-.2-1-.16-.73-.23-1.1-.11-.71-.17-1.06-.12-.72-.17-1.08-.08-.74-.12-1.1-.09-.73-.13-1.1-.05-.73-.08-1.09-.07-.78-.09-1.18,0-.74,0-1.11,0-.79,0-1.2,0-.79,0-1.18,0-.79,0-1.19,0-.81,0-1.21,0-.8,0-1.21,0-.83.07-1.25.05-.81.08-1.21.07-.83.11-1.24.07-.85.11-1.28.1-.81.14-1.21.1-.9.16-1.35.11-.82.17-1.22.12-.92.19-1.38l.21-1.25c.07-.46.14-.92.22-1.39l.24-1.3c.09-.45.17-.91.26-1.37s.19-.91.28-1.36.18-.9.28-1.35.21-.93.31-1.4.2-.89.31-1.34.22-.9.33-1.35.22-.94.34-1.42.23-.89.35-1.33l.38-1.46.37-1.33c.14-.5.27-1,.42-1.49s.27-.94.41-1.41l.42-1.43c.15-.49.3-1,.46-1.46s.28-.93.43-1.4.31-1,.47-1.45.3-.95.46-1.43l.49-1.45.48-1.44c.16-.46.33-.92.49-1.37s.35-1,.53-1.54l.48-1.32c.2-.53.38-1.06.58-1.59.14-.36.27-.73.41-1.1H212.77c-7.62,19-13.18,33.4-14.77,37-5.59,12.76-7.18,103.26,8,125.4S428.39,889.81,482.58,895.49c41.36,4.34,33.25-13,101.84-57,67.79-43.5,169.07-81.61,193-105.62l-.22,0h0Z" class="cls-10"></path><path d="M308.36,515.13a3,3,0,0,0-.24-.26h0A3,3,0,0,1,308.36,515.13Z" class="cls-9"></path><path d="M406.28,656.89c-.51.06-1.06.09-1.64.1C405.22,657,405.77,657,406.28,656.89Z" class="cls-9"></path><path d="M400.3,683.79q1.77,1.69,3.87,3.54Q402.07,685.49,400.3,683.79Z" class="cls-9"></path><path d="M380.09,283.91c0-.32.07-.64.1-1a.15.15,0,0,1,.18-.13c1.38.2,2.74.38,4.08.55l1.15.14,2.81.33,1.53.16c.77.09,1.55.17,2.31.24l1.58.15,2.14.19,1.54.11,2.06.15,1.6.09,1.88.11,1.51.06,1.86.08,1.45,0,1.8,0h3.15l1.44,0,1.59,0c.46,0,.92,0,1.37,0l1.55-.05,1.32-.06,1.5-.07,1.31-.09,1.39-.09,1.25-.11c.46,0,.92-.07,1.37-.12s.76-.08,1.14-.12l1.36-.14,1.11-.14,1.37-.17c-1.63-10.86-34-134-43.86-171.52a39.59,39.59,0,0,0-30.28,24.17L305.67,264.62c29.87,9.72,54.41,15.32,74.54,18.19Z" class="cls-11"></path><path d="M397.51,284.7l2.06.15Z" class="cls-11"></path><path d="M431.91,284.21a.89.89,0,0,0,0-.15l-1.37.17,1.22-.15A.16.16,0,0,1,431.91,284.21Z" class="cls-11"></path><path d="M412.82,285.29h0Z" class="cls-11"></path><path d="M417.22,285.22l1.55-.05Z" class="cls-11"></path><path d="M420.09,285.11l1.5-.07Z" class="cls-11"></path><path d="M422.9,285l1.39-.09Z" class="cls-11"></path><path d="M414.26,285.27l1.59,0Z" class="cls-11"></path><path d="M407.87,285.22l1.8,0Z" class="cls-11"></path><path d="M401.17,284.94l1.88.11Z" class="cls-11"></path><path d="M404.56,285.11l1.86.08Z" class="cls-11"></path><path d="M393.83,284.4l2.14.19Z" class="cls-11"></path><path d="M425.54,284.75c.46,0,.92-.07,1.37-.12C426.46,284.68,426,284.71,425.54,284.75Z" class="cls-11"></path><path d="M385.6,283.52l2.81.33Z" class="cls-11"></path><path d="M389.94,284c.77.09,1.55.17,2.31.24C391.49,284.18,390.71,284.1,389.94,284Z" class="cls-11"></path><path d="M380.37,282.83c1.38.2,2.74.38,4.08.55C383.11,283.21,381.75,283,380.37,282.83Z" class="cls-11"></path><path d="M428.05,284.51l1.36-.14Z" class="cls-11"></path><path d="M431.89,284.06h0c26.77-3.67,34.49-14.25,34.49-14.25,117.06-85,141.73-4.83,208,10.45C655,247.73,607.16,184.07,585,174.1c-19.57-8.8-119.52-34.7-174.6-58.78A39.38,39.38,0,0,0,388,112.54c9.89,37.54,42.23,160.66,43.86,171.52Z" class="cls-12"></path><path d="M431.89,284.06h0a.89.89,0,0,1,0,.15Z" class="cls-12"></path><path d="M652,422.19s8,12.5,19.59,28.82a112.46,112.46,0,0,1,19.3,81.06c-1.93,13.51,0,24.14,12.68,19.72,13.13-4.58,26.31-26.77,36.87-49.94-9.51-36.17-18-66.09-22-79.66Z" class="cls-10"></path><path d="M624.88,341c-25.69-13,27.11,81.15,27.11,81.15h66.39c-.87-2.93-1.55-5.13-2-6.43-5.69-17.51-3.45-38.9-2-59.55h0S656.32,356.94,624.88,341Z" class="cls-7"></path></svg>