<svg xmlns="http://www.w3.org/2000/svg" xmlns:xlink="http://www.w3.org/1999/xlink" fill="none" version="1.1" width="1031" height="281" viewBox="0 0 1031 281"><defs><clipPath id="master_svg0_430_44102"><rect x="0" y="0" width="1031" height="281" rx="0"/></clipPath><linearGradient x1="0.5" y1="0" x2="0.5" y2="1" id="master_svg1_376_7445"><stop offset="0%" stop-color="#101A32" stop-opacity="1"/><stop offset="100%" stop-color="#16929C" stop-opacity="1"/><stop offset="100%" stop-color="#97FF8A" stop-opacity="0.10000000149011612"/></linearGradient><filter id="master_svg2_430_44105" filterUnits="objectBoundingBox" color-interpolation-filters="sRGB" x="-224" y="-224" width="675.1084899902344" height="550.7777786254883"><feFlood flood-opacity="0" result="BackgroundImageFix"/><feBlend mode="normal" in="SourceGraphic" in2="BackgroundImageFix" result="shape"/><feGaussianBlur stdDeviation="56" result="effect1_foregroundBlur"/></filter><filter id="master_svg3_430_44107" filterUnits="objectBoundingBox" color-interpolation-filters="sRGB" x="-180" y="-180" width="893.0609741210938" height="544.3754272460938"><feFlood flood-opacity="0" result="BackgroundImageFix"/><feBlend mode="normal" in="SourceGraphic" in2="BackgroundImageFix" result="shape"/><feGaussianBlur stdDeviation="45" result="effect1_foregroundBlur"/></filter></defs><g clip-path="url(#master_svg0_430_44102)"><g><rect x="0" y="0" width="1031" height="281" rx="0" fill="url(#master_svg1_376_7445)" fill-opacity="1"/></g><g filter="url(#master_svg2_430_44105)"><path d="M781.1132,179Q769.69812,208.1719,779.59822,224.072Q785.3092,233.2442,798.1132,238C821.8351,246.811,869.9036,243.678,914.92,240.7446C936.322,239.34980000000002,957.035,238,974.113,238C1027.113,238,994.113,189,963.113,189C932.113,189,950.113,161,898.113,161C846.1132,161,859.1132,141,829.1132,141Q799.1132,141,781.1132,179Z" fill="#053D6A" fill-opacity="1"/></g><g filter="url(#master_svg3_430_44107)"><path d="M210.4999978466797,3Q191.0199678466797,152.383,246.49996784667968,173C291.6932678466797,189.795,439.0916678466797,187.854,537.6076678466798,186.557C560.0316678466797,186.262,579.9226678466797,186,595.4996678466797,186C679.5126678466797,186,774.1396678466797,102,724.9996678466797,102C675.8606678466797,102,667.0506678466797,20.5,584.6236678466796,20.5C502.19566784667967,20.5,402.3316678466797,3,354.7776678466797,3L210.4999978466797,3Z" fill="#053D6A" fill-opacity="1"/></g></g></svg>