<svg xmlns="http://www.w3.org/2000/svg" xmlns:xlink="http://www.w3.org/1999/xlink" fill="none" version="1.1" width="284.0000305175781" height="284" viewBox="0 0 284.0000305175781 284"><defs><linearGradient x1="0.8546710014343262" y1="0.8034360408782959" x2="0.8333213329315186" y2="0" id="master_svg0_132_03714"><stop offset="0%" stop-color="#FFB74D" stop-opacity="1"/><stop offset="100.00011920928955%" stop-color="#EA5F2A" stop-opacity="1"/></linearGradient><linearGradient x1="0.5" y1="0.6703797578811646" x2="0.29553526639938354" y2="-0.4002380669116974" id="master_svg1_132_13164"><stop offset="0%" stop-color="#FFB74D" stop-opacity="1"/><stop offset="100.00028610229492%" stop-color="#CB3800" stop-opacity="1"/></linearGradient><linearGradient x1="0.9371286034584045" y1="0" x2="0.09386466443538666" y2="0.9283419847488403" id="master_svg2_132_13158"><stop offset="0%" stop-color="#FF500F" stop-opacity="1"/><stop offset="99.9998927116394%" stop-color="#D9773B" stop-opacity="1"/></linearGradient><linearGradient x1="0.8452901840209961" y1="0.8194817900657654" x2="0.8502801060676575" y2="0.059159498661756516" id="master_svg3_132_14394"><stop offset="0%" stop-color="#00B2ED" stop-opacity="1"/><stop offset="100.00021457672119%" stop-color="#002FED" stop-opacity="1"/></linearGradient><linearGradient x1="0.5" y1="0" x2="0.5" y2="1" id="master_svg4_132_18996"><stop offset="0%" stop-color="#143AD4" stop-opacity="1"/><stop offset="69.9999988079071%" stop-color="#00B2ED" stop-opacity="1"/></linearGradient><linearGradient x1="0.3482012450695038" y1="1.2638264894485474" x2="0.448713093996048" y2="0.15451215207576752" id="master_svg5_132_22620"><stop offset="0%" stop-color="#0267E4" stop-opacity="1"/><stop offset="100%" stop-color="#3054E7" stop-opacity="1"/></linearGradient></defs><g><g><g><path d="M113.743,60.721448861694334L57.7072,132.42234886169433C54.9276,135.97934886169435,54.9144,140.92834886169433,57.675,144.49934886169433L61.3262,149.22234886169434C65.3681,154.45034886169432,73.3605,154.44934886169435,77.4007,149.21934886169433L106.601,111.42234886169433L106.601,180.64534886169434C106.601,199.51334886169434,82.3918,207.76434886169434,70.5352,192.93834886169432L27.9967,139.74534886169434L122.896,21.075048861694334C126.346,16.762048861694335,125.589,10.513938861694337,121.207,7.119458861694336L117.239,4.046338861694336C112.857,0.6518588616943359,106.508,1.396456861694336,103.059,5.709438861694336L3.24421,130.52534886169434Q4.46644e-13,134.58234886169433,4.46644e-13,139.74534886169434Q-0.00000120375,144.90734886169435,3.24421,148.96434886169433L107.05,278.7713488616943Q109.936,282.38034886169436,114.43,283.5403488616943Q118.509,284.5933488616943,122.504,283.23234886169433Q126.5,281.8703488616943,129.043,278.5603488616943Q131.845,274.91234886169434,131.845,270.32034886169436L131.845,66.78024886169433C131.845,57.290848861694336,119.622,53.19954886169434,113.743,60.721448861694334Z" fill-rule="evenodd" fill="url(#master_svg0_132_03714)" fill-opacity="1"/></g><g><path d="M106.60069274902344,237.87509727478027C106.60069274902344,237.98309727478028,106.60128806002344,238.09109727478028,106.60247865902343,238.19909727478029L107.05015274902344,278.77109727478023Q109.93642274902344,282.38009727478027,114.43039274902344,283.54109727478027Q118.50929274902344,284.59409727478027,122.50439274902344,283.23209727478024Q126.49959274902344,281.8700972747803,129.04289274902345,278.5600972747803Q131.84509274902342,274.9130972747803,131.84509274902342,270.32009727478027L131.84509274902342,78.87509727478027L106.60069274902344,111.42229727478028L106.60069274902344,237.87509727478027Z" fill="url(#master_svg1_132_13164)" fill-opacity="1"/></g><g><path d="M11.93413257598877,119.65935601425171L27.99673257598877,139.7453560142517L122.89613257598877,21.075056014251707C126.34513257598877,16.76205601425171,125.58913257598877,10.51394601425171,121.20713257598877,7.119476014251709L117.23913257598878,4.046346014251709C112.85713257598877,0.651866014251709,106.50813257598877,1.396464014251709,103.05913257598877,5.709446014251709L11.93413257598877,119.65935601425171Z" fill="url(#master_svg2_132_13158)" fill-opacity="1"/></g></g><g transform="matrix(-1,0,0,-1,568,564.165283203125)"><g><path d="M397.74296948242187,340.8867416015625L341.7071694824219,412.5876416015625C338.92756948242186,416.1446416015625,338.9143694824219,421.09364160156247,341.6749694824219,424.6646416015625L345.32616948242185,429.3876416015625C349.3680694824219,434.6156416015625,357.3604694824219,434.61464160156254,361.4006694824219,429.3846416015625L390.6009694824219,391.5876416015625L390.6009694824219,460.8106416015625C390.6009694824219,479.6786416015625,366.39176948242186,487.9296416015625,354.5351694824219,473.10364160156246L311.99666948242185,419.9106416015625L406.8959694824219,301.2403416015625C410.3459694824219,296.9273416015625,409.5889694824219,290.6792316015625,405.20696948242187,287.2847516015625L401.2389694824219,284.2116316015625C396.85696948242185,280.8171516015625,390.50796948242186,281.5617496015625,387.05896948242184,285.8747316015625L287.2441794824219,410.6906416015625Q283.99996948242233,414.74764160156246,283.99996948242233,419.9106416015625Q283.9999682786719,425.0726416015625,287.2441794824219,429.1296416015625L391.0499694824219,558.9366416015625Q393.9359694824219,562.5456416015625,398.4299694824219,563.7056416015625Q402.5089694824219,564.7586416015624,406.5039694824219,563.3976416015626Q410.4999694824219,562.0356416015625,413.0429694824219,558.7256416015625Q415.8449694824219,555.0776416015625,415.8449694824219,550.4856416015625L415.8449694824219,346.94554160156247C415.8449694824219,337.4561416015625,403.6219694824219,333.3648416015625,397.74296948242187,340.8867416015625Z" fill-rule="evenodd" fill="url(#master_svg3_132_14394)" fill-opacity="1"/></g><g><path d="M390.6006622314453,518.0403900146484C390.6006622314453,518.1483900146484,390.6012575424453,518.2563900146484,390.60244814144534,518.3643900146485L391.0501222314453,558.9363900146484Q393.9363922314453,562.5453900146484,398.4303622314453,563.7063900146484Q402.5092622314453,564.7593900146485,406.5043622314453,563.3973900146484Q410.49956223144534,562.0353900146484,413.0428622314453,558.7253900146484Q415.8450622314453,555.0783900146484,415.8450622314453,550.4853900146484L415.8450622314453,359.04039001464844L390.6006622314453,391.5875900146484L390.6006622314453,518.0403900146484Z" fill="url(#master_svg4_132_18996)" fill-opacity="1"/></g><g><path d="M295.93410205841064,399.8246487541199L311.9967020584106,419.91064875411985L406.89610205841063,301.24034875411985C410.34510205841065,296.92734875411986,409.5891020584106,290.67923875411987,405.20710205841067,287.28476875411985L401.23910205841065,284.21163875411986C396.85710205841065,280.8171587541199,390.50810205841066,281.56175675411987,387.05910205841064,285.87473875411985L295.93410205841064,399.8246487541199Z" fill="url(#master_svg5_132_22620)" fill-opacity="1"/></g></g></g></svg>