<svg xmlns="http://www.w3.org/2000/svg" xmlns:xlink="http://www.w3.org/1999/xlink" fill="none" version="1.1" width="434" height="134.00003051757812" viewBox="0 0 434 134.00003051757812"><defs><linearGradient x1="0.8546710014343262" y1="0.8034360408782959" x2="0.8333213329315186" y2="0" id="master_svg0_150_07109"><stop offset="0%" stop-color="#FFB74D" stop-opacity="1"/><stop offset="100.00011920928955%" stop-color="#EA5F2A" stop-opacity="1"/></linearGradient><linearGradient x1="0.5" y1="0.6703797578811646" x2="0.29553526639938354" y2="-0.4002380669116974" id="master_svg1_150_07113"><stop offset="0%" stop-color="#FFB74D" stop-opacity="1"/><stop offset="100.00028610229492%" stop-color="#CB3800" stop-opacity="1"/></linearGradient><linearGradient x1="0.9371286034584045" y1="0" x2="0.09386466443538666" y2="0.9283419847488403" id="master_svg2_150_07105"><stop offset="0%" stop-color="#FF500F" stop-opacity="1"/><stop offset="99.9998927116394%" stop-color="#D9773B" stop-opacity="1"/></linearGradient><linearGradient x1="0.8452901840209961" y1="0.8194817900657654" x2="0.8502801060676575" y2="0.059159498661756516" id="master_svg3_150_07100"><stop offset="0%" stop-color="#00B2ED" stop-opacity="1"/><stop offset="100.00021457672119%" stop-color="#002FED" stop-opacity="1"/></linearGradient><linearGradient x1="0.5" y1="0" x2="0.5" y2="1" id="master_svg4_150_07096"><stop offset="0%" stop-color="#143AD4" stop-opacity="1"/><stop offset="69.9999988079071%" stop-color="#00B2ED" stop-opacity="1"/></linearGradient><linearGradient x1="0.3482012450695038" y1="1.2638264894485474" x2="0.448713093996048" y2="0.15451215207576752" id="master_svg5_150_07092"><stop offset="0%" stop-color="#0267E4" stop-opacity="1"/><stop offset="100%" stop-color="#3054E7" stop-opacity="1"/></linearGradient></defs><g><g><g><g><path d="M46.057969482421875,24.5879093875885L23.367369482421875,53.6219093875885C22.241769482421876,55.0620093875885,22.236469482421874,57.0659093875885,23.354269482421874,58.5119093875885L24.832769482421874,60.424409387588504C26.469469482421875,62.5415093875885,29.705769482421875,62.5410093875885,31.341769482421874,60.4234093875885L43.16576948242187,45.1182093875885L43.16576948242187,73.1488093875885C43.16576948242187,80.7888093875885,33.36286948242188,84.1301093875885,28.561769482421877,78.1264093875885L11.336669482421875,56.5869093875885L49.76436948242188,8.5339393875885C51.16106948242187,6.787479387588501,50.854669482421876,4.257429387588501,49.08016948242187,2.882899387588501L47.47356948242187,1.638500387588501C45.699069482421876,0.26397538758850103,43.12826948242188,0.565484387588501,41.73166948242187,2.311939387588501L1.313649482421875,52.8537093875885Q-0.000030517577944141,54.4964093875885,-0.000030517577944141,56.5869093875885Q-0.000031005011125,58.6773093875885,1.313649482421875,60.3201093875885L43.347769482421874,112.8824093875885Q44.516469482421876,114.3444093875885,46.336269482421876,114.8144093875885Q47.98786948242188,115.2404093875885,49.605669482421874,114.6894093875885Q51.22336948242187,114.1374093875885,52.25326948242188,112.7974093875885Q53.38796948242187,111.3204093875885,53.38796948242187,109.4604093875885L53.38796948242187,27.041309387588502C53.38796948242187,23.1988093875885,48.43836948242188,21.5421093875885,46.057969482421875,24.5879093875885Z" fill-rule="evenodd" fill="url(#master_svg0_150_07109)" fill-opacity="1"/></g><g><path d="M43.16575622558594,96.32277543678283C43.16575622558594,96.36647543678284,43.165997284585934,96.41017543678284,43.16647939358594,96.45387543678284L43.34775622558594,112.88267543678283Q44.51649622558594,114.34417543678283,46.336236225585935,114.81407543678284Q47.98788622558594,115.24047543678283,49.605646225585936,114.68907543678284Q51.22340622558594,114.13767543678284,52.25328622558594,112.79727543678284Q53.38795622558594,111.32037543678284,53.38795622558594,109.46057543678283L53.38795622558594,31.938875436782837L43.16575622558594,45.118175436782835L43.16575622558594,96.32277543678283Z" fill="url(#master_svg1_150_07113)" fill-opacity="1"/></g><g><path d="M4.832470417022705,48.45351654014588L11.336690417022705,56.58691654014587L49.76447041702271,8.533946540145873C51.16107041702271,6.787486540145874,50.8546704170227,4.257436540145874,49.08017041702271,2.882906540145874L47.47357041702271,1.638508540145874C45.6990704170227,0.2639825401458741,43.128270417022705,0.565491540145874,41.731670417022706,2.311946540145874L4.832470417022705,48.45351654014588Z" fill="url(#master_svg2_150_07105)" fill-opacity="1"/></g></g><g transform="matrix(-1,0,0,-1,229.9999542236328,228.44723510742188)"><g><path d="M161.05794659423827,138.03511755371093L138.36734659423828,167.06911755371095C137.2417465942383,168.50921755371093,137.2364465942383,170.51311755371094,138.35424659423828,171.95911755371094L139.83274659423827,173.87161755371093C141.4694465942383,175.98871755371093,144.7057465942383,175.98821755371094,146.3417465942383,173.87061755371093L158.16574659423827,158.56541755371094L158.16574659423827,186.59601755371094C158.16574659423827,194.23601755371095,148.36284659423828,197.57731755371094,143.5617465942383,191.57361755371093L126.33664659423829,170.03411755371093L164.76434659423828,121.98114755371094C166.1610465942383,120.23468755371094,165.8546465942383,117.70463755371094,164.08014659423827,116.33010755371093L162.4735465942383,115.08570855371094C160.69904659423827,113.71118355371094,158.12824659423828,114.01269255371093,156.73164659423827,115.75914755371093L116.31362659423829,166.30091755371095Q114.99994659423847,167.94361755371094,114.99994659423847,170.03411755371093Q114.99994610680528,172.12451755371094,116.31362659423829,173.76731755371094L158.3477465942383,226.32961755371093Q159.5164465942383,227.79161755371092,161.33624659423828,228.26161755371095Q162.98784659423828,228.68761755371094,164.6056465942383,228.13661755371095Q166.22334659423828,227.58461755371093,167.25324659423828,226.24461755371095Q168.3879465942383,224.76761755371092,168.3879465942383,222.90761755371093L168.3879465942383,140.48851755371095C168.3879465942383,136.64601755371095,163.43834659423828,134.98931755371095,161.05794659423827,138.03511755371093Z" fill-rule="evenodd" fill="url(#master_svg3_150_07100)" fill-opacity="1"/></g><g><path d="M158.16573333740234,209.76998360290526C158.16573333740234,209.81368360290526,158.16597439640233,209.85738360290526,158.16645650540235,209.90108360290526L158.34773333740233,226.32988360290528Q159.51647333740235,227.79138360290528,161.33621333740234,228.26128360290528Q162.98786333740233,228.68768360290528,164.60562333740233,228.13628360290528Q166.22338333740234,227.58488360290528,167.25326333740233,226.2444836029053Q168.38793333740233,224.7675836029053,168.38793333740233,222.90778360290528L168.38793333740233,145.38608360290527L158.16573333740234,158.56538360290529L158.16573333740234,209.76998360290526Z" fill="url(#master_svg4_150_07096)" fill-opacity="1"/></g><g><path d="M119.83244752883911,161.9007247062683L126.33666752883911,170.0341247062683L164.76444752883913,121.98115470626831C166.1610475288391,120.23469470626831,165.8546475288391,117.70464470626831,164.08014752883912,116.3301147062683L162.4735475288391,115.08571670626831C160.69904752883912,113.71119070626831,158.1282475288391,114.01269970626831,156.73164752883912,115.7591547062683L119.83244752883911,161.9007247062683Z" fill="url(#master_svg5_150_07092)" fill-opacity="1"/></g></g></g><g><path d="M136.5625,114.44033051757812C144.2344,114.44033051757812,149.1875,110.54973051757813,151.4688,107.08103051757813L151.8438,107.08103051757813L150.75,113.40913051757812L159.5625,113.40913051757812L164.6719,82.62783051757813C166.9062,69.14353051757813,156.7812,66.45603051757813,149.4219,66.45603051757813C141.0312,66.45603051757813,132.6406,69.83103051757813,128.29688,78.28413051757812L136.3906,80.22163051757812C138.3125,76.92473051757813,142.4531,73.75283051757813,148.4844,73.75283051757813C154.2812,73.75283051757813,156.5781,76.83103051757813,155.7344,82.06533051757813L155.7344,82.26853051757813C155.1562,85.50283051757813,151.7188,85.47163051757812,143.2969,86.47163051757812C134.3281,87.48723051757813,124.96875,89.81533051757813,123.20312,100.31533051757812C121.71875,109.40913051757812,127.75,114.44033051757812,136.5625,114.44033051757812ZM139.6406,107.20603051757813C134.5469,107.20603051757813,131.3125,104.90913051757812,132.0312,100.44033051757812C132.7969,95.61223051757813,137.4688,93.89353051757813,142.7812,93.19033051757813C145.7344,92.79973051757813,152.7969,92.01853051757813,154.3125,90.72163051757812L153.3125,96.69033051757812C152.4062,102.19033051757812,147.1562,107.20603051757813,139.6406,107.20603051757813ZM186.2344,51.59663051757812L177.2031,51.59663051757812L166.9531,113.40913051757812L175.9688,113.40913051757812L186.2344,51.59663051757812ZM203.4375,114.34663051757812C216.2969,114.34663051757812,226.219,105.00283051757812,228.547,90.84663051757812C230.906,76.20603051757813,223.875,66.45603051757813,210.6406,66.45603051757813C197.7344,66.45603051757813,187.7969,75.81533051757813,185.5312,90.04973051757813C183.1562,104.59663051757812,190.1562,114.34663051757812,203.4375,114.34663051757812ZM203.9531,106.78413051757812C195.625,106.78413051757812,193.0156,99.50283051757812,194.4375,90.81533051757813C195.8906,81.72163051757812,201.4062,74.00283051757813,210.1406,74.00283051757813C218.4062,74.00283051757813,221,81.33103051757813,219.6406,90.04973051757813C218.1406,99.14353051757813,212.6094,106.78413051757812,203.9531,106.78413051757812ZM277.828,67.04973051757813L267.781,67.04973051757813L250.125,102.73723051757813L249.641,102.73723051757813L243.844,67.04973051757813L234.51600000000002,67.04973051757813L243.64100000000002,113.40913051757812L253.297,113.40913051757812L277.828,67.04973051757813ZM287.562,114.44033051757812C295.23400000000004,114.44033051757812,300.188,110.54973051757813,302.469,107.08103051757813L302.844,107.08103051757813L301.75,113.40913051757812L310.562,113.40913051757812L315.672,82.62783051757813C317.906,69.14353051757813,307.781,66.45603051757813,300.422,66.45603051757813C292.031,66.45603051757813,283.64099999999996,69.83103051757813,279.297,78.28413051757812L287.39099999999996,80.22163051757812C289.312,76.92473051757813,293.453,73.75283051757813,299.48400000000004,73.75283051757813C305.281,73.75283051757813,307.578,76.83103051757813,306.73400000000004,82.06533051757813L306.73400000000004,82.26853051757813C306.156,85.50283051757813,302.719,85.47163051757812,294.297,86.47163051757812C285.328,87.48723051757813,275.969,89.81533051757813,274.203,100.31533051757812C272.719,109.40913051757812,278.75,114.44033051757812,287.562,114.44033051757812ZM290.64099999999996,107.20603051757813C285.547,107.20603051757813,282.312,104.90913051757812,283.031,100.44033051757812C283.797,95.61223051757813,288.469,93.89353051757813,293.781,93.19033051757813C296.73400000000004,92.79973051757813,303.797,92.01853051757813,305.312,90.72163051757812L304.312,96.69033051757812C303.406,102.19033051757812,298.156,107.20603051757813,290.64099999999996,107.20603051757813ZM324.64099999999996,113.98723051757813C327.875,113.98723051757813,330.719,111.29973051757813,330.85900000000004,107.95603051757813C331.01599999999996,104.72163051757812,328.26599999999996,102.03413051757812,325.01599999999996,102.03413051757812C321.719,102.03413051757812,318.828,104.62783051757812,318.797,107.95603051757813C318.73400000000004,111.29973051757813,321.23400000000004,113.98723051757813,324.64099999999996,113.98723051757813ZM372.703,51.59663051757812L365.5,95.25283051757812C364.281,102.37783051757812,360,106.34663051757812,353.969,106.34663051757812C348.625,106.34663051757812,345.547,103.26853051757813,346.26599999999996,97.95603051757813L337.219,97.95603051757813C335.547,108.37783051757812,342.562,114.26853051757813,353.203,114.26853051757813C364.64099999999996,114.26853051757813,372.73400000000004,107.50283051757812,374.703,95.61223051757813L382,51.59663051757812L372.703,51.59663051757812ZM422.375,68.20603051757813L431.359,68.20603051757813C432.625,57.940330517578126,425.234,50.752830517578126,412.688,50.752830517578126C400.281,50.752830517578126,389.656,57.815330517578126,387.812,68.50283051757813C386.422,77.11223051757813,391.734,82.11223051757813,401.188,84.83103051757813L408.156,86.83103051757813C414.516,88.58103051757813,419.297,90.78413051757812,418.328,96.23723051757813C417.359,102.25283051757812,410.922,106.26853051757813,402.984,106.26853051757813C395.812,106.26853051757813,390.312,103.06533051757812,390.953,96.33103051757813L381.562,96.33103051757813C380.297,107.53413051757812,387.875,114.44033051757812,401.719,114.44033051757812C416.234,114.44033051757812,425.781,106.79973051757813,427.562,96.33103051757813C429.406,85.19033051757813,420.188,80.87783051757813,412.703,78.95603051757813L406.922,77.37783051757813C402.328,76.17473051757813,396.234,73.87783051757813,397.25,67.95603051757813C398.109,62.674730517578126,403.531,58.815330517578126,411.141,58.815330517578126C418.234,58.815330517578126,422.422,62.112230517578126,422.375,68.20603051757813Z" fill="#333333" fill-opacity="1"/></g></g></svg>