<svg xmlns="http://www.w3.org/2000/svg" xmlns:xlink="http://www.w3.org/1999/xlink" fill="none" version="1.1" width="163.84765625" height="160.80184936523438" viewBox="0 0 163.84765625 160.80184936523438"><g><g><g><path d="M163.84764375,134.5127681152344L154.41404375000002,133.8877681152344L154.19924375,133.86826811523437L144.04294375,133.22376811523438L131.32814375,132.40336811523437L125.09764375,143.4971681152344L120.09764375,152.42296811523437L115.37104375,160.80206811523436L73.96484375,84.41516811523438L115.42964375,61.915128115234374L122.42184375,58.126068115234375L163.84764375,134.5127681152344Z" fill="#2EBDFF" fill-opacity="1"/></g><g><path d="M163.8476875,134.5127681152344L154.4140875,133.8877681152344L115.4296875,61.915128115234374L122.4218775,58.126068115234375L163.8476875,134.5127681152344Z" fill="#249CFF" fill-opacity="1"/></g><g><path d="M107.6758125,66.11434686523438L144.0430125,133.22368686523436L154.1992125,133.86828686523438L115.2930125,62.012786865234375L107.6758125,66.11434686523438ZM81.1328125,80.52838686523438L120.0976125,152.40338686523438L125.0976125,143.51668686523436L88.7109325,76.36828686523438L81.1328125,80.52838686523438Z" fill="#4697F9" fill-opacity="1"/></g></g><g><g><path d="M89.8633,84.41516811523438L48.457,160.80206811523436L43.8281,152.6572681152344L43.6914,152.42296811523437L38.7305,143.4971681152344L32.4609,132.40336811523437L19.7461,133.22376811523438L9.58984,133.86826811523437L0,134.5127681152344L41.3672,58.126068115234375L82.8516,80.60656811523438L89.8633,84.41516811523438Z" fill="#FFB74D" fill-opacity="1"/></g><g><path d="M56.15234375,66.11434686523438L19.74604375,133.22368686523436L9.58984375,133.86828686523438L48.53514375,62.012786865234375L56.15234375,66.11434686523438ZM82.69534375,80.52838686523438L43.69144375,152.40338686523438L38.73044375,143.51668686523436L75.07814375,76.36828686523438L82.69534375,80.52838686523438Z" fill="#F69A14" fill-opacity="1"/></g><g><path d="M89.863325,84.41512686523437L48.457035,160.80183686523438L43.828125,152.65733686523436L82.85152500000001,80.60653686523438L89.863325,84.41512686523437Z" fill="#FFA115" fill-opacity="1"/></g></g><g><path d="M141.55402362060545,59.6886Q141.55402362060545,61.1538,141.48202362060547,62.6173Q141.41102362060548,64.0808,141.26702362060547,65.5391Q141.12302362060547,66.9973,140.90802362060546,68.4467Q140.69302362060546,69.8961,140.40802362060546,71.3332Q140.1220236206055,72.7703,139.76602362060547,74.1917Q139.41002362060547,75.613,138.9850236206055,77.0152Q138.55902362060547,78.4174,138.06602362060545,79.797Q137.57202362060548,81.1766,137.01102362060547,82.5304Q136.45102362060547,83.8841,135.8240236206055,85.2087Q135.19802362060545,86.5333,134.50702362060548,87.8255Q133.81702362060548,89.1178,133.06402362060547,90.3746Q132.31002362060548,91.6314,131.4970236206055,92.8497Q130.68302362060547,94.0681,129.81002362060548,95.245Q128.9370236206055,96.4219,128.00802362060546,97.5546Q127.07802362060546,98.6872,126.09402362060547,99.7729Q125.11102362060547,100.859,124.07502362060546,101.895Q123.03902362060546,102.931,121.95322362060547,103.915Q120.86762362060547,104.899,119.73522362060547,105.828Q118.60272362060547,106.758,117.42592362060547,107.631Q116.24922362060546,108.504,115.03102362060547,109.318Q113.81292362060547,110.132,112.55632362060547,110.885Q111.29972362060546,111.638,110.00762362060547,112.329Q108.71562362060547,113.02,107.39122362060547,113.646Q106.06682362060548,114.273,104.71332362060546,114.834Q103.35972362060546,115.394,101.98032362060547,115.888Q100.60092362060547,116.382,99.19902362060547,116.807Q97.79702362060547,117.232,96.37592362060546,117.588Q94.95472362060546,117.944,93.51782362060547,118.23Q92.08092362060547,118.516,90.63172362060547,118.731Q89.18262362060547,118.946,87.72462362060547,119.09Q86.26662362060547,119.233,84.80332362060547,119.305Q83.34002362060548,119.377,81.87502362060548,119.377Q80.40992362060547,119.377,78.94672362060547,119.305Q77.48342362060546,119.233,76.02542362060547,119.09Q74.56742362060547,118.946,73.11822362060548,118.731Q71.66902362060547,118.516,70.23212362060548,118.23Q68.79522362060547,117.944,67.37412362060547,117.588Q65.95292362060547,117.232,64.55102362060546,116.807Q63.14902362060547,116.382,61.76962362060547,115.888Q60.39022362060547,115.394,59.03672362060547,114.834Q57.68312362060547,114.273,56.35882362060547,113.646Q55.034423620605466,113.02,53.74232362060547,112.329Q52.450323620605474,111.638,51.19372362060547,110.885Q49.93702362060547,110.132,48.718923620605466,109.318Q47.50082362060547,108.504,46.32402362060547,107.631Q45.14732362060547,106.758,44.01482362060547,105.828Q42.88232362060547,104.899,41.796823620605466,103.915Q40.711223620605466,102.931,39.67532362060547,101.895Q38.63942362060547,100.859,37.655523620605464,99.7729Q36.67162362060547,98.6872,35.74222362060547,97.5546Q34.81282362060547,96.4219,33.94012362060547,95.245Q33.06732362060547,94.0681,32.25342362060547,92.8497Q31.439493620605468,91.6314,30.686313620605468,90.3746Q29.933123620605468,89.1178,29.242513620605468,87.8255Q28.55189362060547,86.5333,27.92550362060547,85.2087Q27.299113620605468,83.8841,26.73846362060547,82.5304Q26.17782362060547,81.1766,25.68426362060547,79.797Q25.19070362060547,78.4174,24.765423620605468,77.0152Q24.340143620605467,75.613,23.984163620605468,74.1917Q23.62818362060547,72.7703,23.342373620605468,71.3332Q23.05655362060547,69.8961,22.84158662060547,68.4467Q22.62662062060547,66.9973,22.48302062060547,65.5391Q22.33942062060547,64.0808,22.26753462060547,62.6173Q22.19564822060547,61.1538,22.19564822060547,59.6886Q22.19564822060547,58.2233,22.26753462060547,56.7598Q22.33942062060547,55.2963,22.48302062060547,53.8381Q22.62662062060547,52.3798,22.84158662060547,50.9304Q23.05655362060547,49.481,23.342373620605468,48.0439Q23.62818362060547,46.6068,23.984163620605468,45.1854Q24.340143620605467,43.7641,24.765423620605468,42.3619Q25.19070362060547,40.9597,25.68426362060547,39.5801Q26.17782362060547,38.2005,26.73846362060547,36.8467Q27.299113620605468,35.493,27.92550362060547,34.1684Q28.55189362060547,32.8438,29.242513620605468,31.5516Q29.933123620605468,30.2593,30.686313620605468,29.0025Q31.439493620605468,27.7457,32.25342362060547,26.5274Q33.06732362060547,25.309,33.94012362060547,24.1321Q34.81282362060547,22.9552,35.74222362060547,21.8225Q36.67162362060547,20.6899,37.655523620605464,19.6042Q38.63942362060547,18.5185,39.67532362060547,17.4824Q40.711223620605466,16.4463,41.796823620605466,15.4623Q42.88232362060547,14.4782,44.01482362060547,13.5487Q45.14732362060547,12.6191,46.32402362060547,11.7463Q47.50082362060547,10.8734,48.718923620605466,10.0593Q49.93702362060547,9.24527,51.19372362060547,8.49197Q52.450323620605474,7.73867,53.74232362060547,7.04795Q55.034423620605466,6.35722,56.35882362060547,5.73074Q57.68312362060547,5.10426,59.03672362060547,4.54352Q60.39022362060547,3.98279,61.76962362060547,3.48915Q63.14902362060547,2.99552,64.55102362060546,2.57017Q65.95292362060547,2.14482,67.37412362060547,1.78879Q68.79522362060547,1.43276,70.23212362060548,1.1469Q71.66902362060547,0.861038,73.11822362060548,0.646038Q74.56742362060547,0.431038,76.02542362060547,0.287417Q77.48342362060546,0.143795,78.94662362060546,0.0718975Q80.40992362060547,0,81.87502362060548,0Q83.34002362060548,0,84.80332362060547,0.0718975Q86.26662362060547,0.143795,87.72462362060547,0.287417Q89.18262362060547,0.431038,90.63172362060547,0.646038Q92.08092362060547,0.861038,93.51782362060547,1.1469Q94.95472362060546,1.43276,96.37592362060546,1.78879Q97.79702362060547,2.14482,99.19902362060547,2.57017Q100.60092362060547,2.99552,101.98032362060547,3.48915Q103.35972362060546,3.98279,104.71332362060546,4.54352Q106.06682362060548,5.10426,107.39122362060547,5.73074Q108.71562362060547,6.35722,110.00762362060547,7.04795Q111.29972362060546,7.73867,112.55632362060547,8.49197Q113.81292362060547,9.24527,115.03102362060547,10.0593Q116.24922362060546,10.8734,117.42592362060547,11.7463Q118.60272362060547,12.6191,119.73522362060547,13.5487Q120.86762362060547,14.4782,121.95322362060547,15.4623Q123.03902362060546,16.4463,124.07502362060546,17.4824Q125.11102362060547,18.5185,126.09402362060547,19.6042Q127.07802362060546,20.6899,128.00802362060546,21.8225Q128.9370236206055,22.9552,129.81002362060548,24.1321Q130.68302362060547,25.309,131.4970236206055,26.5274Q132.31002362060548,27.7457,133.06402362060547,29.0025Q133.81702362060548,30.2593,134.50702362060548,31.5516Q135.19802362060545,32.8438,135.8240236206055,34.1684Q136.45102362060547,35.493,137.01102362060547,36.8467Q137.57202362060548,38.2005,138.06602362060545,39.5801Q138.55902362060547,40.9597,138.9850236206055,42.3619Q139.41002362060547,43.7641,139.76602362060547,45.1854Q140.1220236206055,46.6068,140.40802362060546,48.0439Q140.69302362060546,49.481,140.90802362060546,50.9304Q141.12302362060547,52.3798,141.26702362060547,53.8381Q141.41102362060548,55.2963,141.48202362060547,56.7598Q141.55402362060545,58.2233,141.55402362060545,59.6886Z" fill="#FAD672" fill-opacity="1"/></g><g><path d="M141.52339375,59.68860127258301C141.52339375,92.637801272583,114.80469375,119.356601272583,81.85547375,119.356601272583C79.88281375,119.356601272583,77.92968375,119.25860127258301,75.99609375,119.06360127258301C106.19139375,116.114601272583,129.80469375,90.665101272583,129.80469375,59.68860127258301C129.80469375,28.71200127258301,106.21089375,3.2627912725830077,75.99609375,0.3135702725830078C77.92968375,0.11825747258300781,79.88281375,0.020601272583007812,81.85547375,0.020601272583007812C114.82419375,0.020601272583007812,141.52339375,26.73940127258301,141.52339375,59.68860127258301Z" fill="#FFBC5A" fill-opacity="1"/></g><g><path d="M81.874975,9.883882522583008C54.374975,9.883882522583008,32.109375,32.188582522583005,32.109375,59.64948252258301C32.109375,87.11048252258301,54.374975,109.45418252258301,81.874975,109.45418252258301C109.374975,109.45418252258301,131.640575,87.14948252258301,131.640575,59.688582522583005C131.640575,32.22768252258301,109.414075,9.883882522583008,81.874975,9.883882522583008ZM81.874975,98.67298252258301C60.351575,98.67298252258301,42.832075,81.21198252258301,42.832075,59.629982522583006C42.832075,38.04798252258301,60.292975,20.645582522583005,81.874975,20.645582522583005C103.398475,20.645582522583005,120.917975,38.10658252258301,120.917975,59.688582522583005C120.917975,81.27058252258301,103.398475,98.67298252258301,81.874975,98.67298252258301Z" fill="#FDF17F" fill-opacity="1"/></g><g><path d="M81.89453125,39.411224365234375L87.05883125,55.30322436523437L103.76883125,55.30382436523438L90.25053125,65.12622436523438L95.41363125000001,81.01862436523437L81.89453125,71.19722436523438L68.37547125,81.01862436523437L73.53853125,65.12622436523438L60.02023125,55.30382436523438L76.73023125,55.30322436523437L81.89453125,39.411224365234375Z" fill="#FFBD5A" fill-opacity="1"/></g></g></svg>