<svg viewBox="0 0 1024 1024" xmlns="http://www.w3.org/2000/svg" id="图层_1"><defs><style>.cls-1{fill:#c1f8f4;}.cls-2{fill:#5ea55c;}.cls-3{fill:#fff;}.cls-4{fill:#05cdff;}.cls-5{fill:#6ee1ff;}.cls-6{fill:#00aff4;}.cls-7{fill:#aad540;}.cls-8{fill:#523838;}.cls-9{fill:#8bc852;}.cls-10{fill:#664545;}</style></defs><circle r="392.37" cy="536.19" cx="493.03" class="cls-1"></circle><path d="M869.27,424.58l-145.19-57a87.4,87.4,0,0,1-2.1,67.71h0a87.72,87.72,0,0,1-116.2,43.46l-269.94-123a87.72,87.72,0,0,1-43.45-116.2h0a87.35,87.35,0,0,1,24.69-31.86l-23.68-9.3c-110,65.15-185.48,182.49-192.25,317.94H884.9A390.92,390.92,0,0,0,869.27,424.58Z" class="cls-2"></path><circle r="81.19" cy="293.27" cx="613.56" class="cls-3"></circle><circle r="81.19" cy="330.13" cx="741.49" class="cls-3"></circle><path d="M116.69,424.89a392.35,392.35,0,0,0-16,111.3c0,216.7,175.67,392.37,392.38,392.37S885.4,752.89,885.4,536.19a392.35,392.35,0,0,0-16-111.3Z" class="cls-4"></path><ellipse ry="37.02" rx="269.36" cy="785.12" cx="484.15" class="cls-5"></ellipse><rect rx="12.19" height="47.83" width="529.75" y="650.71" x="325.75" class="cls-6"></rect><path d="M688.44,525.73l1.88.93,110.49-11.55-697-28.48a395.28,395.28,0,0,0,.28,101.3l583.57-61Z" class="cls-6"></path><path d="M871.25,640.9c-94.39-2.62-196.58,27-287.23,90.21C509.7,783,454,849.93,419.69,921.69A394.65,394.65,0,0,0,493,928.56C673.46,928.56,825.43,806.76,871.25,640.9Z" class="cls-7"></path><rect height="127.87" width="33.7" y="538.86" x="467.29" class="cls-8"></rect><rect height="127.87" width="33.7" y="538.86" x="667.78" class="cls-8"></rect><polygon points="702.28 632.87 685.43 657.89 469.03 550.76 485.88 525.73 702.28 632.87" class="cls-8"></polygon><polygon points="469.03 632.87 485.88 657.89 702.28 550.76 685.43 525.73 469.03 632.87" class="cls-8"></polygon><path d="M876.63,618.9a392.74,392.74,0,0,0,8-58.13l-62.71,31Z" class="cls-4"></path><polygon points="688.44 525.73 671.59 550.76 754.51 591.81 788.22 575.13 688.44 525.73" class="cls-8"></polygon><path d="M871.25,640.9q3-10.87,5.38-22l-54.71-27.09L788.21,608.5l65.22,32.29Q862.39,640.66,871.25,640.9Z" class="cls-8"></path><path d="M821.92,591.81l62.71-31q.75-12.19.77-24.58c0-3.05,0-6.09-.12-9.12l-97.07,48.06Z" class="cls-8"></path><polygon points="671.59 632.87 688.44 657.89 788.22 608.5 754.51 591.81 671.59 632.87" class="cls-8"></polygon><polygon points="754.51 591.81 788.22 608.5 821.92 591.81 788.22 575.13 754.51 591.81" class="cls-8"></polygon><path d="M292.39,239.51h0a87.72,87.72,0,0,0,43.45,116.2l269.94,123A87.72,87.72,0,0,0,722,435.25h0a87.4,87.4,0,0,0,2.1-67.71l-407-159.89A87.35,87.35,0,0,0,292.39,239.51Z" class="cls-9"></path><path d="M690.32,526.66l97.89,48.47,97.07-48.06a391.9,391.9,0,0,0-15.92-102.18H116.69a391.22,391.22,0,0,0-12.92,61.74l697,28.48Z" class="cls-4"></path><polygon points="687.62 526.94 690.32 526.66 688.44 525.73 687.62 526.94" class="cls-4"></polygon><circle r="83.51" cy="212.07" cx="717.3" class="cls-3"></circle><path d="M883.48,497.31H443.61a23.92,23.92,0,0,0-23.92,23.91h0a23.92,23.92,0,0,0,23.92,23.92H885.29c.06-3,.11-6,.11-8.95Q885.4,516.51,883.48,497.31Z" class="cls-10"></path><path d="M869.34,424.83a391.05,391.05,0,0,0-62.12-123.71C758,312.32,686.47,343,604.54,424.58Z" class="cls-7"></path></svg>