<svg viewBox="0 0 1024 1024" xmlns="http://www.w3.org/2000/svg" id="图层_1"><defs><style>.cls-1{fill:#5ea55c;}.cls-2{fill:#eab1b7;}.cls-3{fill:#c8a06e;}.cls-4{fill:#fff;}.cls-5{fill:#664545;}.cls-6{fill:#dafffb;}.cls-7{fill:#8bc852;}.cls-8{fill:#55c7a6;}.cls-9{fill:#96dbbf;}.cls-10{fill:#39ae96;}.cls-11{fill:#e29375;}</style></defs><path d="M791.62,424.23H939.34A397.73,397.73,0,0,0,897.78,316L517.07,197.7A108.31,108.31,0,0,0,424,211.59l-6.48,4.23L595,497h92.29Z" class="cls-1"></path><circle r="400" cy="512" cx="549.05" class="cls-2"></circle><path d="M154.72,579.35a397.12,397.12,0,0,0,26.9,90.94H916.48a397.1,397.1,0,0,0,26.89-90.94Z" class="cls-3"></path><circle r="107.92" cy="523.98" cx="476.32" class="cls-4"></circle><circle r="87.41" cy="569.96" cx="317.72" class="cls-4"></circle><circle r="87.41" cy="644.53" cx="514.74" class="cls-4"></circle><circle r="87.41" cy="634.67" cx="584.24" class="cls-4"></circle><circle r="87.41" cy="652.42" cx="351.5" class="cls-4"></circle><path d="M295,662.06,172.12,642.49l-6.47-17.67,27.27-119c1.15-5,5.14-8.42,9.19-7.79l106.58,16.58c4.05.63,6.82,5.06,6.39,10.21L304.42,652.5C303.93,658.35,299.55,662.77,295,662.06Z" class="cls-5"></path><circle r="42.68" cy="590.9" cx="579.35" class="cls-6"></circle><circle r="42.68" cy="583.22" cx="725.8" class="cls-6"></circle><circle r="42.68" cy="583.22" cx="651.39" class="cls-6"></circle><circle r="51.47" cy="538.49" cx="613.82" class="cls-6"></circle><circle r="59.07" cy="515.55" cx="672.89" class="cls-6"></circle><path d="M362.48,324.22,244.28,280.5c-4.36-1.62-6-7.62-3.61-13l52.86-116.71c2.13-4.72,6.71-7.23,10.56-5.81l101.15,37.42c3.85,1.42,5.69,6.31,4.24,11.28l-35.82,123C372,322.37,366.85,325.84,362.48,324.22Z" class="cls-5"></path><path d="M334.68,418.63l-115-27.5c-4.25-1-6.51-6.3-4.88-11.42l35.49-111.8c1.43-4.51,5.4-7.28,9.14-6.39l98.46,23.54c3.74.89,6,5.16,5.26,9.83L344.2,410.65C343.34,416,338.93,419.65,334.68,418.63Z" class="cls-5"></path><path d="M313.93,532.12,194.09,507.91c-4.42-.9-7-5.86-5.63-10.73l30.48-106.33c1.23-4.29,5.15-7,9.05-6.18l102.55,20.72c3.9.79,6.48,4.79,5.95,9.22l-13.2,109.81C322.68,529.45,318.35,533,313.93,532.12Z" class="cls-5"></path><path d="M299.15,330C202.67,404.35,75,400.42,75,400.42L424.32,131.08C439.39,154.26,395.62,255.6,299.15,330Z" class="cls-7"></path><path d="M424.32,131.08,75,400.42s28.7-124.52,125.17-198.89S409.88,108.88,424.32,131.08Z" class="cls-1"></path><path d="M361.22,579.35H154.72a397.12,397.12,0,0,0,26.9,90.94C243,812.47,384.37,912,549.05,912s306.09-99.53,367.43-241.71a397.1,397.1,0,0,0,26.89-90.94Z" class="cls-8"></path><path d="M502.47,114.71c15.16,25.3,30.17,63.72,38.85,109.17a421.13,421.13,0,0,0,61.12,77.53C688.58,387.55,815.75,400,815.75,400l-287.5-287.5C519.58,113,511,113.73,502.47,114.71Z" class="cls-1"></path><path d="M528.25,112.53,815.75,400s-12.49-127.17-98.63-213.31a424.35,424.35,0,0,0-86.33-66.35A401.71,401.71,0,0,0,549.05,112Q538.58,112,528.25,112.53Z" class="cls-7"></path><path d="M467.77,523.5V120.27a397.6,397.6,0,0,0-43.54,11.62c-20.1,40.22-37.55,101.51-37.55,171C386.68,424.75,467.77,523.5,467.77,523.5Z" class="cls-1"></path><path d="M467.77,120.27V523.5s45.8-55.77,68.56-135.19c-22.62-10.15-64.27-33.55-64.27-33.55l71.56,2.89a295.22,295.22,0,0,0,5.25-54.72,423,423,0,0,0-7.55-79.05c-26-42.5-39.77-82.59-42.08-108.8Q483.3,117.06,467.77,120.27Z" class="cls-7"></path><path d="M499.24,115.08c2.31,26.21,16.07,66.3,42.08,108.8-8.68-45.45-23.69-83.87-38.85-109.17Z" class="cls-7"></path><path d="M363.25,706.16l555.5-41.23q2.38-5.79,4.61-11.67L288.74,631.9Z" class="cls-9"></path><path d="M851.92,773.29,582.44,792.84l216,31.85A402,402,0,0,0,851.92,773.29Z" class="cls-10"></path><path d="M218.11,568.66A384.23,384.23,0,0,0,153.84,574c27.91,179.21,174.79,319,357.34,336.16a211.29,211.29,0,0,0,19.25-87.87C530.43,682.23,390.6,568.66,218.11,568.66Z" class="cls-11"></path></svg>