<svg viewBox="0 0 1024 1024" xmlns="http://www.w3.org/2000/svg" id="图层_1"><defs><style>.cls-1{fill:#93ede7;}.cls-2{fill:#c1f8f4;}.cls-3{fill:#fff;}.cls-4{fill:#5ea55c;}.cls-5{fill:#8bc852;}.cls-6{fill:#f4dd45;}.cls-7{fill:#ecbe6b;}.cls-8{fill:#dafffb;}.cls-9{fill:#4f8980;}.cls-10{fill:#523838;}.cls-11{fill:#b48255;}.cls-12{fill:#664545;}</style></defs><path d="M512,123c-217.88,0-394.5,176.62-394.5,394.5S294.12,912,512,912,906.5,735.38,906.5,517.5,729.88,123,512,123ZM439.47,429.48c55.23,0,108.48-2,163.71,2C548,427.5,494.7,429.48,439.47,429.48Z" class="cls-1"></path><path d="M512,123a392.71,392.71,0,0,0-182.91,44.91,377.55,377.55,0,0,0-8.84,81.32c0,207.82,168.48,376.3,376.3,376.3a374.55,374.55,0,0,0,207.29-62.22,398.13,398.13,0,0,0,2.66-45.81C906.5,299.62,729.88,123,512,123ZM439.47,429.48c55.23,0,108.48-2,163.71,2C548,427.5,494.7,429.48,439.47,429.48Z" class="cls-2"></path><path d="M709.49,365A69.31,69.31,0,0,0,582,310.69,48.58,48.58,0,0,0,505.56,361a37.94,37.94,0,0,0,11.38,74.14H686.48A14.17,14.17,0,0,0,688,435c.49,0,1,.08,1.47.08A37.91,37.91,0,0,0,709.49,365Z" class="cls-3"></path><path d="M198.52,341.28S545,439.09,613.38,398.68V501.79l-336,23.4Z" class="cls-4"></path><path d="M852.54,318.27c-93.87,5.07-205.5,51.4-294.85,111.11,15.07.35,30.21,1,45.49,2.07-15.28-1.09-30.42-1.72-45.49-2.07-35.07,23.43-66.71,48.93-92.49,74.81-42.38,42.52-68.94,86.05-68.94,123.12,0,32.73,11.22,64,31.05,92.52,50.53,72.69,157,127.44,276.17,142.63,121.08-67.35,203-196.58,203-345A392.7,392.7,0,0,0,852.54,318.27Z" class="cls-5"></path><path d="M123.1,583.92a391.88,391.88,0,0,0,26.52,89.7C210.11,813.84,349.58,912,512,912s301.89-98.16,362.38-238.38a391.88,391.88,0,0,0,26.52-89.7Z" class="cls-6"></path><path d="M874.38,673.62a391.88,391.88,0,0,0,26.52-89.7h-3.56l-140,242.49A395.85,395.85,0,0,0,874.38,673.62Z" class="cls-7"></path><path d="M384.89,206.34A69.31,69.31,0,0,0,257.43,152,48.6,48.6,0,0,0,181,202.3a37.94,37.94,0,0,0,11.39,74.13H361.87a14.52,14.52,0,0,0,1.48-.08c.49,0,1,.08,1.47.08a37.91,37.91,0,0,0,20.07-70.09Z" class="cls-8"></path><path d="M163.32,332.86A394.64,394.64,0,0,0,234,797.35c74.43-12.74,143.93-40.67,193.35-77.52-19.83-28.51-31.05-59.79-31.05-92.52,0-37.07,26.56-80.6,68.94-123.12C408,413.27,304.8,364.37,163.32,332.86Z" class="cls-9"></path><path d="M509.05,366.64H492.84a12.82,12.82,0,0,1-12.73-11.35L461,189a12.81,12.81,0,0,1,12.73-14.27h53.1a12.81,12.81,0,0,1,12.74,14.17L521.79,355.19A12.82,12.82,0,0,1,509.05,366.64Z" class="cls-10"></path><path d="M552.21,429.25,531,382.49H467.6l-19.46,47C483.2,429.34,517.56,428.59,552.21,429.25Z" class="cls-11"></path><path d="M639.19,621.39l-87-192.14c-34.65-.66-69,.09-104.07.21L368.6,621.39Z" class="cls-12"></path><path d="M527.24,429c-17.64-.05-35.27.13-53,.29l-13.2,115a12.82,12.82,0,0,0,12.73,14.27h53.1a12.81,12.81,0,0,0,12.74-14.17Z" class="cls-10"></path><path d="M527.24,429l-5.45-50.91a12.82,12.82,0,0,0-12.74-11.45H492.84A12.82,12.82,0,0,0,480.11,378l-5.88,51.3C492,429.13,509.6,429,527.24,429Z" class="cls-10"></path><path d="M498.74,357.9v16.21a12.82,12.82,0,0,1-11.35,12.73L321.05,405.92a12.81,12.81,0,0,1-14.27-12.73v-53.1A12.81,12.81,0,0,1,321,327.35l166.34,17.81A12.82,12.82,0,0,1,498.74,357.9Z" class="cls-10"></path><path d="M498.74,357.9v16.21a12.82,12.82,0,0,0,11.35,12.73l166.34,19.08a12.81,12.81,0,0,0,14.27-12.73v-53.1a12.81,12.81,0,0,0-14.17-12.74L510.19,345.16A12.82,12.82,0,0,0,498.74,357.9Z" class="cls-10"></path><path d="M749.79,583.92,562.21,908.82a392.44,392.44,0,0,0,195.13-82.41l140-242.49Z" class="cls-6"></path><path d="M474.37,583.92,315.27,859.5A391.81,391.81,0,0,0,441,905.62l185.73-321.7Z" class="cls-6"></path><path d="M198.52,583.92l-50.1,86.78c.4,1,.79,1.95,1.2,2.92a395.2,395.2,0,0,0,80.66,120L351.34,583.92Z" class="cls-6"></path><path d="M123.1,583.92a390.78,390.78,0,0,0,25.32,86.78l50.1-86.78Z" class="cls-7"></path><path d="M351.34,583.92,230.28,793.61a395.87,395.87,0,0,0,85,65.89l159.1-275.58Z" class="cls-7"></path><path d="M626.76,583.92,441,905.62a397.94,397.94,0,0,0,121.18,3.2l187.58-324.9Z" class="cls-7"></path><circle r="40.42" cy="365.59" cx="499.51" class="cls-12"></circle><circle r="20.21" cy="365.59" cx="499.51" class="cls-11"></circle></svg>