<svg viewBox="0 0 1024 1024" xmlns="http://www.w3.org/2000/svg" id="图层_1"><defs><style>.cls-1{fill:#5ea55c;}.cls-2{fill:#c1f8f4;}.cls-3{fill:#93d8e4;}.cls-4{fill:#4f8980;}.cls-5{fill:#8bc852;}.cls-6{fill:#664545;}.cls-7{fill:#c8a06e;}.cls-8{fill:#87a0af;}.cls-9{fill:#738c96;}.cls-10{fill:#70c6da;}.cls-11{fill:#dcbe82;}.cls-12{fill:#93ede7;}</style></defs><path d="M754.57,444.86H902.29a397.21,397.21,0,0,0-41.56-108.23L480,218.34a108.3,108.3,0,0,0-93,13.88l-6.48,4.24L558,517.6h92.29Z" class="cls-1"></path><circle r="400" cy="532.64" cx="512" class="cls-2"></circle><path d="M512,932.64c164.68,0,306.1-99.53,367.43-241.71H144.57C205.9,833.11,347.32,932.64,512,932.64Z" class="cls-3"></path><path d="M912,532.64a398.15,398.15,0,0,0-51.27-196L480,218.34a108.3,108.3,0,0,0-93,13.88L135.79,396.47A402,402,0,0,0,117.67,600H906.33A402.78,402.78,0,0,0,912,532.64Z" class="cls-1"></path><path d="M135.79,396.47A402,402,0,0,0,117.67,600l599,1.52-336.14-365Z" class="cls-4"></path><path d="M264.67,346c0,104.87,32.33,189.9,72.21,189.9s72.21-85,72.21-189.9-72.21-189.9-72.21-189.9S264.67,241.15,264.67,346Z" class="cls-1"></path><path d="M337.11,156.4c-18.44,28.75-27.49,74.49-21.74,124.11,8.66,74.68,47.7,131.35,89.18,132A474.41,474.41,0,0,0,409.09,346C409.09,244.56,341.5,161.68,337.11,156.4Z" class="cls-5"></path><path d="M327.2,505.6h19.37a9.68,9.68,0,0,1,9.68,9.68v95.21a0,0,0,0,1,0,0H317.51a0,0,0,0,1,0,0V515.29A9.68,9.68,0,0,1,327.2,505.6Z" class="cls-6"></path><path d="M130.36,345.91c0,104.82,32.33,189.79,72.21,189.79s72.21-85,72.21-189.79-72.21-189.78-72.21-189.78S130.36,241.1,130.36,345.91Z" class="cls-1"></path><path d="M202.8,156.4c-18.45,28.73-27.5,74.44-21.74,124,8.65,74.64,47.69,131.27,89.17,131.87a473.92,473.92,0,0,0,4.55-66.4C274.78,244.5,207.19,161.68,202.8,156.4Z" class="cls-5"></path><path d="M192.88,505.39h19.37a9.68,9.68,0,0,1,9.68,9.68v95.14a0,0,0,0,1,0,0H183.2a0,0,0,0,1,0,0V515.08a9.68,9.68,0,0,1,9.68-9.68Z" class="cls-6"></path><path d="M117.67,600a397.55,397.55,0,0,0,26.9,90.95H879.43A397.55,397.55,0,0,0,906.33,600Z" class="cls-7"></path><path d="M902.29,444.86H754.57L650.27,517.6H530.19L432.9,600H906.33a402.1,402.1,0,0,0-4-155.12Z" class="cls-8"></path><path d="M902.29,444.86H755.66A140.61,140.61,0,0,1,530,517.73L432.9,600H906.33a402.1,402.1,0,0,0-4-155.12Z" class="cls-8"></path><path d="M755.66,444.86h-1.09L650.27,517.6H530.19l-.16.13a140.61,140.61,0,0,0,225.63-72.87Z" class="cls-9"></path><path d="M355.89,690.93H144.57C205.9,833.11,347.32,932.64,512,932.64a400.21,400.21,0,0,0,111.93-15.88C505.73,883.08,408.41,799.84,355.89,690.93Z" class="cls-10"></path><path d="M324.17,600H117.67a397.55,397.55,0,0,0,26.9,90.95H355.89A424.44,424.44,0,0,1,324.17,600Z" class="cls-7"></path><path d="M879.43,690.93A397.55,397.55,0,0,0,906.33,600H324.17a424.44,424.44,0,0,0,31.72,90.95Z" class="cls-11"></path><path d="M785.21,824.77l-319.94,7.28a426.63,426.63,0,0,0,158.66,84.71A399.57,399.57,0,0,0,785.21,824.77Z" class="cls-3"></path><path d="M879.43,690.93H355.89a427.1,427.1,0,0,0,20.66,37.79l492.38-15.44C872.64,706,876.16,698.51,879.43,690.93Z" class="cls-3"></path><path d="M848.31,749.24l-465.49-10.6a430.15,430.15,0,0,0,53.94,66.94l356.76,11.18A402.15,402.15,0,0,0,848.31,749.24Z" class="cls-3"></path><path d="M195.71,734.38l187.11,4.26c-2.13-3.27-4.22-6.59-6.27-9.92Z" class="cls-12"></path><path d="M868.93,713.28,376.55,728.72c2.05,3.33,4.14,6.65,6.27,9.92l465.49,10.6A402.48,402.48,0,0,0,868.93,713.28Z" class="cls-12"></path><path d="M436.76,805.58l-172.09-5.4,7.3,36.27,193.3-4.4Q450.41,819.48,436.76,805.58Z" class="cls-10"></path><path d="M793.52,816.76,436.76,805.58q13.65,13.86,28.51,26.47l319.94-7.28Q789.43,820.83,793.52,816.76Z" class="cls-10"></path></svg>