<svg viewBox="0 0 1024 1024" xmlns="http://www.w3.org/2000/svg" id="图层_1"><defs><style>.cls-1{fill:#93ede7;}.cls-2{fill:#c1f8f4;}.cls-3{fill:none;}.cls-4{fill:#5a915a;}.cls-5{fill:#ff3c3c;}.cls-6{fill:#f9ef63;}.cls-7{fill:#70c6da;}.cls-8{fill:#6e64c3;}.cls-9{fill:#fff;}.cls-10{fill:#8bc852;}.cls-11{fill:#dc1428;}.cls-12{fill:#f4dd45;}.cls-13{fill:#00aff4;}.cls-14{fill:#5046af;}.cls-15{fill:#dafffb;}</style></defs><circle r="400" cy="512" cx="507.66" class="cls-1"></circle><path d="M507.66,112A398.29,398.29,0,0,0,322.2,157.53a382.93,382.93,0,0,0-9,82.46c0,210.72,170.82,381.54,381.54,381.54A379.81,379.81,0,0,0,905,558.45a404.75,404.75,0,0,0,2.7-46.45C907.66,291.09,728.57,112,507.66,112Z" class="cls-2"></path><path d="M610.34,414.37a55.41,55.41,0,1,0,89-44.08l-88.13,34.56A55.26,55.26,0,0,0,610.34,414.37Z" class="cls-3"></path><path d="M507.66,912C723.2,912,898.9,741.51,907.31,528L414.39,294.88s-217.14,164-305.94,242C121.29,746.19,295.1,912,507.66,912Z" class="cls-4"></path><path d="M406,681.67A483.88,483.88,0,0,1,507.66,671c120.79,0,227.93,43.67,295,111.06A398.46,398.46,0,0,0,907.31,528L414.39,294.88s-217.14,164-305.94,242A398.47,398.47,0,0,0,212.61,782.05C260.11,734.33,327.71,698.51,406,681.67Z" class="cls-4"></path><path d="M507.66,912a398.08,398.08,0,0,0,212.61-61.15c-142-7.3-261.94-75-314.25-169.18-78.31,16.84-145.91,52.66-193.41,100.38A398.89,398.89,0,0,0,507.66,912Z" class="cls-1"></path><path d="M507.66,671A483.88,483.88,0,0,0,406,681.67c52.31,94.15,172.2,161.88,314.25,169.18a402.23,402.23,0,0,0,82.41-68.79C735.59,714.67,628.45,671,507.66,671Z" class="cls-2"></path><path d="M906.86,536.87c-.2,3.18-.42,6.36-.69,9.52C906.44,543.23,906.67,540.05,906.86,536.87Z" class="cls-4"></path><path d="M907.31,528h0c0,.8-.07,1.6-.11,2.4C907.23,529.62,907.28,528.83,907.31,528Z" class="cls-4"></path><path d="M905.1,557c.28-2.51.53-5,.77-7.54C905.63,552,905.38,554.53,905.1,557Z" class="cls-4"></path><path d="M906.17,546.39c-.09,1-.21,2.07-.3,3.11C906,548.46,906.08,547.43,906.17,546.39Z" class="cls-2"></path><path d="M905,558.45c0-.47.09-1,.14-1.41-.05.47-.11,1-.17,1.42Z" class="cls-2"></path><path d="M772.89,366.23c.76,3.08,1.43,6.17,2.07,9.25l38.82-9.59c-.65-3.08-1.34-6.16-2.1-9.24-36.42-147.47-185.5-237.5-333-201.07l9.59,38.8C614.33,163.24,741.75,240.19,772.89,366.23Z" class="cls-5"></path><path d="M488.29,194.38,499,237.81C601.08,212.6,704.25,274.9,729.46,377c.76,3.08,1.43,6.17,2,9.25L775,375.48c-.64-3.08-1.31-6.17-2.07-9.25C741.75,240.19,614.33,163.24,488.29,194.38Z" class="cls-6"></path><path d="M684.66,388c.76,3.1,1.38,6.19,1.94,9.28l44.9-11.09c-.61-3.08-1.28-6.17-2-9.25C704.25,274.9,601.08,212.6,499,237.81l11.07,44.79A144.22,144.22,0,0,1,684.66,388Z" class="cls-7"></path><path d="M645.46,397.71c.76,3.1,1.36,6.2,1.83,9.3l39.31-9.71c-.56-3.09-1.18-6.18-1.94-9.28A144.22,144.22,0,0,0,510.08,282.6l9.68,39.2A103.84,103.84,0,0,1,645.46,397.71Z" class="cls-8"></path><path d="M907.19,530.42c-.1,2.16-.2,4.31-.33,6.45C907,534.73,907.09,532.57,907.19,530.42Z" class="cls-2"></path><path d="M866.28,349.85a62,62,0,0,0-61.67-69.7A61.94,61.94,0,0,0,780,285.22a88.34,88.34,0,0,0-18.9-11.87,87.63,87.63,0,0,0-124.28,77.79,59.58,59.58,0,0,0,15.53,117.09c1.57,0,3.12-.08,4.66-.2H852.15c1.52.12,3.06.2,4.62.2a59.57,59.57,0,0,0,9.51-118.38Z" class="cls-9"></path><path d="M906.17,546.39c.27-3.16.49-6.34.69-9.52.13-2.14.23-4.29.33-6.45,0-.8.07-1.6.11-2.4L414.39,294.88s-35,26.41-82.54,63.05c49.68,153,193.38,263.6,362.93,263.6a379.7,379.7,0,0,0,210.15-63.07c.06-.47.12-1,.17-1.42.28-2.51.53-5,.77-7.54C906,548.46,906.08,547.43,906.17,546.39Z" class="cls-10"></path><path d="M394.31,359.09a84.13,84.13,0,0,0,84.13,84.13V275A84.13,84.13,0,0,0,394.31,359.09Z" class="cls-3"></path><path d="M562.57,359.09A84.13,84.13,0,0,0,478.44,275V443.22A84.13,84.13,0,0,0,562.57,359.09Z" class="cls-3"></path><path d="M316.43,479c-31.13-126,45.81-253.47,171.86-284.6l-9.59-38.8c-147.47,36.42-237.49,185.5-201.07,333,.76,3.08,1.59,6.12,2.45,9.15l38.82-9.59C318,485.1,317.19,482.06,316.43,479Z" class="cls-11"></path><path d="M359.86,468.25C334.65,366.19,397,263,499,237.81l-10.72-43.43c-126,31.13-203,158.55-171.86,284.6.76,3.08,1.6,6.12,2.47,9.14l43.46-10.73C361.46,474.38,360.62,471.33,359.86,468.25Z" class="cls-12"></path><path d="M359.86,468.25c.76,3.08,1.6,6.13,2.5,9.14l44.9-11.09c-.94-3-1.84-6-2.6-9.12A144.21,144.21,0,0,1,510.08,282.6L499,237.81C397,263,334.65,366.19,359.86,468.25Z" class="cls-13"></path><path d="M443.86,447.5a103.84,103.84,0,0,1,75.9-125.7l-9.68-39.2A144.21,144.21,0,0,0,404.66,457.18c.76,3.1,1.66,6.12,2.6,9.12l39.31-9.71C445.54,453.63,444.63,450.6,443.86,447.5Z" class="cls-14"></path><path d="M562.21,366.77H394.67a84.12,84.12,0,0,0,167.54,0Z" class="cls-3"></path><path d="M362.47,549.5a67.32,67.32,0,0,1-17.55-132.32,98.52,98.52,0,0,1,20.29-58.09A99,99,0,0,0,224.75,447,67.32,67.32,0,0,0,242.3,579.32c1.78,0,3.53-.08,5.27-.22H468.11c1.73.13,3.47.22,5.23.22a67.26,67.26,0,0,0,56.06-30H367.74C366,549.41,364.24,549.5,362.47,549.5Z" class="cls-15"></path><path d="M484.09,445.54a70.25,70.25,0,0,0-97.52-73,99.37,99.37,0,0,0-21.36-13.41,98.52,98.52,0,0,0-20.29,58.09A67.32,67.32,0,0,0,362.47,549.5c1.77,0,3.53-.09,5.27-.22H529.4a67.33,67.33,0,0,0-45.31-103.74Z" class="cls-9"></path></svg>