<svg xmlns="http://www.w3.org/2000/svg" fill="none" width="80" height="70" viewBox="0 0 80 70"><path d="M71 20.7l-.4-.5-.6-.5-.4-.5-.6-.5-.4-.5-.6-.5-.4-.5c5 4.9 7.8 11.5 7.9 18.5 0 16.6-16.8 30-37.5 30-11.6 0-22-4.2-28.8-10.8l.5.5.5.5.5.5.5.5.5.5.5.5.5.5c6.9 6.9 17.4 11.3 29.3 11.3 20.7 0 37.5-13.4 37.5-30 0-7-3-13.7-8.5-19z" fill="#000"/><path d="M73 35.7C73 51 57.3 63.2 38 63.2S3 51 3 35.7C3 26.3 9 18 18.2 13S33.2 3 38 3c4.8 0 9 4.1 19.8 10C67 18 73 26.3 73 35.7z" fill="#FBF0DF"/><path d="M73 35.7c0-2-.3-3.9-.8-5.7-2.7 33.2-43.3 34.8-59.3 24.9C20 60.4 29 63.4 38 63.2c19.3 0 35-12.3 35-27.5z" fill="#F6DECE"/><path d="M24.5 11.2C29 8.5 35 3.5 40.8 3.5 39.9 3.2 39 3 38 3c-2.4 0-5 1.3-8.2 3.1l-3.6 2.2-8 4.7C8.7 18.1 3 26.6 3 35.7v1.2c6-21.4 17-23.1 21.5-25.7z" fill="#FFFEFC"/><path d="M35.1 5.5c0 4.8-2.1 9.4-5.6 12.5-.3.2-.1.7.3.6 3.4-1.3 7.9-5.2 6-13.2-.1-.4-.7-.3-.7.1zm2.3 0c2.5 4.1 3.1 9 1.6 13.5-.1.3.3.6.5.4C41.7 16.6 43.6 11 38 5c-.4-.3-.8.1-.6.5zm2.7-.1c3.9 2.7 6.4 7 6.9 11.7 0 .2.1.4.3.4.1 0 .3-.1.3-.3 1-3.5.4-9.4-7.1-12.5-.5-.2-.7.3-.4.6v.1zM21.7 15.8c4.6-1.4 8.4-4.7 10.5-9 .1-.4.8-.3.6.2-1.8 8-7.5 9.6-11.1 9.4-.4 0-.4-.5 0-.6z" fill-rule="evenodd" fill="#CCBEA7"/><path d="M38 65.8C17.3 65.8.5 52.3.5 35.6c0-10 6.2-19.3 16.5-24.9 3-1.6 5.6-3.2 7.9-4.6L28.5 4C32 1.9 35 .5 38 .5s5.6 1.2 8.9 3.1L50 5.5c2.5 1.5 5.3 3.3 9 5.3 10.3 5.6 16.5 14.9 16.5 24.9 0 16.6-16.8 30.1-37.5 30.1zM38 3c-2.4 0-5 1.3-8.2 3.1l-3.6 2.2-8 4.7C8.7 18.1 3 26.6 3 35.7c0 15.2 15.7 27.6 35 27.6s35-12.4 35-27.6c0-9.1-5.7-17.6-15.2-22.7-3.8-2-6.8-3.9-9.1-5.4l-3-1.8C42.6 4 40.4 3 38 3z" fill="#000"/><path d="M45 43c-.4 1.8-1.4 3.5-2.9 4.7-1.1 1.1-2.5 1.7-4 1.9-1.5-.1-3-.8-4.1-1.9-1.4-1.2-2.4-2.9-2.9-4.7-.1-.5.4-.9.9-.8h12.3c.4-.1.8.3.7.8z" fill="#B71422"/><path d="M34 47.8c1.1 1.1 2.6 1.7 4.1 1.9 1.6-.2 3-.8 4.1-1.9.4-.3.8-.7 1-1.1-1.2-1.4-3-2.2-4.9-2.3-2 .1-3.9 1.1-5 2.8l.7.6z" fill="#FF6164"/><path d="M34.2 47c1-1.3 2.5-2 4.1-2 1.5 0 3 .6 4 1.6l.7-.8c-1.3-1.2-3-1.8-4.7-1.8-1.9 0-3.7.8-4.9 2.3l.8.7z" fill="#000"/><path d="M38 50.2c-1.6-.2-3.1-.9-4.4-2-1.6-1.3-2.6-3.1-3.1-5.1 0-.3.1-.7.3-1 .2-.3.7-.5 1.2-.5h12.3c.4 0 .8.2 1.1.5.2.3.3.7.2 1-.4 2-1.6 3.8-3.1 5.1-1.2 1.1-2.7 1.8-4.5 2zm-6-7.4l-.3.1c.4 1.7 1.3 3.2 2.7 4.4 1 .9 2.3 1.5 3.6 1.7 1.5-.2 2.7-.8 3.7-1.7 1.3-1.2 2.3-2.7 2.8-4.4l-.2-.1H32z" fill="#000"/><ellipse cx="53.22" cy="40.18" rx="5.85" ry="3.44" fill="#FEBBD0"/><ellipse cx="22.95" cy="40.18" rx="5.85" ry="3.44" fill="#FEBBD0"/><path d="M25.7 38.8c3 0 5.5-2.5 5.5-5.5s-2.4-5.5-5.5-5.5c-3 0-5.5 2.4-5.5 5.5 0 3 2.5 5.5 5.5 5.5zm24.8 0c3 0 5.5-2.4 5.5-5.5 0-3-2.4-5.5-5.5-5.5-3 0-5.5 2.4-5.5 5.5 0 3 2.4 5.5 5.5 5.5z" fill-rule="evenodd" fill="#000"/><path d="M24 33.6c1.1 0 2-.9 2-2 0-1.2-.8-2.1-2-2.1-1.1 0-2 .9-2 2.1 0 1.1.9 2 2 2zm24.8 0c1.2 0 2-.9 2-2 .1-1.2-.8-2.1-2-2.1s-2.1.9-2.1 2.1c0 1.1.9 2 2 2h.1z" fill-rule="evenodd" fill="#FFF"/></svg>