<?xml version="1.0" standalone="no"?><!DOCTYPE svg PUBLIC "-//W3C//DTD SVG 1.1//EN" "http://www.w3.org/Graphics/SVG/1.1/DTD/svg11.dtd"><svg t="1709891400608" class="icon" viewBox="0 0 1024 1024" version="1.1" xmlns="http://www.w3.org/2000/svg" p-id="5446" xmlns:xlink="http://www.w3.org/1999/xlink" width="200" height="200"><path d="M512 0a512 512 0 1 1 0 1024 512 512 0 0 1 0-1024z" p-id="5447"></path><path d="M492 289.8c-148.8 0-264.8 93.8-264.8 210.4 0 110 106.6 180.2 271.8 176.8l5-0.2 18.2-0.6-4.6 12 0.6 1.2a133.6 133.6 0 0 1 3.6 9.4l0.4 1.2 0.6 2 0.8 2.8 0.6 1.8 0.8 2 0.6 2.2 0.8 3.2 1 3.4 0.6 2.2 1 3.6 1 3.8 0.8 3.8 1 4 0.8 2.8 1 4.4 1 4.4 1.4 6 0.6 3.2 1 4.8 1 5 1.2 5.2 1.4 7.4 1.2 6 1.6 8.4 0.8 4.2 1.4 6.6 1.2 6.8 1.6 9.2 1.8 9.6 1.6 10 1.8 10.2 1.8 10.4 1.8 10.8 1.8 11.2 1.4 8.6 2.2 14.6 1 6 2.4 15.4 1.8 12.6 1.6 9.6 1.8 13.2 1 6.6c109.8-14.6 207.4-67.8 278.6-145.6l2.2-2.4-10.2-38-27-101-16.8-62.8-14.8-55.2-9.2-33.6-5.8-21.2-3.4-12.8-3.2-11.2-1.2-4.8-0.8-2.6-0.4-1.4-0.4-1.2c-15.6-50.2-45.8-94.6-87-126.8-48.4-37.8-109.8-57.6-181.4-57.6z m-130.8 533.8c-13-3.6-26.6 4-30.4 17l-0.2 0.6-22.4 83.2a457.4 457.4 0 0 0 43 18.6l3.4 1.4 24.2-90.2 0.2-0.6c3.2-13.2-4.6-26.6-17.8-30z m139.4-61c-13.2-3.6-26.8 4-30.6 17l-0.2 0.6-34 126v0.6a25 25 0 0 0 48.2 13l0.2-0.6 34-126v-0.6l0.6-2.8 0.2-1-0.8-4.2-1.2-5.8-0.8-3.6a25 25 0 0 0-15.6-12.6z m-237-129.8l-1.6 3.8-0.2 0.8-34 126-0.2 0.6a25 25 0 0 0 48.2 13.2l0.2-0.6 30.8-114.4c-16-8.4-30.6-18.4-43.2-29.4z m-81-145c-13.2-3.4-26.8 4.2-30.6 17l-0.2 0.6-34 126v0.6a25 25 0 0 0 48.2 13.2l0.2-0.6 34-126v-0.6c3.2-13.2-4.6-26.6-17.6-30.2z m762.2-28.6c-13-3.4-26.6 4.2-30.4 17l-0.2 0.6-34 126-0.2 0.6a25 25 0 0 0 48.4 13.2v-0.6l34.2-126v-0.8c3.2-13-4.6-26.4-17.8-30zM108.4 291a456.8 456.8 0 0 0-53.4 167.6 24.8 24.8 0 0 0 12.4 7.6c13 3.4 26.6-4.2 30.4-17l0.2-0.6 34-126 0.2-0.6c3.2-13.2-4.6-26.6-17.8-30.2a25.4 25.4 0 0 0-6-0.8z m750.4 0.8c-13.2-3.4-26.6 4.2-30.6 17v0.6l-34 126-0.2 0.6a25 25 0 0 0 48.2 13.2l0.2-0.6 34-126 0.2-0.6c3.2-13.2-4.8-26.6-17.8-30.2z" fill="#FFFFFF" p-id="5448"></path><path d="M524 374a32 32 0 1 1 0 64 32 32 0 0 1 0-64z" p-id="5449"></path><path d="M256.4 172c-13-3.4-26.6 4.2-30.4 17l-0.2 0.6-34 126-0.2 0.6a25 25 0 0 0 48.2 13.2l0.2-0.6 34-126 0.2-0.8c3.2-13-4.6-26.4-17.8-30z m437 23.8c-13.2-3.4-26.8 4.2-30.6 17l-0.2 0.6-22.8 84.8a279.8 279.8 0 0 1 42.2 25.6l2.2 1.8 26.8-99v-0.6c3.2-13.2-4.6-26.6-17.6-30.2zM471 53.8a459.8 459.8 0 0 0-47.6 6.8l-3.4 0.6-31.6 117.4-0.2 0.6a25 25 0 0 0 48.2 13l0.2-0.6 34-126 0.2-0.6a24.8 24.8 0 0 0 0.2-11.2z m312.8 87l-6.6 24.8-0.2 0.6a25 25 0 0 0 48.2 13l0.2-0.6 0.8-2.6a462.4 462.4 0 0 0-39.4-33l-3-2.2z m-197.8-82.8l-12 44.6-0.2 0.6a25 25 0 0 0 48.2 13l0.2-0.6 12.6-47a457.2 457.2 0 0 0-45.2-10l-3.6-0.6z" fill="#FFFFFF" p-id="5450"></path></svg>