<svg xmlns="http://www.w3.org/2000/svg" xmlns:xlink="http://www.w3.org/1999/xlink" fill="none" version="1.1" viewBox="0 0 444 150"><g clip-path="url(#master_svg0_198_738)"><g><path d="M47.66,131.985L47.66,121.315C41.17,121.315,39.519999999999996,119.88499999999999,39.519999999999996,112.405L39.519999999999996,91.945C39.519999999999996,84.245,36.33,80.835,30.39,79.185C36.33,77.535,39.519999999999996,74.125,39.519999999999996,66.425L39.519999999999996,45.965C39.519999999999996,38.815,40.95,37.055,47.66,37.055L47.66,26.384999999999998C33.03,26.384999999999998,25.77,32.435,25.77,45.965L25.77,66.425C25.77,72.695,23.57,73.795,18.18,73.795L18.18,84.465C23.57,84.465,25.77,85.675,25.77,91.945L25.77,112.405C25.77,125.82499999999999,32.92,131.985,47.66,131.985ZM133.01999999999998,46.185L133.01999999999998,33.645L87.81,33.645L87.81,109.98500000000001L102.22,109.98500000000001L102.22,78.855L130.82,78.855L130.82,66.315L102.22,66.315L102.22,46.185L133.01999999999998,46.185ZM196.49,75.115C196.49,61.144999999999996,192.2,49.485,171.63,49.485C153.59,49.485,143.14,56.30500000000001,143.14,80.285C143.14,104.265,153.59,111.08500000000001,171.63,111.08500000000001C181.31,111.08500000000001,189.89,109.10499999999999,193.41,107.125L193.41,95.905C189.34,97.995,181.2,99.975,174.05,99.975C162.17,99.975,157.33,95.355,157,85.455L195.94,82.925C196.27,80.945,196.49,77.975,196.49,75.115ZM157,75.665C157.44,65.325,160.52,60.045,171.63,60.045C182.19,60.045,183.73,66.315,183.73,73.685L157,75.665ZM238.29,61.584999999999994L238.29,50.584999999999994L225.2,50.584999999999994L225.2,36.505L211.45,36.505L211.45,50.584999999999994L203.2,50.584999999999994L203.2,61.584999999999994L211.45,61.584999999999994L211.45,91.285C211.45,106.905,216.4,110.64500000000001,230.59,110.64500000000001C233.12,110.64500000000001,235.65,110.42500000000001,237.96,110.095L237.96,99.205C236.31,99.645,234.66,99.755,232.57,99.755C226.52,99.755,225.2,97.885,225.2,90.185L225.2,61.584999999999994L238.29,61.584999999999994ZM274.59,111.08500000000001C280.2,111.08500000000001,287.02,110.095,290.43,108.88499999999999L290.43,97.225C286.14,98.875,281.19,99.535,276.24,99.535C264.58000000000004,99.535,260.07,95.355,260.07,80.395C260.07,65.215,264.58000000000004,60.925,276.02,60.925C281.3,60.925,285.7,61.69499999999999,289.99,63.235L289.99,51.465C286.36,50.364999999999995,280.64,49.485,274.59,49.485C256.44,49.485,245.88,56.30500000000001,245.88,80.285C245.88,104.265,256.44,111.08500000000001,274.59,111.08500000000001ZM336.3,49.485C328.16,49.485,320.9,52.015,317.6,58.285L317.6,26.384999999999998L303.85,26.384999999999998L303.85,109.98500000000001L317.6,109.98500000000001L317.6,70.715C319.8,63.015,325.19,60.925,332.12,60.925C340.37,60.925,342.35,64.775,342.35,73.135L342.35,109.98500000000001L356.1,109.98500000000001L356.1,69.285C356.1,56.745000000000005,351.37,49.485,336.3,49.485ZM395.59,131.985C410.22,131.985,417.48,125.935,417.48,112.405L417.48,91.945C417.48,85.675,419.79,84.575,425.07,84.575L425.07,73.905C419.79,73.905,417.48,72.695,417.48,66.425L417.48,45.965C417.48,32.545,410.44,26.384999999999998,395.59,26.384999999999998L395.59,37.055C402.08,37.055,403.73,38.485,403.73,45.965L403.73,66.425C403.73,74.125,407.03,77.535,412.86,79.185C407.03,80.835,403.73,84.245,403.73,91.945L403.73,112.405C403.73,119.555,402.41,121.315,395.59,121.315L395.59,131.985Z" fill="#298FD8" fill-opacity="1"/></g></g></svg>