<?xml version="1.0" standalone="no"?><!DOCTYPE svg PUBLIC "-//W3C//DTD SVG 1.1//EN" "http://www.w3.org/Graphics/SVG/1.1/DTD/svg11.dtd"><svg t="1697178788901" class="icon" viewBox="0 0 1024 1024" version="1.1" xmlns="http://www.w3.org/2000/svg" p-id="5775" xmlns:xlink="http://www.w3.org/1999/xlink" width="200" height="200"><path d="M178.41152 752.2688l-33.64608-19.42528 374.8352-649.216 33.64608 19.42528z" fill="#EC407A" p-id="5776"></path><path d="M137.05984 680.9728h749.6448v38.85312H137.05984z" fill="#EC407A" p-id="5777"></path><path d="M526.85824 919.3088l-374.9632-216.49408 19.42528-33.64608 374.9632 216.49408z m325.7344-564.2496l-374.9632-216.49408 19.42528-33.64608 374.9632 216.49408z" fill="#EC407A" p-id="5778"></path><path d="M171.42272 354.9056l-19.42784-33.64352 374.9632-216.49408 19.42784 33.64608z" fill="#EC407A" p-id="5779"></path><path d="M845.68064 752.2688l-374.8352-649.216 33.64608-19.42528 374.8352 649.216z m-678.912-456.7808H205.6192v432.9984H166.76864z m651.5968 0h38.85312v432.9984h-38.85312z" fill="#EC407A" p-id="5780"></path><path d="M520.25344 902.8736l-16.97024-29.39136 326.1184-188.29312 16.97024 29.3888z" fill="#EC407A" p-id="5781"></path><path d="M908.70784 741.1328c-22.46912 39.08608-72.55552 52.42624-111.6416 29.95712s-52.4288-72.55552-29.95712-111.6416c22.46656-39.08608 72.55552-52.42624 111.6416-29.95712 39.31904 22.70208 52.6592 72.55552 29.95712 111.6416m-652.0576-376.576c-22.46912 39.08608-72.55552 52.42624-111.6416 29.95712s-52.4288-72.55552-29.95712-111.6416c22.46656-39.08608 72.55552-52.42624 111.6416-29.95712 39.08608 22.70208 52.42624 72.55552 29.95712 111.6416m-141.36576 376.576c-22.46912-39.08608-9.12896-88.93952 29.95712-111.6416 39.08608-22.46912 88.93952-9.12896 111.6416 29.95712 22.46656 39.08608 9.1264 88.93952-29.95712 111.6416-39.3216 22.46912-89.17248 9.12896-111.6416-29.95712m652.0576-376.576c-22.46912-39.08608-9.12896-88.93952 29.95712-111.6416 39.08608-22.46912 88.93952-9.12896 111.6416 29.95712 22.46656 39.08608 9.1264 88.93952-29.95712 111.6416-39.08608 22.46912-89.17248 9.12896-111.6416-29.95712m-255.3472 605.7216c-45.1712 0-81.68192-36.51072-81.68192-81.68192s36.51072-81.68192 81.68192-81.68192 81.68192 36.51072 81.68192 81.68192c0 44.93824-36.51072 81.68192-81.68192 81.68192m0-753.1776c-45.1712 0-81.68192-36.51072-81.68192-81.68192s36.51072-81.68192 81.68192-81.68192 81.68192 36.51072 81.68192 81.68192-36.51072 81.68192-81.68192 81.68192" fill="#EC407A" p-id="5782"></path></svg>