<svg xmlns="http://www.w3.org/2000/svg" fill="none" width="960" height="905"><defs><linearGradient x1="1" y1=".976" x2=".784" y2=".432" id="a"><stop offset="0%" stop-color="#70BFFC"/><stop offset="100%" stop-color="#248EFF"/></linearGradient><linearGradient x1="1.093" y1=".141" x2="0" y2=".778" id="b"><stop offset="0%" stop-color="#9ED3FF"/><stop offset="100%" stop-color="#008DFF"/></linearGradient><linearGradient x1=".937" x2=".094" y2=".928" id="c"><stop offset="0%" stop-color="#8E89FF"/><stop offset="99.286%" stop-color="#3666D6"/></linearGradient><linearGradient x1="1" y1=".967" x2=".495" y2=".419" id="d"><stop offset="0%" stop-color="#6861FF"/><stop offset="100%" stop-color="#32D8D8"/></linearGradient><linearGradient x1="1" y1=".298" x2="-.079" y2=".83" id="e"><stop offset="0%" stop-color="#56EDFD"/><stop offset="100%" stop-color="#0094FF"/></linearGradient><linearGradient y1=".975" x2="1" y2=".176" id="f"><stop offset="0%" stop-color="#1A9199"/><stop offset="100%" stop-color="#6FBFFC"/></linearGradient></defs><path d="M295 257.4L389 163c13.9-13.9 37.6-4 37.6 15.6v389.7c0 15.7-19 23.6-30.1 12.5L146.5 330.3c-20.7-20.7-20.7-54.2 0-74.8L396.6 5.2C407.7-6 426.7 2 426.7 17.7v35.6c0 4.7-1.8 9.2-5.1 12.5L195.2 292.7 341.3 439c9 9 24.4 2.6 24.4-10.2V272.9l-45.9 45.5c-11.1 11.1-30 3.2-30-12.4v-36.2c0-4.6 1.8-9.1 5.2-12.4z" fill-rule="evenodd" fill="url(#a)"/><path d="M289.7 327.1c0 7.9 9.5 11.8 15.1 6.3l60.9-60.5q36.2-34.9 52.7-27.3 5.1 2.4 8.3 8.9v-75.9c0-19.6-23.7-29.5-37.6-15.6L295 257.4c-3.4 3.3-5.3 7.8-5.3 12.4v57.3z" fill="url(#b)"/><path d="M178.3 224q-18.3 18.4 16.9 68.7L421.6 65.8c3.3-3.3 5.1-7.8 5.1-12.5V17.7c0-15.7-19-23.6-30.1-12.4L178.3 224z" fill="url(#c)"/><g><path d="M940 843.4L1034 749c13.9-13.9 37.6-4 37.6 15.6v389.7c0 15.7-19 23.6-30.1 12.5L791.5 916.3c-20.7-20.7-20.7-54.2 0-74.8l250.1-250.3c11.1-11.2 30.1-3.2 30.1 12.5v35.6c0 4.7-1.8 9.2-5.1 12.5L840.2 878.7 986.3 1025c9 9 24.4 2.6 24.4-10.2V858.9l-45.9 45.5c-11.1 11.1-30 3.2-30-12.4v-36.2c0-4.6 1.8-9.1 5.2-12.4z" fill-rule="evenodd" fill="url(#d)" transform="rotate(180 776 586)"/><path d="M934.7 913.1c0 7.9 9.5 11.8 15.1 6.3l60.9-60.5q36.2-34.9 52.7-27.3 5.1 2.4 8.3 8.9v-75.9c0-19.6-23.7-29.5-37.6-15.6L940 843.4c-3.4 3.3-5.3 7.8-5.3 12.4v57.3z" fill="url(#e)" transform="rotate(180 776 586)"/><path d="M823.3 810q-18.3 18.4 16.9 68.7l226.4-226.9c3.3-3.3 5.1-7.8 5.1-12.5v-35.6c0-15.7-19-23.6-30.1-12.4L823.3 810z" fill="url(#f)" transform="rotate(180 776 586)"/></g><g><path d="M36 852.5H0L65.7 666h41.7L173 852.5h-36L87.3 704.3h-1.5L36 852.5zm1.2-73.1h98.4v27.2H37.2v-27.2zm192-113.4v186.5h-33V666h33zm94.9 189.3q-20.5 0-35.5-9-15-9.1-23.3-25.3-8.3-16.2-8.3-37.8 0-21.7 8.3-38 8.3-16.2 23.3-25.3 15-9.1 35.5-9.1t35.5 9.1q15.1 9.1 23.3 25.3 8.2 16.3 8.2 38 0 21.6-8.2 37.8-8.2 16.2-23.3 25.3-15 9-35.5 9zm.2-26.4q11.1 0 18.6-6.2 7.4-6.1 11.1-16.5 3.7-10.4 3.7-23.2 0-12.8-3.7-23.2-3.7-10.4-11.1-16.6-7.5-6.2-18.6-6.2-11.3 0-18.9 6.2-7.4 6.2-11.2 16.6-3.7 10.4-3.7 23.2 0 12.8 3.7 23.2 3.8 10.4 11.2 16.5 7.6 6.2 18.9 6.2zm214.9-116.2l-49.9 139.8h-36.4L403 712.7h35.2l32.2 103.9h1.4L504 712.7h35.2zM598 855.4q-13.3 0-23.9-4.8-10.6-4.8-16.8-14.2-6.1-9.4-6.1-23.1 0-11.8 4.4-19.6 4.4-7.7 12-12.4 7.5-4.7 17-7 9.5-2.4 19.7-3.5 12.4-1.3 20-2.4 7.7-1 11.1-3.3 3.6-2.1 3.6-6.9v-.6q0-10.3-6.2-15.9-6-5.7-17.6-5.7-12.1 0-19.2 5.3-7 5.3-9.5 12.5l-30.7-4.3q3.6-12.8 12-21.4 8.4-8.6 20.5-12.9 12.1-4.4 26.7-4.4 10.1 0 20.2 2.4 10 2.4 18.3 7.8 8.3 5.5 13.4 14.7Q672 745 672 759v93.5h-31.8v-19.2h-1.1q-3 5.9-8.4 10.9-5.5 5.1-13.6 8.1-8.1 3.1-19.1 3.1zm8.6-24.3q9.9 0 17.2-3.9 7.2-4 11.2-10.5 4-6.6 4-14.4v-16.4q-1.6 1.3-5.2 2.4-3.7 1.1-8.3 1.9l-9 1.4-7.8 1.1q-7.3 1.1-13.1 3.3-5.8 2.3-9.2 6.3-3.4 4.1-3.4 10.5 0 9 6.7 13.7 6.6 4.6 16.9 4.6zm118.8 23.5q-8.3 0-14.2-5.9-5.9-5.8-5.8-14.2-.1-8.1 5.8-14 5.9-5.8 14.2-5.8 8.1 0 14 5.8 6 5.9 6.1 14-.1 5.5-2.9 10.1-2.7 4.6-7.2 7.3-4.6 2.7-10 2.7zm54.2-141.9h33v147.9q0 15.1-5.7 24.9-5.8 9.8-16.6 14.7-10.9 4.8-26.3 4.8h-3.4l-3.4-.1V878h2.5l2.3.1q9.5 0 13.5-4.6 4.1-4.5 4.1-13.4V712.7zm16.4-19.9q-7.9 0-13.5-5.2-5.6-5.3-5.6-12.6 0-7.5 5.6-12.7 5.6-5.3 13.5-5.3t13.5 5.3q5.5 5.2 5.5 12.7 0 7.3-5.5 12.6-5.6 5.2-13.5 5.2zm161 56.9l-30 3.3q-1.3-4.7-4.5-8.7-3.1-4-8.4-6.4-5.3-2.5-12.9-2.5-10.2 0-17.2 4.5-7 4.4-7 11.6 0 6 4.6 9.9 4.6 3.8 15.2 6.3l23.9 5.1q19.8 4.2 29.5 13.6 9.8 9.3 9.8 24.3 0 13.1-7.7 23.3-7.6 10-21.1 15.6-13.4 5.7-30.9 5.7-25.7 0-41.3-10.8-15.7-10.8-18.8-30.1l32.2-3.1q2.2 9.4 9.3 14.3 7.1 4.8 18.5 4.8 11.8 0 18.9-4.8 7.1-4.8 7.2-12-.1-5.9-4.7-9.9-4.6-3.9-14.2-5.9l-23.9-5.1q-20.1-4.2-29.7-14.2-9.7-9.9-9.6-25.2-.1-12.9 7.1-22.4 7.1-9.6 19.9-14.9 12.8-5.2 29.6-5.2 24.6 0 38.7 10.5 14.1 10.5 17.5 28.4z" fill="#333"/></g></svg>