<svg xmlns="http://www.w3.org/2000/svg" xmlns:xlink="http://www.w3.org/1999/xlink" fill="none" version="1.1" width="126" height="126" viewBox="0 0 126 126"><g><path d="M21,0C9.402,0,0,9.402,0,21L0,105C0,116.598,9.402,126,21,126L105,126C116.598,126,126,116.598,126,105L126,21C126,9.402,116.598,0,105,0L21,0ZM27.2578,27L51.0703,27L67.9805,51.0293L88.5,27L96,27L71.3672,55.8398L101.742,99L77.9355,99L58.3125,71.1211L34.5,99L27,99L54.9258,66.3105L27.2578,27ZM38.7422,33L81.0645,93L90.2578,93L47.9355,33L38.7422,33Z" fill="#ffffff" fill-opacity="1"/></g></svg>