<svg xmlns="http://www.w3.org/2000/svg" xmlns:xlink="http://www.w3.org/1999/xlink" fill="none" version="1.1" viewBox="0 0 495 175.19500732421875"><g clip-path="url(#master_svg0_202_527)"><g><g><g><rect x="2" y="2" width="491" height="171" rx="0" fill="#FFFFFF" fill-opacity="1"/><rect x="2" y="2" width="491" height="171" rx="0" fill-opacity="0" stroke-opacity="1" stroke="#F5DD1E" fill="none" stroke-width="4"/></g></g><g><g><path d="M210,153L228.7406,153L249.1055,103.0418L249.8551,103.0418L269.0955,153L288.4608,153L261.34929999999997,87.304L287.5862,26L268.9705,26L249.98,73.76230000000001L249.2304,73.76230000000001L231.1145,26L211.99901,26L237.6112,88.402L210,153ZM354.553,26L354.553,75.0432L317.446,75.0432L317.446,26L301.0795,26L301.0795,153L317.446,153L317.446,94.9899L354.553,94.9899L354.553,153L370.91999999999996,153L370.91999999999996,26L354.553,26ZM460,153L435.137,102.3098C446.507,97.7349,451.879,86.5721,451.879,65.34440000000001C451.879,36.4308,442.009,26,418.52099999999996,26L391.534,26L391.534,153L407.901,153L407.901,105.0547L418.52099999999996,105.0547L419.145,105.0547L440.76,153L460,153ZM407.901,86.7551L407.901,45.3977L416.272,45.3977C430.14,45.3977,435.512,48.8746,435.512,65.34440000000001C435.512,83.2781,430.14,86.7551,416.272,86.7551L407.901,86.7551Z" fill="#3D3D3D" fill-opacity="1"/></g></g><g><g><path d="M0,0L175.195,0L175.195,175.195L0,175.195L0,0ZM160.84,133.418C159.57,125.43,154.355,118.711,138.926,112.441C133.555,109.922,127.578,108.164,125.801,104.121C125.137,101.719,125.039,100.391,125.469,98.9648C126.562,94.2578,132.148,92.832,136.523,94.1406C139.375,95.0195,141.992,97.207,143.652,100.703C151.191,95.7617,151.191,95.7617,156.465,92.5C154.492,89.4336,153.516,88.1055,152.188,86.7969C147.598,81.6602,141.465,79.0234,131.504,79.2578L126.348,79.9023C121.406,81.1133,116.719,83.7305,113.867,87.2461C105.547,96.6797,107.949,113.086,118.027,119.883C127.988,127.324,142.559,128.965,144.434,135.977C146.191,144.512,138.086,147.246,130.078,146.27C124.16,144.961,120.879,141.992,117.266,136.523L103.906,144.199C105.43,147.695,107.188,149.238,109.824,152.285C122.52,165.098,154.277,164.453,159.98,144.961C160.195,144.297,161.738,139.805,160.527,132.91L160.84,133.418ZM95.2734,80.5273L78.8672,80.5273C78.8672,94.668,78.8086,108.73,78.8086,122.91C78.8086,131.895,79.2773,140.156,77.793,142.695C75.3906,147.734,69.1797,147.09,66.3672,146.191C63.4766,144.766,62.0117,142.793,60.3125,139.941C59.8438,139.18,59.5117,138.516,59.3945,138.516L46.0742,146.719C48.3008,151.309,51.543,155.273,55.7422,157.793C61.9922,161.523,70.3711,162.715,79.1602,160.742C84.8828,159.102,89.8047,155.703,92.3828,150.449C96.1133,143.652,95.3125,135.332,95.2734,126.016C95.3516,111.016,95.2734,96.0156,95.2734,80.918L95.2734,80.5273Z" fill="#F5DD1E" fill-opacity="1"/></g></g></g></g></svg>